M48
;Layer_Color=6321
;FILE_FORMAT=4:3
METRIC,LZ
;TYPE=PLATED
T1F00S00C0.300
T2F00S00C0.500
T3F00S00C0.762
T4F00S00C0.800
T5F00S00C0.965
T6F00S00C1.000
T8F00S00C1.016
T9F00S00C1.100
T10F00S00C4.500
%
T01
X0051725Y00267
X0101725Y004855
X00729Y007285
X004695Y0068925
X00469Y00535
X0036756Y0042719
T02
X006935Y0055475
X007285Y0055775
X0073675Y0053075
X0074807Y0091557
X0066725Y0091575
X0058589Y0091664
X0050625Y00916
X0042565Y009181
X0082833Y0091471
X0090483Y0091421
X0098458Y0091446
T03
X00905Y0067175
X00955
X009532Y0079201
X0099227
X0091266Y0079176
X0087359
X0083605Y0079201
X0079698
X007557Y0079326
X0071663
X0067452Y0079268
X0063443
X0059475
X0055466
X0051459
X0047451
X0043392
X0061675Y00706
X0057913Y0066628
Y0061628
X0061675Y006044
X0065493Y00612
Y0057781
X0070493
Y00612
X007005Y00462
X006505
X0031075Y0042719
X00268
X0022525
Y0052879
X00268
X0031075
X00314Y0079225
X0035325
X0039383Y0079268
X0027475Y0079225
X002355
Y0089385
X0027475
X00314
X0035325
X0039383Y0089428
X0043392
X0047451
X0051459
X0055466
X0059475
X0063443
X0067452
X0071663Y0089486
X007557
X0079698Y0089361
X0083605
X0087359Y0089336
X0091266
X009532Y0089361
X0099227
T04
X0025295Y0066825
X0026565
X0027835
X0029105
T05
X0039155Y0025569
Y0028109
Y0030649
Y0033189
Y0035729
Y0038269
X0054395
Y0035729
Y0033189
Y0030649
Y0028109
Y0025569
X008118Y0025594
Y0028134
Y0030674
Y0033214
Y0035754
Y0038294
X009642
Y0035754
Y0033214
Y0030674
Y0028134
Y0025594
Y0040834
Y0043374
Y0045914
Y0048454
Y0050994
Y0053534
Y0056074
Y0058614
Y0061154
X008118
Y0058614
Y0056074
Y0053534
Y0050994
Y0048454
Y0045914
Y0043374
Y0040834
X0054395Y0040809
Y0043349
Y0045889
Y0048429
Y0050969
Y0053509
Y0056049
Y0058589
Y0061129
X0039155
Y0058589
Y0056049
Y0053509
Y0050969
Y0048429
Y0045889
Y0043349
Y0040809
T06
X004398Y01116
X004652
X004906
X00516
T08
X0081635Y0103255
Y0105795
Y0108335
Y0110875
X0084175
Y0108335
Y0105795
Y0103255
T09
X010505Y0050475
X010759
Y0053015
Y0055555
Y0058095
Y0060635
Y0063175
X010505
Y0060635
Y0058095
Y0055555
Y0053015
X010655Y006674
Y006928
Y007182
Y007436
Y0077965
Y0080505
Y0083045
Y0085585
Y0089165
Y0091705
Y0094245
Y0096785
T10
X002Y0025
X011
X002Y0115
X011
M30
