G04 Layer_Physical_Order=3*
G04 Layer_Color=56745*
%FSLAX43Y43*%
%MOMM*%
G71*
G01*
G75*
%ADD14C,0.254*%
%ADD16C,1.524*%
%ADD18C,1.651*%
%ADD20O,4.500X1.750*%
%ADD21O,2.540X1.905*%
%ADD23R,1.800X1.800*%
%ADD24C,2.000*%
%ADD26C,0.500*%
%ADD28C,0.600*%
%ADD29C,1.000*%
G36*
X106281Y114411D02*
X106419Y113836D01*
X106645Y113290D01*
X106954Y112787D01*
X107337Y112337D01*
X107787Y111954D01*
X108290Y111645D01*
X108836Y111419D01*
X109411Y111281D01*
X110000Y111234D01*
X110050Y111188D01*
Y28812D01*
X110000Y28766D01*
X109411Y28719D01*
X108836Y28581D01*
X108290Y28355D01*
X107787Y28046D01*
X107337Y27663D01*
X106954Y27213D01*
X106645Y26710D01*
X106419Y26164D01*
X106281Y25589D01*
X106234Y25000D01*
X97479D01*
X97395Y25127D01*
X97472Y25312D01*
X97509Y25594D01*
X97472Y25876D01*
X97363Y26139D01*
X97190Y26364D01*
X96964Y26537D01*
X96702Y26646D01*
X96420Y26683D01*
X96138Y26646D01*
X95876Y26537D01*
X95650Y26364D01*
X95477Y26139D01*
X95368Y25876D01*
X95331Y25594D01*
X95368Y25312D01*
X95445Y25127D01*
X95361Y25000D01*
X82239D01*
X82155Y25127D01*
X82232Y25312D01*
X82269Y25594D01*
X82232Y25876D01*
X82123Y26139D01*
X81950Y26364D01*
X81724Y26537D01*
X81462Y26646D01*
X81180Y26683D01*
X80898Y26646D01*
X80636Y26537D01*
X80410Y26364D01*
X80237Y26139D01*
X80128Y25876D01*
X80091Y25594D01*
X80128Y25312D01*
X80205Y25127D01*
X80121Y25000D01*
X55465D01*
X55380Y25127D01*
X55447Y25287D01*
X55484Y25569D01*
X55447Y25851D01*
X55338Y26114D01*
X55165Y26339D01*
X54939Y26512D01*
X54677Y26621D01*
X54395Y26658D01*
X54113Y26621D01*
X53851Y26512D01*
X53625Y26339D01*
X53452Y26114D01*
X53343Y25851D01*
X53306Y25569D01*
X53343Y25287D01*
X53410Y25127D01*
X53325Y25000D01*
X48932D01*
X48884Y25117D01*
X52932Y29166D01*
X53799D01*
X53828Y29102D01*
X53833Y29039D01*
X53625Y28879D01*
X53452Y28654D01*
X53343Y28391D01*
X53323Y28236D01*
X55467D01*
X55447Y28391D01*
X55338Y28654D01*
X55165Y28879D01*
X54957Y29039D01*
X54962Y29102D01*
X54991Y29166D01*
X80543D01*
X80586Y29039D01*
X80410Y28904D01*
X80237Y28679D01*
X80128Y28416D01*
X80091Y28134D01*
X80128Y27852D01*
X80237Y27590D01*
X80410Y27364D01*
X80636Y27191D01*
X80898Y27082D01*
X81180Y27045D01*
X81462Y27082D01*
X81724Y27191D01*
X81950Y27364D01*
X82123Y27590D01*
X82232Y27852D01*
X82269Y28134D01*
X82232Y28416D01*
X82123Y28679D01*
X81950Y28904D01*
X81774Y29039D01*
X81817Y29166D01*
X95783D01*
X95826Y29039D01*
X95650Y28904D01*
X95477Y28679D01*
X95368Y28416D01*
X95348Y28261D01*
X97492D01*
X97472Y28416D01*
X97363Y28679D01*
X97190Y28904D01*
X97014Y29039D01*
X97057Y29166D01*
X100625D01*
X102010Y29166D01*
X102109Y29186D01*
X102193Y29242D01*
X102283Y29332D01*
X102339Y29416D01*
X102359Y29515D01*
X102359Y48042D01*
X102352Y48079D01*
X102348Y48117D01*
X102342Y48128D01*
X102339Y48141D01*
X102318Y48172D01*
X102300Y48206D01*
X102290Y48214D01*
X102283Y48225D01*
X102272Y48232D01*
X102201Y48348D01*
X102200Y48353D01*
X102239Y48550D01*
X102200Y48747D01*
X102201Y48752D01*
X102272Y48868D01*
X102283Y48875D01*
X102290Y48886D01*
X102300Y48894D01*
X102318Y48928D01*
X102339Y48959D01*
X102342Y48972D01*
X102348Y48983D01*
X102352Y49021D01*
X102359Y49058D01*
X102359Y82750D01*
X102339Y82849D01*
X102283Y82933D01*
X100783Y84433D01*
X100108Y85108D01*
X100024Y85164D01*
X99925Y85184D01*
X20050D01*
X20000Y85225D01*
Y111234D01*
X20000Y111234D01*
X20589Y111281D01*
X21164Y111419D01*
X21710Y111645D01*
X22213Y111954D01*
X22663Y112337D01*
X23046Y112787D01*
X23355Y113290D01*
X23581Y113836D01*
X23719Y114411D01*
X23766Y115000D01*
X106234D01*
X106281Y114411D01*
D02*
G37*
G36*
X97900Y68875D02*
X97900Y55090D01*
X97810Y55000D01*
X96979D01*
X96954Y55127D01*
X96964Y55131D01*
X97190Y55304D01*
X97363Y55530D01*
X97472Y55792D01*
X97509Y56074D01*
X97472Y56356D01*
X97363Y56619D01*
X97190Y56844D01*
X96964Y57017D01*
X96702Y57126D01*
X96420Y57163D01*
X96138Y57126D01*
X95876Y57017D01*
X95650Y56844D01*
X95477Y56619D01*
X95368Y56356D01*
X95331Y56074D01*
X95368Y55792D01*
X95477Y55530D01*
X95650Y55304D01*
X95876Y55131D01*
X95886Y55127D01*
X95861Y55000D01*
X81739D01*
X81714Y55127D01*
X81724Y55131D01*
X81950Y55304D01*
X82123Y55530D01*
X82232Y55792D01*
X82269Y56074D01*
X82232Y56356D01*
X82123Y56619D01*
X81950Y56844D01*
X81724Y57017D01*
X81462Y57126D01*
X81180Y57163D01*
X80898Y57126D01*
X80636Y57017D01*
X80410Y56844D01*
X80237Y56619D01*
X80128Y56356D01*
X80091Y56074D01*
X80128Y55792D01*
X80237Y55530D01*
X80410Y55304D01*
X80636Y55131D01*
X80646Y55127D01*
X80621Y55000D01*
X69847D01*
X69784Y55127D01*
X69872Y55259D01*
X69890Y55348D01*
X68810D01*
X68828Y55259D01*
X68916Y55127D01*
X68853Y55000D01*
X54996D01*
X54966Y55127D01*
X55165Y55279D01*
X55338Y55505D01*
X55447Y55767D01*
X55484Y56049D01*
X55447Y56331D01*
X55338Y56594D01*
X55165Y56819D01*
X54939Y56992D01*
X54677Y57101D01*
X54395Y57138D01*
X54113Y57101D01*
X53851Y56992D01*
X53625Y56819D01*
X53452Y56594D01*
X53343Y56331D01*
X53306Y56049D01*
X53343Y55767D01*
X53452Y55505D01*
X53625Y55279D01*
X53824Y55127D01*
X53794Y55000D01*
X47100D01*
X40348Y48248D01*
X40228Y48307D01*
X40244Y48429D01*
X40207Y48711D01*
X40098Y48974D01*
X39925Y49199D01*
X39699Y49372D01*
X39437Y49481D01*
X39155Y49518D01*
X38873Y49481D01*
X38611Y49372D01*
X38385Y49199D01*
X38212Y48974D01*
X38103Y48711D01*
X38066Y48429D01*
X38103Y48147D01*
X38212Y47885D01*
X38385Y47659D01*
X38611Y47486D01*
X38873Y47377D01*
X39155Y47340D01*
X39277Y47356D01*
X39336Y47236D01*
X39066Y46966D01*
X38873Y46941D01*
X38611Y46832D01*
X38385Y46659D01*
X38212Y46434D01*
X38103Y46171D01*
X38078Y45978D01*
X35800Y43700D01*
X35800Y25115D01*
X35710Y25025D01*
X23764D01*
X23719Y25589D01*
X23581Y26164D01*
X23355Y26710D01*
X23046Y27213D01*
X22663Y27663D01*
X22213Y28046D01*
X21710Y28355D01*
X21164Y28581D01*
X20589Y28719D01*
X20000Y28766D01*
X20000Y28766D01*
Y67300D01*
X24496D01*
X24569Y67173D01*
X24512Y67035D01*
X24484Y66825D01*
X24512Y66615D01*
X24593Y66420D01*
X24722Y66252D01*
X24890Y66123D01*
X25085Y66042D01*
X25295Y66014D01*
X25505Y66042D01*
X25700Y66123D01*
X25845Y66234D01*
X25930Y66246D01*
X26015Y66234D01*
X26160Y66123D01*
X26355Y66042D01*
X26565Y66014D01*
X26775Y66042D01*
X26970Y66123D01*
X27115Y66234D01*
X27200Y66246D01*
X27285Y66234D01*
X27430Y66123D01*
X27625Y66042D01*
X27835Y66014D01*
X28045Y66042D01*
X28240Y66123D01*
X28385Y66234D01*
X28470Y66246D01*
X28555Y66234D01*
X28700Y66123D01*
X28895Y66042D01*
X29105Y66014D01*
X29315Y66042D01*
X29510Y66123D01*
X29678Y66252D01*
X29807Y66420D01*
X29888Y66615D01*
X29916Y66825D01*
X29888Y67035D01*
X29831Y67173D01*
X29904Y67300D01*
X57004D01*
X57061Y67186D01*
X57026Y67141D01*
X56924Y66894D01*
X56889Y66628D01*
X56924Y66363D01*
X57026Y66116D01*
X57189Y65904D01*
X57401Y65741D01*
X57648Y65639D01*
X57913Y65604D01*
X58179Y65639D01*
X58426Y65741D01*
X58638Y65904D01*
X58801Y66116D01*
X58903Y66363D01*
X58938Y66628D01*
X58903Y66894D01*
X58801Y67141D01*
X58766Y67186D01*
X58822Y67300D01*
X82225D01*
X83400Y68475D01*
X83800Y68875D01*
X97900Y68875D01*
D02*
G37*
G36*
X100600Y84250D02*
X102100Y82750D01*
X102100Y49058D01*
X101973Y48990D01*
X101922Y49025D01*
X101852Y49039D01*
Y48550D01*
Y48061D01*
X101922Y48075D01*
X101973Y48110D01*
X102100Y48042D01*
X102100Y29515D01*
X102010Y29425D01*
X100625Y29425D01*
X52825D01*
X48400Y25000D01*
X40225D01*
X40140Y25127D01*
X40207Y25287D01*
X40244Y25569D01*
X40207Y25851D01*
X40098Y26114D01*
X39925Y26339D01*
X39699Y26512D01*
X39437Y26621D01*
X39155Y26658D01*
X38873Y26621D01*
X38611Y26512D01*
X38385Y26339D01*
X38212Y26114D01*
X38103Y25851D01*
X38066Y25569D01*
X38103Y25287D01*
X38170Y25127D01*
X38085Y25000D01*
X36166D01*
X36059Y25115D01*
X36059Y43593D01*
X37997Y45531D01*
X38147Y45501D01*
X38212Y45345D01*
X38385Y45119D01*
X38611Y44946D01*
X38873Y44838D01*
X39155Y44800D01*
X39437Y44838D01*
X39699Y44946D01*
X39925Y45119D01*
X40098Y45345D01*
X40207Y45607D01*
X40244Y45889D01*
X40207Y46171D01*
X40098Y46434D01*
X39925Y46659D01*
X39699Y46832D01*
X39543Y46897D01*
X39513Y47047D01*
X39519Y47053D01*
X39524Y47060D01*
X39531Y47065D01*
X39552Y47102D01*
X39575Y47137D01*
X39577Y47145D01*
X39581Y47153D01*
X39587Y47195D01*
X39595Y47236D01*
X39593Y47245D01*
X39595Y47253D01*
X39584Y47294D01*
X39575Y47335D01*
X39617Y47452D01*
X39699Y47486D01*
X39925Y47659D01*
X40098Y47885D01*
X40132Y47967D01*
X40249Y48009D01*
X40290Y48001D01*
X40331Y47990D01*
X40340Y47991D01*
X40348Y47989D01*
X40389Y47997D01*
X40431Y48003D01*
X40439Y48007D01*
X40447Y48009D01*
X40482Y48032D01*
X40519Y48053D01*
X40524Y48060D01*
X40531Y48065D01*
X47207Y54741D01*
X53794D01*
X53815Y54745D01*
X53836Y54744D01*
X53864Y54755D01*
X53893Y54761D01*
X53911Y54773D01*
X53930Y54780D01*
X53952Y54800D01*
X53977Y54817D01*
X53989Y54835D01*
X54004Y54849D01*
X54017Y54876D01*
X54033Y54901D01*
X54034Y54907D01*
X54113Y54998D01*
X54395Y54960D01*
X54677Y54998D01*
X54756Y54907D01*
X54757Y54901D01*
X54773Y54876D01*
X54786Y54849D01*
X54801Y54835D01*
X54813Y54817D01*
X54838Y54800D01*
X54860Y54780D01*
X54879Y54773D01*
X54897Y54761D01*
X54926Y54755D01*
X54954Y54744D01*
X54975Y54745D01*
X54996Y54741D01*
X68853D01*
X68893Y54749D01*
X68934Y54754D01*
X68942Y54759D01*
X68952Y54761D01*
X68986Y54784D01*
X69022Y54804D01*
X69028Y54812D01*
X69036Y54817D01*
X69059Y54851D01*
X69084Y54884D01*
X69116Y54949D01*
X69134Y54953D01*
X69350Y54910D01*
X69566Y54953D01*
X69584Y54949D01*
X69616Y54884D01*
X69641Y54851D01*
X69664Y54817D01*
X69672Y54812D01*
X69678Y54804D01*
X69714Y54784D01*
X69748Y54761D01*
X69758Y54759D01*
X69766Y54754D01*
X69807Y54749D01*
X69847Y54741D01*
X80621D01*
X80646Y54746D01*
X80671D01*
X80695Y54756D01*
X80720Y54761D01*
X80741Y54775D01*
X80764Y54785D01*
X80783Y54803D01*
X80804Y54817D01*
X80818Y54838D01*
X80836Y54856D01*
X80846Y54880D01*
X80860Y54901D01*
X80865Y54926D01*
X80875Y54949D01*
X80885Y55000D01*
X81069D01*
X81180Y54985D01*
X81291Y55000D01*
X81475D01*
X81485Y54949D01*
X81495Y54926D01*
X81500Y54901D01*
X81514Y54880D01*
X81524Y54856D01*
X81542Y54838D01*
X81556Y54817D01*
X81577Y54803D01*
X81595Y54785D01*
X81619Y54775D01*
X81640Y54761D01*
X81665Y54756D01*
X81689Y54746D01*
X81714D01*
X81739Y54741D01*
X95861D01*
X95886Y54746D01*
X95911D01*
X95935Y54756D01*
X95960Y54761D01*
X95981Y54775D01*
X96004Y54785D01*
X96023Y54803D01*
X96044Y54817D01*
X96058Y54838D01*
X96076Y54856D01*
X96086Y54880D01*
X96100Y54901D01*
X96105Y54926D01*
X96115Y54949D01*
X96125Y55000D01*
X96309D01*
X96420Y54985D01*
X96531Y55000D01*
X96715D01*
X96725Y54949D01*
X96735Y54926D01*
X96740Y54901D01*
X96754Y54880D01*
X96764Y54856D01*
X96782Y54838D01*
X96796Y54817D01*
X96817Y54803D01*
X96835Y54785D01*
X96859Y54775D01*
X96880Y54761D01*
X96905Y54756D01*
X96929Y54746D01*
X96954D01*
X96979Y54741D01*
X97810D01*
X97909Y54761D01*
X97993Y54817D01*
X98083Y54907D01*
X98139Y54991D01*
X98159Y55090D01*
X98159Y68875D01*
X98139Y68974D01*
X98083Y69058D01*
X97999Y69114D01*
X97900Y69134D01*
X83800Y69134D01*
X83701Y69114D01*
X83617Y69058D01*
X83217Y68658D01*
X82118Y67559D01*
X58822D01*
X58781Y67551D01*
X58757Y67548D01*
X58739Y67545D01*
X58732Y67541D01*
X58723Y67539D01*
X58685Y67515D01*
X58652Y67495D01*
X58533Y67466D01*
X58524Y67464D01*
X58484Y67471D01*
X58426Y67516D01*
X58179Y67618D01*
X57913Y67653D01*
X57648Y67618D01*
X57401Y67516D01*
X57328Y67460D01*
X57188Y67483D01*
X57180Y67488D01*
X57175Y67495D01*
X57139Y67516D01*
X57104Y67539D01*
X57095Y67541D01*
X57088Y67545D01*
X57046Y67551D01*
X57004Y67559D01*
X29904D01*
X29870Y67552D01*
X29836Y67550D01*
X29821Y67542D01*
X29805Y67539D01*
X29776Y67520D01*
X29745Y67505D01*
X29734Y67492D01*
X29721Y67483D01*
X29585Y67470D01*
X29510Y67527D01*
X29315Y67608D01*
X29105Y67636D01*
X28895Y67608D01*
X28700Y67527D01*
X28555Y67416D01*
X28470Y67404D01*
X28385Y67416D01*
X28240Y67527D01*
X28045Y67608D01*
X27835Y67636D01*
X27625Y67608D01*
X27430Y67527D01*
X27285Y67416D01*
X27200Y67404D01*
X27115Y67416D01*
X26970Y67527D01*
X26775Y67608D01*
X26565Y67636D01*
X26355Y67608D01*
X26160Y67527D01*
X26015Y67416D01*
X25930Y67404D01*
X25845Y67416D01*
X25700Y67527D01*
X25505Y67608D01*
X25295Y67636D01*
X25085Y67608D01*
X24890Y67527D01*
X24815Y67470D01*
X24679Y67483D01*
X24666Y67492D01*
X24655Y67505D01*
X24624Y67520D01*
X24595Y67539D01*
X24579Y67542D01*
X24564Y67550D01*
X24530Y67552D01*
X24496Y67559D01*
X20050D01*
Y84925D01*
X99925D01*
X100600Y84250D01*
D02*
G37*
%LPC*%
G36*
X72723Y56315D02*
X72634Y56297D01*
X72451Y56174D01*
X72328Y55991D01*
X72310Y55902D01*
X72723D01*
Y56315D01*
D02*
G37*
G36*
X72977D02*
Y55902D01*
X73390D01*
X73372Y55991D01*
X73249Y56174D01*
X73066Y56297D01*
X72977Y56315D01*
D02*
G37*
G36*
X69477Y56015D02*
Y55602D01*
X69890D01*
X69872Y55691D01*
X69749Y55874D01*
X69566Y55997D01*
X69477Y56015D01*
D02*
G37*
G36*
X72723Y55648D02*
X72310D01*
X72328Y55559D01*
X72451Y55376D01*
X72634Y55253D01*
X72723Y55235D01*
Y55648D01*
D02*
G37*
G36*
X39155Y57138D02*
X38873Y57101D01*
X38611Y56992D01*
X38385Y56819D01*
X38212Y56594D01*
X38103Y56331D01*
X38066Y56049D01*
X38103Y55767D01*
X38212Y55505D01*
X38385Y55279D01*
X38611Y55106D01*
X38873Y54998D01*
X39155Y54960D01*
X39437Y54998D01*
X39699Y55106D01*
X39925Y55279D01*
X40098Y55505D01*
X40207Y55767D01*
X40244Y56049D01*
X40207Y56331D01*
X40098Y56594D01*
X39925Y56819D01*
X39699Y56992D01*
X39437Y57101D01*
X39155Y57138D01*
D02*
G37*
G36*
X69223Y56015D02*
X69134Y55997D01*
X68951Y55874D01*
X68828Y55691D01*
X68810Y55602D01*
X69223D01*
Y56015D01*
D02*
G37*
G36*
X73390Y55648D02*
X72977D01*
Y55235D01*
X73066Y55253D01*
X73249Y55376D01*
X73372Y55559D01*
X73390Y55648D01*
D02*
G37*
G36*
X54395Y59678D02*
X54113Y59641D01*
X53851Y59532D01*
X53625Y59359D01*
X53452Y59134D01*
X53343Y58871D01*
X53306Y58589D01*
X53343Y58307D01*
X53452Y58045D01*
X53625Y57819D01*
X53851Y57646D01*
X54113Y57537D01*
X54395Y57500D01*
X54677Y57537D01*
X54939Y57646D01*
X55165Y57819D01*
X55338Y58045D01*
X55447Y58307D01*
X55484Y58589D01*
X55447Y58871D01*
X55338Y59134D01*
X55165Y59359D01*
X54939Y59532D01*
X54677Y59641D01*
X54395Y59678D01*
D02*
G37*
G36*
X39155D02*
X38873Y59641D01*
X38611Y59532D01*
X38385Y59359D01*
X38212Y59134D01*
X38103Y58871D01*
X38066Y58589D01*
X38103Y58307D01*
X38212Y58045D01*
X38385Y57819D01*
X38611Y57646D01*
X38873Y57537D01*
X39155Y57500D01*
X39437Y57537D01*
X39699Y57646D01*
X39925Y57819D01*
X40098Y58045D01*
X40207Y58307D01*
X40244Y58589D01*
X40207Y58871D01*
X40098Y59134D01*
X39925Y59359D01*
X39699Y59532D01*
X39437Y59641D01*
X39155Y59678D01*
D02*
G37*
G36*
X81180Y59703D02*
X80898Y59666D01*
X80636Y59557D01*
X80410Y59384D01*
X80237Y59159D01*
X80128Y58896D01*
X80091Y58614D01*
X80128Y58332D01*
X80237Y58070D01*
X80410Y57844D01*
X80636Y57671D01*
X80898Y57562D01*
X81180Y57525D01*
X81462Y57562D01*
X81724Y57671D01*
X81950Y57844D01*
X82123Y58070D01*
X82232Y58332D01*
X82269Y58614D01*
X82232Y58896D01*
X82123Y59159D01*
X81950Y59384D01*
X81724Y59557D01*
X81462Y59666D01*
X81180Y59703D01*
D02*
G37*
G36*
X70366Y58789D02*
X70228Y58771D01*
X69981Y58668D01*
X69769Y58506D01*
X69606Y58293D01*
X69503Y58046D01*
X69485Y57908D01*
X70366D01*
Y58789D01*
D02*
G37*
G36*
X96420Y59703D02*
X96138Y59666D01*
X95876Y59557D01*
X95650Y59384D01*
X95477Y59159D01*
X95368Y58896D01*
X95331Y58614D01*
X95368Y58332D01*
X95477Y58070D01*
X95650Y57844D01*
X95876Y57671D01*
X96138Y57562D01*
X96420Y57525D01*
X96702Y57562D01*
X96964Y57671D01*
X97190Y57844D01*
X97363Y58070D01*
X97472Y58332D01*
X97509Y58614D01*
X97472Y58896D01*
X97363Y59159D01*
X97190Y59384D01*
X96964Y59557D01*
X96702Y59666D01*
X96420Y59703D01*
D02*
G37*
G36*
X70366Y57654D02*
X69485D01*
X69503Y57516D01*
X69606Y57269D01*
X69769Y57056D01*
X69981Y56893D01*
X70228Y56791D01*
X70366Y56773D01*
Y57654D01*
D02*
G37*
G36*
X65493Y58806D02*
X65228Y58771D01*
X64981Y58668D01*
X64769Y58506D01*
X64606Y58293D01*
X64503Y58046D01*
X64468Y57781D01*
X64503Y57516D01*
X64606Y57269D01*
X64769Y57056D01*
X64981Y56893D01*
X65228Y56791D01*
X65493Y56756D01*
X65758Y56791D01*
X66006Y56893D01*
X66218Y57056D01*
X66381Y57269D01*
X66483Y57516D01*
X66518Y57781D01*
X66483Y58046D01*
X66381Y58293D01*
X66218Y58506D01*
X66006Y58668D01*
X65758Y58771D01*
X65493Y58806D01*
D02*
G37*
G36*
X71501Y57654D02*
X70620D01*
Y56773D01*
X70758Y56791D01*
X71006Y56893D01*
X71218Y57056D01*
X71381Y57269D01*
X71483Y57516D01*
X71501Y57654D01*
D02*
G37*
G36*
X107590Y59259D02*
X107289Y59219D01*
X107008Y59103D01*
X106767Y58918D01*
X106582Y58677D01*
X106466Y58396D01*
X106426Y58095D01*
X106466Y57794D01*
X106582Y57513D01*
X106767Y57272D01*
X107008Y57087D01*
X107289Y56971D01*
X107590Y56931D01*
X107891Y56971D01*
X108172Y57087D01*
X108413Y57272D01*
X108598Y57513D01*
X108714Y57794D01*
X108754Y58095D01*
X108714Y58396D01*
X108598Y58677D01*
X108413Y58918D01*
X108172Y59103D01*
X107891Y59219D01*
X107590Y59259D01*
D02*
G37*
G36*
X105050D02*
X104749Y59219D01*
X104468Y59103D01*
X104227Y58918D01*
X104042Y58677D01*
X103926Y58396D01*
X103886Y58095D01*
X103926Y57794D01*
X104042Y57513D01*
X104227Y57272D01*
X104468Y57087D01*
X104749Y56971D01*
X105050Y56931D01*
X105351Y56971D01*
X105632Y57087D01*
X105873Y57272D01*
X106058Y57513D01*
X106174Y57794D01*
X106214Y58095D01*
X106174Y58396D01*
X106058Y58677D01*
X105873Y58918D01*
X105632Y59103D01*
X105351Y59219D01*
X105050Y59259D01*
D02*
G37*
G36*
X107590Y56719D02*
X107289Y56679D01*
X107008Y56563D01*
X106767Y56378D01*
X106582Y56137D01*
X106466Y55856D01*
X106426Y55555D01*
X106466Y55254D01*
X106582Y54973D01*
X106767Y54732D01*
X107008Y54547D01*
X107289Y54431D01*
X107590Y54391D01*
X107891Y54431D01*
X108172Y54547D01*
X108413Y54732D01*
X108598Y54973D01*
X108714Y55254D01*
X108754Y55555D01*
X108714Y55856D01*
X108598Y56137D01*
X108413Y56378D01*
X108172Y56563D01*
X107891Y56679D01*
X107590Y56719D01*
D02*
G37*
G36*
X81180Y54623D02*
X80898Y54586D01*
X80636Y54477D01*
X80410Y54304D01*
X80237Y54079D01*
X80128Y53816D01*
X80091Y53534D01*
X80128Y53252D01*
X80237Y52990D01*
X80410Y52764D01*
X80636Y52591D01*
X80898Y52482D01*
X81180Y52445D01*
X81462Y52482D01*
X81724Y52591D01*
X81950Y52764D01*
X82123Y52990D01*
X82232Y53252D01*
X82269Y53534D01*
X82232Y53816D01*
X82123Y54079D01*
X81950Y54304D01*
X81724Y54477D01*
X81462Y54586D01*
X81180Y54623D01*
D02*
G37*
G36*
X55467Y53382D02*
X54522D01*
Y52437D01*
X54677Y52458D01*
X54939Y52566D01*
X55165Y52739D01*
X55338Y52965D01*
X55447Y53227D01*
X55467Y53382D01*
D02*
G37*
G36*
X97492Y53407D02*
X96547D01*
Y52462D01*
X96702Y52482D01*
X96964Y52591D01*
X97190Y52764D01*
X97363Y52990D01*
X97472Y53252D01*
X97492Y53407D01*
D02*
G37*
G36*
X96293D02*
X95348D01*
X95368Y53252D01*
X95477Y52990D01*
X95650Y52764D01*
X95876Y52591D01*
X96138Y52482D01*
X96293Y52462D01*
Y53407D01*
D02*
G37*
G36*
X54268Y53382D02*
X53323D01*
X53343Y53227D01*
X53452Y52965D01*
X53625Y52739D01*
X53851Y52566D01*
X54113Y52458D01*
X54268Y52437D01*
Y53382D01*
D02*
G37*
G36*
X26800Y53904D02*
X26535Y53869D01*
X26288Y53767D01*
X26075Y53604D01*
X25913Y53392D01*
X25810Y53145D01*
X25775Y52879D01*
X25810Y52614D01*
X25913Y52367D01*
X26075Y52155D01*
X26288Y51992D01*
X26535Y51890D01*
X26800Y51855D01*
X27065Y51890D01*
X27312Y51992D01*
X27525Y52155D01*
X27687Y52367D01*
X27790Y52614D01*
X27825Y52879D01*
X27790Y53145D01*
X27687Y53392D01*
X27525Y53604D01*
X27312Y53767D01*
X27065Y53869D01*
X26800Y53904D01*
D02*
G37*
G36*
X22525D02*
X22260Y53869D01*
X22013Y53767D01*
X21800Y53604D01*
X21638Y53392D01*
X21535Y53145D01*
X21500Y52879D01*
X21535Y52614D01*
X21638Y52367D01*
X21800Y52155D01*
X22013Y51992D01*
X22260Y51890D01*
X22525Y51855D01*
X22790Y51890D01*
X23037Y51992D01*
X23250Y52155D01*
X23412Y52367D01*
X23515Y52614D01*
X23550Y52879D01*
X23515Y53145D01*
X23412Y53392D01*
X23250Y53604D01*
X23037Y53767D01*
X22790Y53869D01*
X22525Y53904D01*
D02*
G37*
G36*
X39155Y54598D02*
X38873Y54561D01*
X38611Y54452D01*
X38385Y54279D01*
X38212Y54054D01*
X38103Y53791D01*
X38066Y53509D01*
X38103Y53227D01*
X38212Y52965D01*
X38385Y52739D01*
X38611Y52566D01*
X38873Y52458D01*
X39155Y52420D01*
X39437Y52458D01*
X39699Y52566D01*
X39925Y52739D01*
X40098Y52965D01*
X40207Y53227D01*
X40244Y53509D01*
X40207Y53791D01*
X40098Y54054D01*
X39925Y54279D01*
X39699Y54452D01*
X39437Y54561D01*
X39155Y54598D01*
D02*
G37*
G36*
X31075Y53904D02*
X30810Y53869D01*
X30563Y53767D01*
X30350Y53604D01*
X30188Y53392D01*
X30085Y53145D01*
X30050Y52879D01*
X30085Y52614D01*
X30188Y52367D01*
X30350Y52155D01*
X30563Y51992D01*
X30810Y51890D01*
X31075Y51855D01*
X31340Y51890D01*
X31587Y51992D01*
X31800Y52155D01*
X31962Y52367D01*
X32065Y52614D01*
X32100Y52879D01*
X32065Y53145D01*
X31962Y53392D01*
X31800Y53604D01*
X31587Y53767D01*
X31340Y53869D01*
X31075Y53904D01*
D02*
G37*
G36*
X96293Y54606D02*
X96138Y54586D01*
X95876Y54477D01*
X95650Y54304D01*
X95477Y54079D01*
X95368Y53816D01*
X95348Y53661D01*
X96293D01*
Y54606D01*
D02*
G37*
G36*
X54522Y54581D02*
Y53636D01*
X55467D01*
X55447Y53791D01*
X55338Y54054D01*
X55165Y54279D01*
X54939Y54452D01*
X54677Y54561D01*
X54522Y54581D01*
D02*
G37*
G36*
X105050Y56719D02*
X104749Y56679D01*
X104468Y56563D01*
X104227Y56378D01*
X104042Y56137D01*
X103926Y55856D01*
X103886Y55555D01*
X103926Y55254D01*
X104042Y54973D01*
X104227Y54732D01*
X104468Y54547D01*
X104749Y54431D01*
X105050Y54391D01*
X105351Y54431D01*
X105632Y54547D01*
X105873Y54732D01*
X106058Y54973D01*
X106174Y55254D01*
X106214Y55555D01*
X106174Y55856D01*
X106058Y56137D01*
X105873Y56378D01*
X105632Y56563D01*
X105351Y56679D01*
X105050Y56719D01*
D02*
G37*
G36*
X96547Y54606D02*
Y53661D01*
X97492D01*
X97472Y53816D01*
X97363Y54079D01*
X97190Y54304D01*
X96964Y54477D01*
X96702Y54586D01*
X96547Y54606D01*
D02*
G37*
G36*
X54268Y54581D02*
X54113Y54561D01*
X53851Y54452D01*
X53625Y54279D01*
X53452Y54054D01*
X53343Y53791D01*
X53323Y53636D01*
X54268D01*
Y54581D01*
D02*
G37*
G36*
X74215Y52948D02*
X73802D01*
Y52535D01*
X73891Y52553D01*
X74074Y52676D01*
X74197Y52859D01*
X74215Y52948D01*
D02*
G37*
G36*
X73548D02*
X73135D01*
X73153Y52859D01*
X73276Y52676D01*
X73459Y52553D01*
X73548Y52535D01*
Y52948D01*
D02*
G37*
G36*
X73802Y53615D02*
Y53202D01*
X74215D01*
X74197Y53291D01*
X74074Y53474D01*
X73891Y53597D01*
X73802Y53615D01*
D02*
G37*
G36*
X73548D02*
X73459Y53597D01*
X73276Y53474D01*
X73153Y53291D01*
X73135Y53202D01*
X73548D01*
Y53615D01*
D02*
G37*
G36*
X106868Y75577D02*
X106232D01*
X105918Y75535D01*
X105624Y75414D01*
X105372Y75220D01*
X105179Y74968D01*
X105057Y74675D01*
X105016Y74360D01*
X105057Y74045D01*
X105179Y73752D01*
X105372Y73500D01*
X105624Y73306D01*
X105918Y73185D01*
X106149Y73154D01*
Y73026D01*
X105918Y72995D01*
X105624Y72874D01*
X105372Y72680D01*
X105179Y72428D01*
X105057Y72135D01*
X105016Y71820D01*
X105057Y71505D01*
X105179Y71212D01*
X105372Y70960D01*
X105624Y70766D01*
X105918Y70645D01*
X106149Y70614D01*
Y70486D01*
X105918Y70455D01*
X105624Y70334D01*
X105372Y70140D01*
X105179Y69888D01*
X105057Y69595D01*
X105016Y69280D01*
X105057Y68965D01*
X105179Y68672D01*
X105372Y68420D01*
X105624Y68226D01*
X105918Y68105D01*
X106149Y68074D01*
Y67946D01*
X105918Y67915D01*
X105624Y67794D01*
X105372Y67600D01*
X105179Y67348D01*
X105057Y67055D01*
X105016Y66740D01*
X105057Y66425D01*
X105179Y66132D01*
X105372Y65880D01*
X105624Y65686D01*
X105918Y65565D01*
X106232Y65523D01*
X106868D01*
X107182Y65565D01*
X107476Y65686D01*
X107728Y65880D01*
X107921Y66132D01*
X108043Y66425D01*
X108084Y66740D01*
X108043Y67055D01*
X107921Y67348D01*
X107728Y67600D01*
X107476Y67794D01*
X107182Y67915D01*
X106951Y67946D01*
Y68074D01*
X107182Y68105D01*
X107476Y68226D01*
X107728Y68420D01*
X107921Y68672D01*
X108043Y68965D01*
X108084Y69280D01*
X108043Y69595D01*
X107921Y69888D01*
X107728Y70140D01*
X107476Y70334D01*
X107182Y70455D01*
X106951Y70486D01*
Y70614D01*
X107182Y70645D01*
X107476Y70766D01*
X107728Y70960D01*
X107921Y71212D01*
X108043Y71505D01*
X108084Y71820D01*
X108043Y72135D01*
X107921Y72428D01*
X107728Y72680D01*
X107476Y72874D01*
X107182Y72995D01*
X106951Y73026D01*
Y73154D01*
X107182Y73185D01*
X107476Y73306D01*
X107728Y73500D01*
X107921Y73752D01*
X108043Y74045D01*
X108084Y74360D01*
X108043Y74675D01*
X107921Y74968D01*
X107728Y75220D01*
X107476Y75414D01*
X107182Y75535D01*
X106868Y75577D01*
D02*
G37*
G36*
X107590Y64339D02*
X107289Y64299D01*
X107008Y64183D01*
X106767Y63998D01*
X106582Y63757D01*
X106466Y63476D01*
X106426Y63175D01*
X106466Y62874D01*
X106582Y62593D01*
X106767Y62352D01*
X107008Y62167D01*
X107289Y62051D01*
X107590Y62011D01*
X107891Y62051D01*
X108172Y62167D01*
X108413Y62352D01*
X108598Y62593D01*
X108714Y62874D01*
X108754Y63175D01*
X108714Y63476D01*
X108598Y63757D01*
X108413Y63998D01*
X108172Y64183D01*
X107891Y64299D01*
X107590Y64339D01*
D02*
G37*
G36*
X95373Y67048D02*
X94492D01*
X94510Y66910D01*
X94613Y66663D01*
X94775Y66450D01*
X94988Y66288D01*
X95235Y66185D01*
X95373Y66167D01*
Y67048D01*
D02*
G37*
G36*
X90500Y68200D02*
X90235Y68165D01*
X89988Y68062D01*
X89775Y67900D01*
X89613Y67687D01*
X89510Y67440D01*
X89475Y67175D01*
X89510Y66910D01*
X89613Y66663D01*
X89775Y66450D01*
X89988Y66288D01*
X90235Y66185D01*
X90500Y66150D01*
X90765Y66185D01*
X91012Y66288D01*
X91225Y66450D01*
X91387Y66663D01*
X91490Y66910D01*
X91525Y67175D01*
X91490Y67440D01*
X91387Y67687D01*
X91225Y67900D01*
X91012Y68062D01*
X90765Y68165D01*
X90500Y68200D01*
D02*
G37*
G36*
X105050Y64339D02*
X104749Y64299D01*
X104468Y64183D01*
X104227Y63998D01*
X104042Y63757D01*
X103926Y63476D01*
X103886Y63175D01*
X103926Y62874D01*
X104042Y62593D01*
X104227Y62352D01*
X104468Y62167D01*
X104749Y62051D01*
X105050Y62011D01*
X105351Y62051D01*
X105632Y62167D01*
X105873Y62352D01*
X106058Y62593D01*
X106174Y62874D01*
X106214Y63175D01*
X106174Y63476D01*
X106058Y63757D01*
X105873Y63998D01*
X105632Y64183D01*
X105351Y64299D01*
X105050Y64339D01*
D02*
G37*
G36*
X70620Y62208D02*
Y61327D01*
X71501D01*
X71483Y61465D01*
X71381Y61712D01*
X71218Y61925D01*
X71006Y62087D01*
X70758Y62190D01*
X70620Y62208D01*
D02*
G37*
G36*
X70366D02*
X70228Y62190D01*
X69981Y62087D01*
X69769Y61925D01*
X69606Y61712D01*
X69503Y61465D01*
X69485Y61327D01*
X70366D01*
Y62208D01*
D02*
G37*
G36*
X58040Y62636D02*
Y61755D01*
X58921D01*
X58903Y61894D01*
X58801Y62141D01*
X58638Y62353D01*
X58426Y62516D01*
X58179Y62618D01*
X58040Y62636D01*
D02*
G37*
G36*
X57786D02*
X57648Y62618D01*
X57401Y62516D01*
X57189Y62353D01*
X57026Y62141D01*
X56924Y61894D01*
X56905Y61755D01*
X57786D01*
Y62636D01*
D02*
G37*
G36*
X61802Y71608D02*
Y70727D01*
X62683D01*
X62665Y70865D01*
X62562Y71112D01*
X62400Y71325D01*
X62187Y71487D01*
X61940Y71590D01*
X61802Y71608D01*
D02*
G37*
G36*
X61548D02*
X61410Y71590D01*
X61163Y71487D01*
X60950Y71325D01*
X60788Y71112D01*
X60685Y70865D01*
X60667Y70727D01*
X61548D01*
Y71608D01*
D02*
G37*
G36*
X73389Y72723D02*
X73027D01*
Y72361D01*
X73097Y72375D01*
X73263Y72487D01*
X73375Y72653D01*
X73389Y72723D01*
D02*
G37*
G36*
X72773D02*
X72411D01*
X72425Y72653D01*
X72537Y72487D01*
X72703Y72375D01*
X72773Y72361D01*
Y72723D01*
D02*
G37*
G36*
X62683Y70473D02*
X61802D01*
Y69592D01*
X61940Y69610D01*
X62187Y69713D01*
X62400Y69875D01*
X62562Y70088D01*
X62665Y70335D01*
X62683Y70473D01*
D02*
G37*
G36*
X95373Y68183D02*
X95235Y68165D01*
X94988Y68062D01*
X94775Y67900D01*
X94613Y67687D01*
X94510Y67440D01*
X94492Y67302D01*
X95373D01*
Y68183D01*
D02*
G37*
G36*
X96508Y67048D02*
X95627D01*
Y66167D01*
X95765Y66185D01*
X96012Y66288D01*
X96225Y66450D01*
X96387Y66663D01*
X96490Y66910D01*
X96508Y67048D01*
D02*
G37*
G36*
X61548Y70473D02*
X60667D01*
X60685Y70335D01*
X60788Y70088D01*
X60950Y69875D01*
X61163Y69713D01*
X61410Y69610D01*
X61548Y69592D01*
Y70473D01*
D02*
G37*
G36*
X95627Y68183D02*
Y67302D01*
X96508D01*
X96490Y67440D01*
X96387Y67687D01*
X96225Y67900D01*
X96012Y68062D01*
X95765Y68165D01*
X95627Y68183D01*
D02*
G37*
G36*
X96547Y62226D02*
Y61281D01*
X97492D01*
X97472Y61436D01*
X97363Y61699D01*
X97190Y61924D01*
X96964Y62097D01*
X96702Y62206D01*
X96547Y62226D01*
D02*
G37*
G36*
X55467Y61002D02*
X54522D01*
Y60057D01*
X54677Y60077D01*
X54939Y60186D01*
X55165Y60359D01*
X55338Y60585D01*
X55447Y60847D01*
X55467Y61002D01*
D02*
G37*
G36*
X54268D02*
X53323D01*
X53343Y60847D01*
X53452Y60585D01*
X53625Y60359D01*
X53851Y60186D01*
X54113Y60077D01*
X54268Y60057D01*
Y61002D01*
D02*
G37*
G36*
X96293Y61027D02*
X95348D01*
X95368Y60872D01*
X95477Y60610D01*
X95650Y60384D01*
X95876Y60211D01*
X96138Y60102D01*
X96293Y60082D01*
Y61027D01*
D02*
G37*
G36*
X81180Y62243D02*
X80898Y62206D01*
X80636Y62097D01*
X80410Y61924D01*
X80237Y61699D01*
X80128Y61436D01*
X80091Y61154D01*
X80128Y60872D01*
X80237Y60610D01*
X80410Y60384D01*
X80636Y60211D01*
X80898Y60102D01*
X81180Y60065D01*
X81462Y60102D01*
X81724Y60211D01*
X81950Y60384D01*
X82123Y60610D01*
X82232Y60872D01*
X82269Y61154D01*
X82232Y61436D01*
X82123Y61699D01*
X81950Y61924D01*
X81724Y62097D01*
X81462Y62206D01*
X81180Y62243D01*
D02*
G37*
G36*
X39155Y62218D02*
X38873Y62181D01*
X38611Y62072D01*
X38385Y61899D01*
X38212Y61674D01*
X38103Y61411D01*
X38066Y61129D01*
X38103Y60847D01*
X38212Y60585D01*
X38385Y60359D01*
X38611Y60186D01*
X38873Y60077D01*
X39155Y60040D01*
X39437Y60077D01*
X39699Y60186D01*
X39925Y60359D01*
X40098Y60585D01*
X40207Y60847D01*
X40244Y61129D01*
X40207Y61411D01*
X40098Y61674D01*
X39925Y61899D01*
X39699Y62072D01*
X39437Y62181D01*
X39155Y62218D01*
D02*
G37*
G36*
X61675Y61465D02*
X61410Y61430D01*
X61163Y61327D01*
X60950Y61165D01*
X60788Y60952D01*
X60685Y60705D01*
X60650Y60440D01*
X60685Y60175D01*
X60788Y59928D01*
X60950Y59715D01*
X61163Y59553D01*
X61410Y59450D01*
X61675Y59415D01*
X61940Y59450D01*
X62187Y59553D01*
X62400Y59715D01*
X62562Y59928D01*
X62665Y60175D01*
X62700Y60440D01*
X62665Y60705D01*
X62562Y60952D01*
X62400Y61165D01*
X62187Y61327D01*
X61940Y61430D01*
X61675Y61465D01*
D02*
G37*
G36*
X70620Y58789D02*
Y57908D01*
X71501D01*
X71483Y58046D01*
X71381Y58293D01*
X71218Y58506D01*
X71006Y58668D01*
X70758Y58771D01*
X70620Y58789D01*
D02*
G37*
G36*
X107590Y61799D02*
X107289Y61759D01*
X107008Y61643D01*
X106767Y61458D01*
X106582Y61217D01*
X106466Y60936D01*
X106426Y60635D01*
X106466Y60334D01*
X106582Y60053D01*
X106767Y59812D01*
X107008Y59627D01*
X107289Y59511D01*
X107590Y59471D01*
X107891Y59511D01*
X108172Y59627D01*
X108413Y59812D01*
X108598Y60053D01*
X108714Y60334D01*
X108754Y60635D01*
X108714Y60936D01*
X108598Y61217D01*
X108413Y61458D01*
X108172Y61643D01*
X107891Y61759D01*
X107590Y61799D01*
D02*
G37*
G36*
X105050D02*
X104749Y61759D01*
X104468Y61643D01*
X104227Y61458D01*
X104042Y61217D01*
X103926Y60936D01*
X103886Y60635D01*
X103926Y60334D01*
X104042Y60053D01*
X104227Y59812D01*
X104468Y59627D01*
X104749Y59511D01*
X105050Y59471D01*
X105351Y59511D01*
X105632Y59627D01*
X105873Y59812D01*
X106058Y60053D01*
X106174Y60334D01*
X106214Y60635D01*
X106174Y60936D01*
X106058Y61217D01*
X105873Y61458D01*
X105632Y61643D01*
X105351Y61759D01*
X105050Y61799D01*
D02*
G37*
G36*
X54268Y62201D02*
X54113Y62181D01*
X53851Y62072D01*
X53625Y61899D01*
X53452Y61674D01*
X53343Y61411D01*
X53323Y61256D01*
X54268D01*
Y62201D01*
D02*
G37*
G36*
X58921Y61501D02*
X58040D01*
Y60620D01*
X58179Y60639D01*
X58426Y60741D01*
X58638Y60904D01*
X58801Y61116D01*
X58903Y61363D01*
X58921Y61501D01*
D02*
G37*
G36*
X96293Y62226D02*
X96138Y62206D01*
X95876Y62097D01*
X95650Y61924D01*
X95477Y61699D01*
X95368Y61436D01*
X95348Y61281D01*
X96293D01*
Y62226D01*
D02*
G37*
G36*
X54522Y62201D02*
Y61256D01*
X55467D01*
X55447Y61411D01*
X55338Y61674D01*
X55165Y61899D01*
X54939Y62072D01*
X54677Y62181D01*
X54522Y62201D01*
D02*
G37*
G36*
X57786Y61501D02*
X56905D01*
X56924Y61363D01*
X57026Y61116D01*
X57189Y60904D01*
X57401Y60741D01*
X57648Y60639D01*
X57786Y60620D01*
Y61501D01*
D02*
G37*
G36*
X65493Y62225D02*
X65228Y62190D01*
X64981Y62087D01*
X64769Y61925D01*
X64606Y61712D01*
X64503Y61465D01*
X64468Y61200D01*
X64503Y60935D01*
X64606Y60688D01*
X64769Y60475D01*
X64981Y60313D01*
X65228Y60210D01*
X65493Y60175D01*
X65758Y60210D01*
X66006Y60313D01*
X66218Y60475D01*
X66381Y60688D01*
X66483Y60935D01*
X66518Y61200D01*
X66483Y61465D01*
X66381Y61712D01*
X66218Y61925D01*
X66006Y62087D01*
X65758Y62190D01*
X65493Y62225D01*
D02*
G37*
G36*
X97492Y61027D02*
X96547D01*
Y60082D01*
X96702Y60102D01*
X96964Y60211D01*
X97190Y60384D01*
X97363Y60610D01*
X97472Y60872D01*
X97492Y61027D01*
D02*
G37*
G36*
X71501Y61073D02*
X70620D01*
Y60192D01*
X70758Y60210D01*
X71006Y60313D01*
X71218Y60475D01*
X71381Y60688D01*
X71483Y60935D01*
X71501Y61073D01*
D02*
G37*
G36*
X70366D02*
X69485D01*
X69503Y60935D01*
X69606Y60688D01*
X69769Y60475D01*
X69981Y60313D01*
X70228Y60210D01*
X70366Y60192D01*
Y61073D01*
D02*
G37*
G36*
X107590Y54179D02*
X107289Y54139D01*
X107008Y54023D01*
X106767Y53838D01*
X106582Y53597D01*
X106466Y53316D01*
X106426Y53015D01*
X106466Y52714D01*
X106582Y52433D01*
X106767Y52192D01*
X107008Y52007D01*
X107289Y51891D01*
X107590Y51851D01*
X107891Y51891D01*
X108172Y52007D01*
X108413Y52192D01*
X108598Y52433D01*
X108714Y52714D01*
X108754Y53015D01*
X108714Y53316D01*
X108598Y53597D01*
X108413Y53838D01*
X108172Y54023D01*
X107891Y54139D01*
X107590Y54179D01*
D02*
G37*
G36*
X28398Y33623D02*
X26028D01*
X26050Y33455D01*
X26164Y33181D01*
X26345Y32945D01*
X26581Y32764D01*
X26855Y32650D01*
X27150Y32611D01*
X28398D01*
Y33623D01*
D02*
G37*
G36*
X96420Y34303D02*
X96138Y34266D01*
X95876Y34157D01*
X95650Y33984D01*
X95477Y33759D01*
X95368Y33496D01*
X95331Y33214D01*
X95368Y32932D01*
X95477Y32670D01*
X95650Y32444D01*
X95876Y32271D01*
X96138Y32162D01*
X96420Y32125D01*
X96702Y32162D01*
X96964Y32271D01*
X97190Y32444D01*
X97363Y32670D01*
X97472Y32932D01*
X97509Y33214D01*
X97472Y33496D01*
X97363Y33759D01*
X97190Y33984D01*
X96964Y34157D01*
X96702Y34266D01*
X96420Y34303D01*
D02*
G37*
G36*
X28398Y34889D02*
X27150D01*
X26855Y34850D01*
X26581Y34736D01*
X26345Y34555D01*
X26164Y34319D01*
X26050Y34045D01*
X26028Y33877D01*
X28398D01*
Y34889D01*
D02*
G37*
G36*
X31022Y33623D02*
X28652D01*
Y32611D01*
X29900D01*
X30195Y32650D01*
X30469Y32764D01*
X30705Y32945D01*
X30886Y33181D01*
X31000Y33455D01*
X31022Y33623D01*
D02*
G37*
G36*
X81180Y34303D02*
X80898Y34266D01*
X80636Y34157D01*
X80410Y33984D01*
X80237Y33759D01*
X80128Y33496D01*
X80091Y33214D01*
X80128Y32932D01*
X80237Y32670D01*
X80410Y32444D01*
X80636Y32271D01*
X80898Y32162D01*
X81180Y32125D01*
X81462Y32162D01*
X81724Y32271D01*
X81950Y32444D01*
X82123Y32670D01*
X82232Y32932D01*
X82269Y33214D01*
X82232Y33496D01*
X82123Y33759D01*
X81950Y33984D01*
X81724Y34157D01*
X81462Y34266D01*
X81180Y34303D01*
D02*
G37*
G36*
X96547Y31746D02*
Y30801D01*
X97492D01*
X97472Y30956D01*
X97363Y31219D01*
X97190Y31444D01*
X96964Y31617D01*
X96702Y31726D01*
X96547Y31746D01*
D02*
G37*
G36*
X96293D02*
X96138Y31726D01*
X95876Y31617D01*
X95650Y31444D01*
X95477Y31219D01*
X95368Y30956D01*
X95348Y30801D01*
X96293D01*
Y31746D01*
D02*
G37*
G36*
X54395Y34278D02*
X54113Y34241D01*
X53851Y34132D01*
X53625Y33959D01*
X53452Y33734D01*
X53343Y33471D01*
X53306Y33189D01*
X53343Y32907D01*
X53452Y32645D01*
X53625Y32419D01*
X53851Y32246D01*
X54113Y32138D01*
X54395Y32100D01*
X54677Y32138D01*
X54939Y32246D01*
X55165Y32419D01*
X55338Y32645D01*
X55447Y32907D01*
X55484Y33189D01*
X55447Y33471D01*
X55338Y33734D01*
X55165Y33959D01*
X54939Y34132D01*
X54677Y34241D01*
X54395Y34278D01*
D02*
G37*
G36*
X39155D02*
X38873Y34241D01*
X38611Y34132D01*
X38385Y33959D01*
X38212Y33734D01*
X38103Y33471D01*
X38066Y33189D01*
X38103Y32907D01*
X38212Y32645D01*
X38385Y32419D01*
X38611Y32246D01*
X38873Y32138D01*
X39155Y32100D01*
X39437Y32138D01*
X39699Y32246D01*
X39925Y32419D01*
X40098Y32645D01*
X40207Y32907D01*
X40244Y33189D01*
X40207Y33471D01*
X40098Y33734D01*
X39925Y33959D01*
X39699Y34132D01*
X39437Y34241D01*
X39155Y34278D01*
D02*
G37*
G36*
X54395Y39358D02*
X54113Y39321D01*
X53851Y39212D01*
X53625Y39039D01*
X53452Y38814D01*
X53343Y38551D01*
X53306Y38269D01*
X53343Y37987D01*
X53452Y37725D01*
X53625Y37499D01*
X53851Y37326D01*
X54113Y37217D01*
X54395Y37180D01*
X54677Y37217D01*
X54939Y37326D01*
X55165Y37499D01*
X55338Y37725D01*
X55447Y37987D01*
X55484Y38269D01*
X55447Y38551D01*
X55338Y38814D01*
X55165Y39039D01*
X54939Y39212D01*
X54677Y39321D01*
X54395Y39358D01*
D02*
G37*
G36*
X39155D02*
X38873Y39321D01*
X38611Y39212D01*
X38385Y39039D01*
X38212Y38814D01*
X38103Y38551D01*
X38066Y38269D01*
X38103Y37987D01*
X38212Y37725D01*
X38385Y37499D01*
X38611Y37326D01*
X38873Y37217D01*
X39155Y37180D01*
X39437Y37217D01*
X39699Y37326D01*
X39925Y37499D01*
X40098Y37725D01*
X40207Y37987D01*
X40244Y38269D01*
X40207Y38551D01*
X40098Y38814D01*
X39925Y39039D01*
X39699Y39212D01*
X39437Y39321D01*
X39155Y39358D01*
D02*
G37*
G36*
X96420Y39383D02*
X96138Y39346D01*
X95876Y39237D01*
X95650Y39064D01*
X95477Y38839D01*
X95368Y38576D01*
X95331Y38294D01*
X95368Y38012D01*
X95477Y37750D01*
X95650Y37524D01*
X95876Y37351D01*
X96138Y37242D01*
X96420Y37205D01*
X96702Y37242D01*
X96964Y37351D01*
X97190Y37524D01*
X97363Y37750D01*
X97472Y38012D01*
X97509Y38294D01*
X97472Y38576D01*
X97363Y38839D01*
X97190Y39064D01*
X96964Y39237D01*
X96702Y39346D01*
X96420Y39383D01*
D02*
G37*
G36*
X81180D02*
X80898Y39346D01*
X80636Y39237D01*
X80410Y39064D01*
X80237Y38839D01*
X80128Y38576D01*
X80091Y38294D01*
X80128Y38012D01*
X80237Y37750D01*
X80410Y37524D01*
X80636Y37351D01*
X80898Y37242D01*
X81180Y37205D01*
X81462Y37242D01*
X81724Y37351D01*
X81950Y37524D01*
X82123Y37750D01*
X82232Y38012D01*
X82269Y38294D01*
X82232Y38576D01*
X82123Y38839D01*
X81950Y39064D01*
X81724Y39237D01*
X81462Y39346D01*
X81180Y39383D01*
D02*
G37*
G36*
X96420Y36843D02*
X96138Y36806D01*
X95876Y36697D01*
X95650Y36524D01*
X95477Y36299D01*
X95368Y36036D01*
X95331Y35754D01*
X95368Y35472D01*
X95477Y35210D01*
X95650Y34984D01*
X95876Y34811D01*
X96138Y34702D01*
X96420Y34665D01*
X96702Y34702D01*
X96964Y34811D01*
X97190Y34984D01*
X97363Y35210D01*
X97472Y35472D01*
X97509Y35754D01*
X97472Y36036D01*
X97363Y36299D01*
X97190Y36524D01*
X96964Y36697D01*
X96702Y36806D01*
X96420Y36843D01*
D02*
G37*
G36*
X39155Y36818D02*
X38873Y36781D01*
X38611Y36672D01*
X38385Y36499D01*
X38212Y36274D01*
X38103Y36011D01*
X38066Y35729D01*
X38103Y35447D01*
X38212Y35185D01*
X38385Y34959D01*
X38611Y34786D01*
X38873Y34678D01*
X39155Y34640D01*
X39437Y34678D01*
X39699Y34786D01*
X39925Y34959D01*
X40098Y35185D01*
X40207Y35447D01*
X40244Y35729D01*
X40207Y36011D01*
X40098Y36274D01*
X39925Y36499D01*
X39699Y36672D01*
X39437Y36781D01*
X39155Y36818D01*
D02*
G37*
G36*
X29900Y34889D02*
X28652D01*
Y33877D01*
X31022D01*
X31000Y34045D01*
X30886Y34319D01*
X30705Y34555D01*
X30469Y34736D01*
X30195Y34850D01*
X29900Y34889D01*
D02*
G37*
G36*
X81180Y36843D02*
X80898Y36806D01*
X80636Y36697D01*
X80410Y36524D01*
X80237Y36299D01*
X80128Y36036D01*
X80091Y35754D01*
X80128Y35472D01*
X80237Y35210D01*
X80410Y34984D01*
X80636Y34811D01*
X80898Y34702D01*
X81180Y34665D01*
X81462Y34702D01*
X81724Y34811D01*
X81950Y34984D01*
X82123Y35210D01*
X82232Y35472D01*
X82269Y35754D01*
X82232Y36036D01*
X82123Y36299D01*
X81950Y36524D01*
X81724Y36697D01*
X81462Y36806D01*
X81180Y36843D01*
D02*
G37*
G36*
X54395Y36818D02*
X54113Y36781D01*
X53851Y36672D01*
X53625Y36499D01*
X53452Y36274D01*
X53343Y36011D01*
X53306Y35729D01*
X53343Y35447D01*
X53452Y35185D01*
X53625Y34959D01*
X53851Y34786D01*
X54113Y34678D01*
X54395Y34640D01*
X54677Y34678D01*
X54939Y34786D01*
X55165Y34959D01*
X55338Y35185D01*
X55447Y35447D01*
X55484Y35729D01*
X55447Y36011D01*
X55338Y36274D01*
X55165Y36499D01*
X54939Y36672D01*
X54677Y36781D01*
X54395Y36818D01*
D02*
G37*
G36*
X54522Y31721D02*
Y30776D01*
X55467D01*
X55447Y30931D01*
X55338Y31194D01*
X55165Y31419D01*
X54939Y31592D01*
X54677Y31701D01*
X54522Y31721D01*
D02*
G37*
G36*
X54268Y27982D02*
X53323D01*
X53343Y27827D01*
X53452Y27565D01*
X53625Y27339D01*
X53851Y27166D01*
X54113Y27058D01*
X54268Y27037D01*
Y27982D01*
D02*
G37*
G36*
X39155Y29198D02*
X38873Y29161D01*
X38611Y29052D01*
X38385Y28879D01*
X38212Y28654D01*
X38103Y28391D01*
X38066Y28109D01*
X38103Y27827D01*
X38212Y27565D01*
X38385Y27339D01*
X38611Y27166D01*
X38873Y27058D01*
X39155Y27020D01*
X39437Y27058D01*
X39699Y27166D01*
X39925Y27339D01*
X40098Y27565D01*
X40207Y27827D01*
X40244Y28109D01*
X40207Y28391D01*
X40098Y28654D01*
X39925Y28879D01*
X39699Y29052D01*
X39437Y29161D01*
X39155Y29198D01*
D02*
G37*
G36*
X96293Y28007D02*
X95348D01*
X95368Y27852D01*
X95477Y27590D01*
X95650Y27364D01*
X95876Y27191D01*
X96138Y27082D01*
X96293Y27062D01*
Y28007D01*
D02*
G37*
G36*
X55467Y27982D02*
X54522D01*
Y27037D01*
X54677Y27058D01*
X54939Y27166D01*
X55165Y27339D01*
X55338Y27565D01*
X55447Y27827D01*
X55467Y27982D01*
D02*
G37*
G36*
X51852Y27189D02*
Y26827D01*
X52214D01*
X52200Y26897D01*
X52088Y27063D01*
X51922Y27175D01*
X51852Y27189D01*
D02*
G37*
G36*
X52214Y26573D02*
X51852D01*
Y26211D01*
X51922Y26225D01*
X52088Y26337D01*
X52200Y26503D01*
X52214Y26573D01*
D02*
G37*
G36*
X51598D02*
X51236D01*
X51250Y26503D01*
X51362Y26337D01*
X51528Y26225D01*
X51598Y26211D01*
Y26573D01*
D02*
G37*
G36*
Y27189D02*
X51528Y27175D01*
X51362Y27063D01*
X51250Y26897D01*
X51236Y26827D01*
X51598D01*
Y27189D01*
D02*
G37*
G36*
X29900Y28889D02*
X27150D01*
X26855Y28850D01*
X26581Y28736D01*
X26345Y28555D01*
X26164Y28319D01*
X26050Y28045D01*
X26011Y27750D01*
X26050Y27455D01*
X26164Y27181D01*
X26345Y26945D01*
X26581Y26764D01*
X26855Y26650D01*
X27150Y26611D01*
X29900D01*
X30195Y26650D01*
X30469Y26764D01*
X30705Y26945D01*
X30886Y27181D01*
X31000Y27455D01*
X31039Y27750D01*
X31000Y28045D01*
X30886Y28319D01*
X30705Y28555D01*
X30469Y28736D01*
X30195Y28850D01*
X29900Y28889D01*
D02*
G37*
G36*
X96293Y30547D02*
X95348D01*
X95368Y30392D01*
X95477Y30130D01*
X95650Y29904D01*
X95876Y29731D01*
X96138Y29622D01*
X96293Y29602D01*
Y30547D01*
D02*
G37*
G36*
X81180Y31763D02*
X80898Y31726D01*
X80636Y31617D01*
X80410Y31444D01*
X80237Y31219D01*
X80128Y30956D01*
X80091Y30674D01*
X80128Y30392D01*
X80237Y30130D01*
X80410Y29904D01*
X80636Y29731D01*
X80898Y29622D01*
X81180Y29585D01*
X81462Y29622D01*
X81724Y29731D01*
X81950Y29904D01*
X82123Y30130D01*
X82232Y30392D01*
X82269Y30674D01*
X82232Y30956D01*
X82123Y31219D01*
X81950Y31444D01*
X81724Y31617D01*
X81462Y31726D01*
X81180Y31763D01*
D02*
G37*
G36*
X54268Y31721D02*
X54113Y31701D01*
X53851Y31592D01*
X53625Y31419D01*
X53452Y31194D01*
X53343Y30931D01*
X53323Y30776D01*
X54268D01*
Y31721D01*
D02*
G37*
G36*
X97492Y30547D02*
X96547D01*
Y29602D01*
X96702Y29622D01*
X96964Y29731D01*
X97190Y29904D01*
X97363Y30130D01*
X97472Y30392D01*
X97492Y30547D01*
D02*
G37*
G36*
X55467Y30522D02*
X54522D01*
Y29577D01*
X54677Y29597D01*
X54939Y29706D01*
X55165Y29879D01*
X55338Y30105D01*
X55447Y30367D01*
X55467Y30522D01*
D02*
G37*
G36*
X33225Y33264D02*
X32930Y33225D01*
X32656Y33111D01*
X32420Y32930D01*
X32239Y32694D01*
X32125Y32420D01*
X32086Y32125D01*
Y29375D01*
X32125Y29080D01*
X32239Y28806D01*
X32420Y28570D01*
X32656Y28389D01*
X32930Y28275D01*
X33225Y28236D01*
X33520Y28275D01*
X33794Y28389D01*
X34030Y28570D01*
X34211Y28806D01*
X34325Y29080D01*
X34364Y29375D01*
Y32125D01*
X34325Y32420D01*
X34211Y32694D01*
X34030Y32930D01*
X33794Y33111D01*
X33520Y33225D01*
X33225Y33264D01*
D02*
G37*
G36*
X97492Y28007D02*
X96547D01*
Y27062D01*
X96702Y27082D01*
X96964Y27191D01*
X97190Y27364D01*
X97363Y27590D01*
X97472Y27852D01*
X97492Y28007D01*
D02*
G37*
G36*
X54268Y30522D02*
X53323D01*
X53343Y30367D01*
X53452Y30105D01*
X53625Y29879D01*
X53851Y29706D01*
X54113Y29597D01*
X54268Y29577D01*
Y30522D01*
D02*
G37*
G36*
X39155Y31738D02*
X38873Y31701D01*
X38611Y31592D01*
X38385Y31419D01*
X38212Y31194D01*
X38103Y30931D01*
X38066Y30649D01*
X38103Y30367D01*
X38212Y30105D01*
X38385Y29879D01*
X38611Y29706D01*
X38873Y29597D01*
X39155Y29560D01*
X39437Y29597D01*
X39699Y29706D01*
X39925Y29879D01*
X40098Y30105D01*
X40207Y30367D01*
X40244Y30649D01*
X40207Y30931D01*
X40098Y31194D01*
X39925Y31419D01*
X39699Y31592D01*
X39437Y31701D01*
X39155Y31738D01*
D02*
G37*
G36*
Y41898D02*
X38873Y41861D01*
X38611Y41752D01*
X38385Y41579D01*
X38212Y41354D01*
X38103Y41091D01*
X38066Y40809D01*
X38103Y40527D01*
X38212Y40265D01*
X38385Y40039D01*
X38611Y39866D01*
X38873Y39757D01*
X39155Y39720D01*
X39437Y39757D01*
X39699Y39866D01*
X39925Y40039D01*
X40098Y40265D01*
X40207Y40527D01*
X40244Y40809D01*
X40207Y41091D01*
X40098Y41354D01*
X39925Y41579D01*
X39699Y41752D01*
X39437Y41861D01*
X39155Y41898D01*
D02*
G37*
G36*
X101598Y48423D02*
X101236D01*
X101250Y48353D01*
X101362Y48187D01*
X101528Y48075D01*
X101598Y48061D01*
Y48423D01*
D02*
G37*
G36*
X96420Y49543D02*
X96138Y49506D01*
X95876Y49397D01*
X95650Y49224D01*
X95477Y48999D01*
X95368Y48736D01*
X95331Y48454D01*
X95368Y48172D01*
X95477Y47910D01*
X95650Y47684D01*
X95876Y47511D01*
X96138Y47402D01*
X96420Y47365D01*
X96702Y47402D01*
X96964Y47511D01*
X97190Y47684D01*
X97363Y47910D01*
X97472Y48172D01*
X97509Y48454D01*
X97472Y48736D01*
X97363Y48999D01*
X97190Y49224D01*
X96964Y49397D01*
X96702Y49506D01*
X96420Y49543D01*
D02*
G37*
G36*
X105050Y51639D02*
X104749Y51599D01*
X104468Y51483D01*
X104227Y51298D01*
X104042Y51057D01*
X103926Y50776D01*
X103886Y50475D01*
X103926Y50174D01*
X104042Y49893D01*
X104227Y49652D01*
X104468Y49467D01*
X104749Y49351D01*
X105050Y49311D01*
X105351Y49351D01*
X105632Y49467D01*
X105873Y49652D01*
X106058Y49893D01*
X106174Y50174D01*
X106214Y50475D01*
X106174Y50776D01*
X106058Y51057D01*
X105873Y51298D01*
X105632Y51483D01*
X105351Y51599D01*
X105050Y51639D01*
D02*
G37*
G36*
X101598Y49039D02*
X101528Y49025D01*
X101362Y48913D01*
X101250Y48747D01*
X101236Y48677D01*
X101598D01*
Y49039D01*
D02*
G37*
G36*
X81180Y49543D02*
X80898Y49506D01*
X80636Y49397D01*
X80410Y49224D01*
X80237Y48999D01*
X80128Y48736D01*
X80091Y48454D01*
X80128Y48172D01*
X80237Y47910D01*
X80410Y47684D01*
X80636Y47511D01*
X80898Y47402D01*
X81180Y47365D01*
X81462Y47402D01*
X81724Y47511D01*
X81950Y47684D01*
X82123Y47910D01*
X82232Y48172D01*
X82269Y48454D01*
X82232Y48736D01*
X82123Y48999D01*
X81950Y49224D01*
X81724Y49397D01*
X81462Y49506D01*
X81180Y49543D01*
D02*
G37*
G36*
X69923Y47208D02*
X69785Y47190D01*
X69538Y47087D01*
X69325Y46925D01*
X69163Y46712D01*
X69060Y46465D01*
X69042Y46327D01*
X69923D01*
Y47208D01*
D02*
G37*
G36*
X71058Y46073D02*
X70177D01*
Y45192D01*
X70315Y45210D01*
X70562Y45313D01*
X70775Y45475D01*
X70937Y45688D01*
X71040Y45935D01*
X71058Y46073D01*
D02*
G37*
G36*
X54395Y49518D02*
X54113Y49481D01*
X53851Y49372D01*
X53625Y49199D01*
X53452Y48974D01*
X53343Y48711D01*
X53306Y48429D01*
X53343Y48147D01*
X53452Y47885D01*
X53625Y47659D01*
X53851Y47486D01*
X54113Y47377D01*
X54395Y47340D01*
X54677Y47377D01*
X54939Y47486D01*
X55165Y47659D01*
X55338Y47885D01*
X55447Y48147D01*
X55484Y48429D01*
X55447Y48711D01*
X55338Y48974D01*
X55165Y49199D01*
X54939Y49372D01*
X54677Y49481D01*
X54395Y49518D01*
D02*
G37*
G36*
X70177Y47208D02*
Y46327D01*
X71058D01*
X71040Y46465D01*
X70937Y46712D01*
X70775Y46925D01*
X70562Y47087D01*
X70315Y47190D01*
X70177Y47208D01*
D02*
G37*
G36*
X107463Y51629D02*
X106436D01*
Y50602D01*
X107463D01*
Y51629D01*
D02*
G37*
G36*
X96420Y52083D02*
X96138Y52046D01*
X95876Y51937D01*
X95650Y51764D01*
X95477Y51539D01*
X95368Y51276D01*
X95331Y50994D01*
X95368Y50712D01*
X95477Y50450D01*
X95650Y50224D01*
X95876Y50051D01*
X96138Y49942D01*
X96420Y49905D01*
X96702Y49942D01*
X96964Y50051D01*
X97190Y50224D01*
X97363Y50450D01*
X97472Y50712D01*
X97509Y50994D01*
X97472Y51276D01*
X97363Y51539D01*
X97190Y51764D01*
X96964Y51937D01*
X96702Y52046D01*
X96420Y52083D01*
D02*
G37*
G36*
X105050Y54179D02*
X104749Y54139D01*
X104468Y54023D01*
X104227Y53838D01*
X104042Y53597D01*
X103926Y53316D01*
X103886Y53015D01*
X103926Y52714D01*
X104042Y52433D01*
X104227Y52192D01*
X104468Y52007D01*
X104749Y51891D01*
X105050Y51851D01*
X105351Y51891D01*
X105632Y52007D01*
X105873Y52192D01*
X106058Y52433D01*
X106174Y52714D01*
X106214Y53015D01*
X106174Y53316D01*
X106058Y53597D01*
X105873Y53838D01*
X105632Y54023D01*
X105351Y54139D01*
X105050Y54179D01*
D02*
G37*
G36*
X108744Y51629D02*
X107717D01*
Y50602D01*
X108744D01*
Y51629D01*
D02*
G37*
G36*
X81180Y52083D02*
X80898Y52046D01*
X80636Y51937D01*
X80410Y51764D01*
X80237Y51539D01*
X80128Y51276D01*
X80091Y50994D01*
X80128Y50712D01*
X80237Y50450D01*
X80410Y50224D01*
X80636Y50051D01*
X80898Y49942D01*
X81180Y49905D01*
X81462Y49942D01*
X81724Y50051D01*
X81950Y50224D01*
X82123Y50450D01*
X82232Y50712D01*
X82269Y50994D01*
X82232Y51276D01*
X82123Y51539D01*
X81950Y51764D01*
X81724Y51937D01*
X81462Y52046D01*
X81180Y52083D01*
D02*
G37*
G36*
X108744Y50348D02*
X107717D01*
Y49321D01*
X108744D01*
Y50348D01*
D02*
G37*
G36*
X107463D02*
X106436D01*
Y49321D01*
X107463D01*
Y50348D01*
D02*
G37*
G36*
X54395Y52058D02*
X54113Y52021D01*
X53851Y51912D01*
X53625Y51739D01*
X53452Y51514D01*
X53343Y51251D01*
X53306Y50969D01*
X53343Y50687D01*
X53452Y50425D01*
X53625Y50199D01*
X53851Y50026D01*
X54113Y49917D01*
X54395Y49880D01*
X54677Y49917D01*
X54939Y50026D01*
X55165Y50199D01*
X55338Y50425D01*
X55447Y50687D01*
X55484Y50969D01*
X55447Y51251D01*
X55338Y51514D01*
X55165Y51739D01*
X54939Y51912D01*
X54677Y52021D01*
X54395Y52058D01*
D02*
G37*
G36*
X39155D02*
X38873Y52021D01*
X38611Y51912D01*
X38385Y51739D01*
X38212Y51514D01*
X38103Y51251D01*
X38066Y50969D01*
X38103Y50687D01*
X38212Y50425D01*
X38385Y50199D01*
X38611Y50026D01*
X38873Y49917D01*
X39155Y49880D01*
X39437Y49917D01*
X39699Y50026D01*
X39925Y50199D01*
X40098Y50425D01*
X40207Y50687D01*
X40244Y50969D01*
X40207Y51251D01*
X40098Y51514D01*
X39925Y51739D01*
X39699Y51912D01*
X39437Y52021D01*
X39155Y52058D01*
D02*
G37*
G36*
X69923Y46073D02*
X69042D01*
X69060Y45935D01*
X69163Y45688D01*
X69325Y45475D01*
X69538Y45313D01*
X69785Y45210D01*
X69923Y45192D01*
Y46073D01*
D02*
G37*
G36*
X36629Y42592D02*
X36267D01*
X36281Y42523D01*
X36392Y42356D01*
X36559Y42245D01*
X36629Y42231D01*
Y42592D01*
D02*
G37*
G36*
X31075Y43744D02*
X30810Y43709D01*
X30563Y43607D01*
X30350Y43444D01*
X30188Y43232D01*
X30085Y42985D01*
X30050Y42719D01*
X30085Y42454D01*
X30188Y42207D01*
X30350Y41995D01*
X30563Y41832D01*
X30810Y41730D01*
X31075Y41695D01*
X31340Y41730D01*
X31587Y41832D01*
X31800Y41995D01*
X31962Y42207D01*
X32065Y42454D01*
X32100Y42719D01*
X32065Y42985D01*
X31962Y43232D01*
X31800Y43444D01*
X31587Y43607D01*
X31340Y43709D01*
X31075Y43744D01*
D02*
G37*
G36*
X39155Y44438D02*
X38873Y44401D01*
X38611Y44292D01*
X38385Y44119D01*
X38212Y43894D01*
X38103Y43631D01*
X38066Y43349D01*
X38103Y43067D01*
X38212Y42805D01*
X38385Y42579D01*
X38611Y42406D01*
X38873Y42298D01*
X39155Y42260D01*
X39437Y42298D01*
X39699Y42406D01*
X39925Y42579D01*
X40098Y42805D01*
X40207Y43067D01*
X40244Y43349D01*
X40207Y43631D01*
X40098Y43894D01*
X39925Y44119D01*
X39699Y44292D01*
X39437Y44401D01*
X39155Y44438D01*
D02*
G37*
G36*
X37244Y42592D02*
X36883D01*
Y42231D01*
X36952Y42245D01*
X37119Y42356D01*
X37230Y42523D01*
X37244Y42592D01*
D02*
G37*
G36*
X26800Y43744D02*
X26535Y43709D01*
X26288Y43607D01*
X26075Y43444D01*
X25913Y43232D01*
X25810Y42985D01*
X25775Y42719D01*
X25810Y42454D01*
X25913Y42207D01*
X26075Y41995D01*
X26288Y41832D01*
X26535Y41730D01*
X26800Y41695D01*
X27065Y41730D01*
X27312Y41832D01*
X27525Y41995D01*
X27687Y42207D01*
X27790Y42454D01*
X27825Y42719D01*
X27790Y42985D01*
X27687Y43232D01*
X27525Y43444D01*
X27312Y43607D01*
X27065Y43709D01*
X26800Y43744D01*
D02*
G37*
G36*
X81180Y41923D02*
X80898Y41886D01*
X80636Y41777D01*
X80410Y41604D01*
X80237Y41379D01*
X80128Y41116D01*
X80091Y40834D01*
X80128Y40552D01*
X80237Y40290D01*
X80410Y40064D01*
X80636Y39891D01*
X80898Y39782D01*
X81180Y39745D01*
X81462Y39782D01*
X81724Y39891D01*
X81950Y40064D01*
X82123Y40290D01*
X82232Y40552D01*
X82269Y40834D01*
X82232Y41116D01*
X82123Y41379D01*
X81950Y41604D01*
X81724Y41777D01*
X81462Y41886D01*
X81180Y41923D01*
D02*
G37*
G36*
X54395Y41898D02*
X54113Y41861D01*
X53851Y41752D01*
X53625Y41579D01*
X53452Y41354D01*
X53343Y41091D01*
X53306Y40809D01*
X53343Y40527D01*
X53452Y40265D01*
X53625Y40039D01*
X53851Y39866D01*
X54113Y39757D01*
X54395Y39720D01*
X54677Y39757D01*
X54939Y39866D01*
X55165Y40039D01*
X55338Y40265D01*
X55447Y40527D01*
X55484Y40809D01*
X55447Y41091D01*
X55338Y41354D01*
X55165Y41579D01*
X54939Y41752D01*
X54677Y41861D01*
X54395Y41898D01*
D02*
G37*
G36*
X22525Y43744D02*
X22260Y43709D01*
X22013Y43607D01*
X21800Y43444D01*
X21638Y43232D01*
X21535Y42985D01*
X21500Y42719D01*
X21535Y42454D01*
X21638Y42207D01*
X21800Y41995D01*
X22013Y41832D01*
X22260Y41730D01*
X22525Y41695D01*
X22790Y41730D01*
X23037Y41832D01*
X23250Y41995D01*
X23412Y42207D01*
X23515Y42454D01*
X23550Y42719D01*
X23515Y42985D01*
X23412Y43232D01*
X23250Y43444D01*
X23037Y43607D01*
X22790Y43709D01*
X22525Y43744D01*
D02*
G37*
G36*
X96420Y41923D02*
X96138Y41886D01*
X95876Y41777D01*
X95650Y41604D01*
X95477Y41379D01*
X95368Y41116D01*
X95331Y40834D01*
X95368Y40552D01*
X95477Y40290D01*
X95650Y40064D01*
X95876Y39891D01*
X96138Y39782D01*
X96420Y39745D01*
X96702Y39782D01*
X96964Y39891D01*
X97190Y40064D01*
X97363Y40290D01*
X97472Y40552D01*
X97509Y40834D01*
X97472Y41116D01*
X97363Y41379D01*
X97190Y41604D01*
X96964Y41777D01*
X96702Y41886D01*
X96420Y41923D01*
D02*
G37*
G36*
X81180Y47003D02*
X80898Y46966D01*
X80636Y46857D01*
X80410Y46684D01*
X80237Y46459D01*
X80128Y46196D01*
X80091Y45914D01*
X80128Y45632D01*
X80237Y45370D01*
X80410Y45144D01*
X80636Y44971D01*
X80898Y44862D01*
X81180Y44825D01*
X81462Y44862D01*
X81724Y44971D01*
X81950Y45144D01*
X82123Y45370D01*
X82232Y45632D01*
X82269Y45914D01*
X82232Y46196D01*
X82123Y46459D01*
X81950Y46684D01*
X81724Y46857D01*
X81462Y46966D01*
X81180Y47003D01*
D02*
G37*
G36*
X54395Y46978D02*
X54113Y46941D01*
X53851Y46832D01*
X53625Y46659D01*
X53452Y46434D01*
X53343Y46171D01*
X53306Y45889D01*
X53343Y45607D01*
X53452Y45345D01*
X53625Y45119D01*
X53851Y44946D01*
X54113Y44838D01*
X54395Y44800D01*
X54677Y44838D01*
X54939Y44946D01*
X55165Y45119D01*
X55338Y45345D01*
X55447Y45607D01*
X55484Y45889D01*
X55447Y46171D01*
X55338Y46434D01*
X55165Y46659D01*
X54939Y46832D01*
X54677Y46941D01*
X54395Y46978D01*
D02*
G37*
G36*
X65050Y47225D02*
X64785Y47190D01*
X64538Y47087D01*
X64325Y46925D01*
X64163Y46712D01*
X64060Y46465D01*
X64025Y46200D01*
X64060Y45935D01*
X64163Y45688D01*
X64325Y45475D01*
X64538Y45313D01*
X64785Y45210D01*
X65050Y45175D01*
X65315Y45210D01*
X65562Y45313D01*
X65775Y45475D01*
X65937Y45688D01*
X66040Y45935D01*
X66075Y46200D01*
X66040Y46465D01*
X65937Y46712D01*
X65775Y46925D01*
X65562Y47087D01*
X65315Y47190D01*
X65050Y47225D01*
D02*
G37*
G36*
X96420Y47003D02*
X96138Y46966D01*
X95876Y46857D01*
X95650Y46684D01*
X95477Y46459D01*
X95368Y46196D01*
X95331Y45914D01*
X95368Y45632D01*
X95477Y45370D01*
X95650Y45144D01*
X95876Y44971D01*
X96138Y44862D01*
X96420Y44825D01*
X96702Y44862D01*
X96964Y44971D01*
X97190Y45144D01*
X97363Y45370D01*
X97472Y45632D01*
X97509Y45914D01*
X97472Y46196D01*
X97363Y46459D01*
X97190Y46684D01*
X96964Y46857D01*
X96702Y46966D01*
X96420Y47003D01*
D02*
G37*
G36*
X36883Y43208D02*
Y42846D01*
X37244D01*
X37230Y42916D01*
X37119Y43083D01*
X36952Y43194D01*
X36883Y43208D01*
D02*
G37*
G36*
X81180Y44463D02*
X80898Y44426D01*
X80636Y44317D01*
X80410Y44144D01*
X80237Y43919D01*
X80128Y43656D01*
X80091Y43374D01*
X80128Y43092D01*
X80237Y42830D01*
X80410Y42604D01*
X80636Y42431D01*
X80898Y42322D01*
X81180Y42285D01*
X81462Y42322D01*
X81724Y42431D01*
X81950Y42604D01*
X82123Y42830D01*
X82232Y43092D01*
X82269Y43374D01*
X82232Y43656D01*
X82123Y43919D01*
X81950Y44144D01*
X81724Y44317D01*
X81462Y44426D01*
X81180Y44463D01*
D02*
G37*
G36*
X54395Y44438D02*
X54113Y44401D01*
X53851Y44292D01*
X53625Y44119D01*
X53452Y43894D01*
X53343Y43631D01*
X53306Y43349D01*
X53343Y43067D01*
X53452Y42805D01*
X53625Y42579D01*
X53851Y42406D01*
X54113Y42298D01*
X54395Y42260D01*
X54677Y42298D01*
X54939Y42406D01*
X55165Y42579D01*
X55338Y42805D01*
X55447Y43067D01*
X55484Y43349D01*
X55447Y43631D01*
X55338Y43894D01*
X55165Y44119D01*
X54939Y44292D01*
X54677Y44401D01*
X54395Y44438D01*
D02*
G37*
G36*
X36629Y43208D02*
X36559Y43194D01*
X36392Y43083D01*
X36281Y42916D01*
X36267Y42846D01*
X36629D01*
Y43208D01*
D02*
G37*
G36*
X96420Y44463D02*
X96138Y44426D01*
X95876Y44317D01*
X95650Y44144D01*
X95477Y43919D01*
X95368Y43656D01*
X95331Y43374D01*
X95368Y43092D01*
X95477Y42830D01*
X95650Y42604D01*
X95876Y42431D01*
X96138Y42322D01*
X96420Y42285D01*
X96702Y42322D01*
X96964Y42431D01*
X97190Y42604D01*
X97363Y42830D01*
X97472Y43092D01*
X97509Y43374D01*
X97472Y43656D01*
X97363Y43919D01*
X97190Y44144D01*
X96964Y44317D01*
X96702Y44426D01*
X96420Y44463D01*
D02*
G37*
G36*
X72773Y73339D02*
X72703Y73325D01*
X72537Y73213D01*
X72425Y73047D01*
X72411Y72977D01*
X72773D01*
Y73339D01*
D02*
G37*
G36*
X67325Y90437D02*
X67187Y90418D01*
X66939Y90316D01*
X66727Y90153D01*
X66564Y89941D01*
X66462Y89694D01*
X66444Y89555D01*
X67325D01*
Y90437D01*
D02*
G37*
G36*
X59602D02*
Y89555D01*
X60483D01*
X60465Y89694D01*
X60362Y89941D01*
X60199Y90153D01*
X59987Y90316D01*
X59740Y90418D01*
X59602Y90437D01*
D02*
G37*
G36*
X75443Y90494D02*
X75304Y90476D01*
X75057Y90374D01*
X74845Y90211D01*
X74682Y89999D01*
X74580Y89751D01*
X74562Y89613D01*
X75443D01*
Y90494D01*
D02*
G37*
G36*
X67579Y90437D02*
Y89555D01*
X68460D01*
X68442Y89694D01*
X68339Y89941D01*
X68176Y90153D01*
X67964Y90316D01*
X67717Y90418D01*
X67579Y90437D01*
D02*
G37*
G36*
X59348D02*
X59209Y90418D01*
X58962Y90316D01*
X58750Y90153D01*
X58587Y89941D01*
X58485Y89694D01*
X58467Y89555D01*
X59348D01*
Y90437D01*
D02*
G37*
G36*
X43519D02*
Y89555D01*
X44400D01*
X44382Y89694D01*
X44280Y89941D01*
X44117Y90153D01*
X43904Y90316D01*
X43657Y90418D01*
X43519Y90437D01*
D02*
G37*
G36*
X43265D02*
X43127Y90418D01*
X42880Y90316D01*
X42667Y90153D01*
X42505Y89941D01*
X42402Y89694D01*
X42384Y89555D01*
X43265D01*
Y90437D01*
D02*
G37*
G36*
X51586D02*
Y89555D01*
X52467D01*
X52449Y89694D01*
X52347Y89941D01*
X52184Y90153D01*
X51972Y90316D01*
X51725Y90418D01*
X51586Y90437D01*
D02*
G37*
G36*
X51332D02*
X51194Y90418D01*
X50947Y90316D01*
X50735Y90153D01*
X50572Y89941D01*
X50470Y89694D01*
X50451Y89555D01*
X51332D01*
Y90437D01*
D02*
G37*
G36*
X75697Y90494D02*
Y89613D01*
X76578D01*
X76560Y89751D01*
X76457Y89999D01*
X76294Y90211D01*
X76082Y90374D01*
X75835Y90476D01*
X75697Y90494D01*
D02*
G37*
G36*
X74680Y91430D02*
X74267D01*
X74285Y91341D01*
X74407Y91157D01*
X74591Y91035D01*
X74680Y91017D01*
Y91430D01*
D02*
G37*
G36*
X83372Y91344D02*
X82960D01*
Y90932D01*
X83049Y90950D01*
X83232Y91072D01*
X83355Y91255D01*
X83372Y91344D01*
D02*
G37*
G36*
X66598Y91448D02*
X66185D01*
X66203Y91359D01*
X66326Y91176D01*
X66509Y91053D01*
X66598Y91035D01*
Y91448D01*
D02*
G37*
G36*
X75346Y91430D02*
X74934D01*
Y91017D01*
X75023Y91035D01*
X75206Y91157D01*
X75329Y91341D01*
X75346Y91430D01*
D02*
G37*
G36*
X82706Y91344D02*
X82293D01*
X82311Y91255D01*
X82433Y91072D01*
X82617Y90950D01*
X82706Y90932D01*
Y91344D01*
D02*
G37*
G36*
X91022Y91294D02*
X90610D01*
Y90882D01*
X90699Y90900D01*
X90882Y91022D01*
X91005Y91205D01*
X91022Y91294D01*
D02*
G37*
G36*
X90356D02*
X89943D01*
X89961Y91205D01*
X90083Y91022D01*
X90267Y90900D01*
X90356Y90882D01*
Y91294D01*
D02*
G37*
G36*
X98997Y91319D02*
X98585D01*
Y90907D01*
X98674Y90925D01*
X98857Y91047D01*
X98980Y91230D01*
X98997Y91319D01*
D02*
G37*
G36*
X98331D02*
X97918D01*
X97936Y91230D01*
X98058Y91047D01*
X98242Y90925D01*
X98331Y90907D01*
Y91319D01*
D02*
G37*
G36*
X71663Y90511D02*
X71397Y90476D01*
X71150Y90374D01*
X70938Y90211D01*
X70775Y89999D01*
X70673Y89751D01*
X70638Y89486D01*
X70673Y89221D01*
X70775Y88974D01*
X70938Y88762D01*
X71150Y88599D01*
X71397Y88496D01*
X71663Y88461D01*
X71928Y88496D01*
X72175Y88599D01*
X72387Y88762D01*
X72550Y88974D01*
X72652Y89221D01*
X72687Y89486D01*
X72652Y89751D01*
X72550Y89999D01*
X72387Y90211D01*
X72175Y90374D01*
X71928Y90476D01*
X71663Y90511D01*
D02*
G37*
G36*
X68460Y89301D02*
X67579D01*
Y88420D01*
X67717Y88439D01*
X67964Y88541D01*
X68176Y88704D01*
X68339Y88916D01*
X68442Y89163D01*
X68460Y89301D01*
D02*
G37*
G36*
X76578Y89359D02*
X75697D01*
Y88478D01*
X75835Y88496D01*
X76082Y88599D01*
X76294Y88762D01*
X76457Y88974D01*
X76560Y89221D01*
X76578Y89359D01*
D02*
G37*
G36*
X75443D02*
X74562D01*
X74580Y89221D01*
X74682Y88974D01*
X74845Y88762D01*
X75057Y88599D01*
X75304Y88496D01*
X75443Y88478D01*
Y89359D01*
D02*
G37*
G36*
X67325Y89301D02*
X66444D01*
X66462Y89163D01*
X66564Y88916D01*
X66727Y88704D01*
X66939Y88541D01*
X67187Y88439D01*
X67325Y88420D01*
Y89301D01*
D02*
G37*
G36*
X52467D02*
X51586D01*
Y88420D01*
X51725Y88439D01*
X51972Y88541D01*
X52184Y88704D01*
X52347Y88916D01*
X52449Y89163D01*
X52467Y89301D01*
D02*
G37*
G36*
X51332D02*
X50451D01*
X50470Y89163D01*
X50572Y88916D01*
X50735Y88704D01*
X50947Y88541D01*
X51194Y88439D01*
X51332Y88420D01*
Y89301D01*
D02*
G37*
G36*
X60483D02*
X59602D01*
Y88420D01*
X59740Y88439D01*
X59987Y88541D01*
X60199Y88704D01*
X60362Y88916D01*
X60465Y89163D01*
X60483Y89301D01*
D02*
G37*
G36*
X59348D02*
X58467D01*
X58485Y89163D01*
X58587Y88916D01*
X58750Y88704D01*
X58962Y88541D01*
X59209Y88439D01*
X59348Y88420D01*
Y89301D01*
D02*
G37*
G36*
X91139Y90344D02*
X91001Y90326D01*
X90754Y90224D01*
X90541Y90061D01*
X90379Y89849D01*
X90276Y89601D01*
X90258Y89463D01*
X91139D01*
Y90344D01*
D02*
G37*
G36*
X27602Y90393D02*
Y89512D01*
X28483D01*
X28465Y89650D01*
X28362Y89897D01*
X28200Y90110D01*
X27987Y90272D01*
X27740Y90375D01*
X27602Y90393D01*
D02*
G37*
G36*
X27348D02*
X27210Y90375D01*
X26963Y90272D01*
X26750Y90110D01*
X26588Y89897D01*
X26485Y89650D01*
X26467Y89512D01*
X27348D01*
Y90393D01*
D02*
G37*
G36*
X35452D02*
Y89512D01*
X36333D01*
X36315Y89650D01*
X36212Y89897D01*
X36050Y90110D01*
X35837Y90272D01*
X35590Y90375D01*
X35452Y90393D01*
D02*
G37*
G36*
X35198D02*
X35060Y90375D01*
X34813Y90272D01*
X34600Y90110D01*
X34438Y89897D01*
X34335Y89650D01*
X34317Y89512D01*
X35198D01*
Y90393D01*
D02*
G37*
G36*
X99354Y90369D02*
Y89488D01*
X100235D01*
X100217Y89626D01*
X100114Y89874D01*
X99951Y90086D01*
X99739Y90249D01*
X99492Y90351D01*
X99354Y90369D01*
D02*
G37*
G36*
X83478D02*
X83340Y90351D01*
X83093Y90249D01*
X82881Y90086D01*
X82718Y89874D01*
X82616Y89626D01*
X82597Y89488D01*
X83478D01*
Y90369D01*
D02*
G37*
G36*
X91393Y90344D02*
Y89463D01*
X92274D01*
X92256Y89601D01*
X92154Y89849D01*
X91991Y90061D01*
X91778Y90224D01*
X91531Y90326D01*
X91393Y90344D01*
D02*
G37*
G36*
X99100Y90369D02*
X98962Y90351D01*
X98714Y90249D01*
X98502Y90086D01*
X98339Y89874D01*
X98237Y89626D01*
X98219Y89488D01*
X99100D01*
Y90369D01*
D02*
G37*
G36*
X83732D02*
Y89488D01*
X84613D01*
X84595Y89626D01*
X84493Y89874D01*
X84330Y90086D01*
X84118Y90249D01*
X83871Y90351D01*
X83732Y90369D01*
D02*
G37*
G36*
X81508Y103128D02*
X80627D01*
X80645Y102990D01*
X80747Y102743D01*
X80910Y102530D01*
X81123Y102368D01*
X81370Y102265D01*
X81508Y102247D01*
Y103128D01*
D02*
G37*
G36*
X84175Y104280D02*
X83910Y104245D01*
X83663Y104142D01*
X83450Y103980D01*
X83287Y103767D01*
X83185Y103520D01*
X83150Y103255D01*
X83185Y102990D01*
X83287Y102743D01*
X83450Y102530D01*
X83663Y102368D01*
X83910Y102265D01*
X84175Y102230D01*
X84440Y102265D01*
X84687Y102368D01*
X84900Y102530D01*
X85062Y102743D01*
X85165Y102990D01*
X85200Y103255D01*
X85165Y103520D01*
X85062Y103767D01*
X84900Y103980D01*
X84687Y104142D01*
X84440Y104245D01*
X84175Y104280D01*
D02*
G37*
G36*
X81508Y104263D02*
X81370Y104245D01*
X81123Y104142D01*
X80910Y103980D01*
X80747Y103767D01*
X80645Y103520D01*
X80627Y103382D01*
X81508D01*
Y104263D01*
D02*
G37*
G36*
X82643Y103128D02*
X81762D01*
Y102247D01*
X81900Y102265D01*
X82147Y102368D01*
X82360Y102530D01*
X82522Y102743D01*
X82625Y102990D01*
X82643Y103128D01*
D02*
G37*
G36*
X106868Y98002D02*
X106677D01*
Y96912D01*
X108068D01*
X108043Y97100D01*
X107921Y97393D01*
X107728Y97645D01*
X107476Y97839D01*
X107182Y97960D01*
X106868Y98002D01*
D02*
G37*
G36*
X42438Y92350D02*
X42349Y92332D01*
X42166Y92210D01*
X42043Y92026D01*
X42025Y91937D01*
X42438D01*
Y92350D01*
D02*
G37*
G36*
X58716Y92203D02*
Y91791D01*
X59128D01*
X59111Y91880D01*
X58988Y92063D01*
X58805Y92186D01*
X58716Y92203D01*
D02*
G37*
G36*
X106423Y98002D02*
X106232D01*
X105918Y97960D01*
X105624Y97839D01*
X105372Y97645D01*
X105179Y97393D01*
X105057Y97100D01*
X105032Y96912D01*
X106423D01*
Y98002D01*
D02*
G37*
G36*
X42692Y92350D02*
Y91937D01*
X43104D01*
X43087Y92026D01*
X42964Y92210D01*
X42781Y92332D01*
X42692Y92350D01*
D02*
G37*
G36*
X81762Y104263D02*
Y103382D01*
X82643D01*
X82625Y103520D01*
X82522Y103767D01*
X82360Y103980D01*
X82147Y104142D01*
X81900Y104245D01*
X81762Y104263D01*
D02*
G37*
G36*
X43853Y111473D02*
X42732D01*
X42758Y111273D01*
X42885Y110968D01*
X43086Y110706D01*
X43348Y110505D01*
X43653Y110378D01*
X43853Y110352D01*
Y111473D01*
D02*
G37*
G36*
X84175Y111900D02*
X83910Y111865D01*
X83663Y111762D01*
X83450Y111600D01*
X83287Y111387D01*
X83185Y111140D01*
X83150Y110875D01*
X83185Y110610D01*
X83287Y110363D01*
X83450Y110150D01*
X83663Y109988D01*
X83910Y109885D01*
X84175Y109850D01*
X84440Y109885D01*
X84687Y109988D01*
X84900Y110150D01*
X85062Y110363D01*
X85165Y110610D01*
X85200Y110875D01*
X85165Y111140D01*
X85062Y111387D01*
X84900Y111600D01*
X84687Y111762D01*
X84440Y111865D01*
X84175Y111900D01*
D02*
G37*
G36*
X49060Y112865D02*
X48733Y112822D01*
X48428Y112695D01*
X48166Y112494D01*
X47965Y112232D01*
X47859Y111977D01*
X47721D01*
X47615Y112232D01*
X47414Y112494D01*
X47152Y112695D01*
X46847Y112822D01*
X46520Y112865D01*
X46193Y112822D01*
X45888Y112695D01*
X45626Y112494D01*
X45425Y112232D01*
X45319Y111977D01*
X45181D01*
X45075Y112232D01*
X44874Y112494D01*
X44612Y112695D01*
X44307Y112822D01*
X44107Y112848D01*
Y111600D01*
Y110352D01*
X44307Y110378D01*
X44612Y110505D01*
X44874Y110706D01*
X45075Y110968D01*
X45181Y111223D01*
X45319D01*
X45425Y110968D01*
X45626Y110706D01*
X45888Y110505D01*
X46193Y110378D01*
X46520Y110335D01*
X46847Y110378D01*
X47152Y110505D01*
X47414Y110706D01*
X47615Y110968D01*
X47721Y111223D01*
X47859D01*
X47965Y110968D01*
X48166Y110706D01*
X48428Y110505D01*
X48733Y110378D01*
X49060Y110335D01*
X49387Y110378D01*
X49692Y110505D01*
X49954Y110706D01*
X50155Y110968D01*
X50219Y111121D01*
X50346Y111096D01*
Y110346D01*
X52854D01*
Y112854D01*
X50346D01*
Y112104D01*
X50219Y112079D01*
X50155Y112232D01*
X49954Y112494D01*
X49692Y112695D01*
X49387Y112822D01*
X49060Y112865D01*
D02*
G37*
G36*
X43853Y112848D02*
X43653Y112822D01*
X43348Y112695D01*
X43086Y112494D01*
X42885Y112232D01*
X42758Y111927D01*
X42732Y111727D01*
X43853D01*
Y112848D01*
D02*
G37*
G36*
X81635Y111900D02*
X81370Y111865D01*
X81123Y111762D01*
X80910Y111600D01*
X80747Y111387D01*
X80645Y111140D01*
X80610Y110875D01*
X80645Y110610D01*
X80747Y110363D01*
X80910Y110150D01*
X81123Y109988D01*
X81370Y109885D01*
X81635Y109850D01*
X81900Y109885D01*
X82147Y109988D01*
X82360Y110150D01*
X82522Y110363D01*
X82625Y110610D01*
X82660Y110875D01*
X82625Y111140D01*
X82522Y111387D01*
X82360Y111600D01*
X82147Y111762D01*
X81900Y111865D01*
X81635Y111900D01*
D02*
G37*
G36*
X84175Y106820D02*
X83910Y106785D01*
X83663Y106682D01*
X83450Y106520D01*
X83287Y106307D01*
X83185Y106060D01*
X83150Y105795D01*
X83185Y105530D01*
X83287Y105283D01*
X83450Y105070D01*
X83663Y104908D01*
X83910Y104805D01*
X84175Y104770D01*
X84440Y104805D01*
X84687Y104908D01*
X84900Y105070D01*
X85062Y105283D01*
X85165Y105530D01*
X85200Y105795D01*
X85165Y106060D01*
X85062Y106307D01*
X84900Y106520D01*
X84687Y106682D01*
X84440Y106785D01*
X84175Y106820D01*
D02*
G37*
G36*
X81635D02*
X81370Y106785D01*
X81123Y106682D01*
X80910Y106520D01*
X80747Y106307D01*
X80645Y106060D01*
X80610Y105795D01*
X80645Y105530D01*
X80747Y105283D01*
X80910Y105070D01*
X81123Y104908D01*
X81370Y104805D01*
X81635Y104770D01*
X81900Y104805D01*
X82147Y104908D01*
X82360Y105070D01*
X82522Y105283D01*
X82625Y105530D01*
X82660Y105795D01*
X82625Y106060D01*
X82522Y106307D01*
X82360Y106520D01*
X82147Y106682D01*
X81900Y106785D01*
X81635Y106820D01*
D02*
G37*
G36*
X84175Y109360D02*
X83910Y109325D01*
X83663Y109222D01*
X83450Y109060D01*
X83287Y108847D01*
X83185Y108600D01*
X83150Y108335D01*
X83185Y108070D01*
X83287Y107823D01*
X83450Y107610D01*
X83663Y107448D01*
X83910Y107345D01*
X84175Y107310D01*
X84440Y107345D01*
X84687Y107448D01*
X84900Y107610D01*
X85062Y107823D01*
X85165Y108070D01*
X85200Y108335D01*
X85165Y108600D01*
X85062Y108847D01*
X84900Y109060D01*
X84687Y109222D01*
X84440Y109325D01*
X84175Y109360D01*
D02*
G37*
G36*
X81635D02*
X81370Y109325D01*
X81123Y109222D01*
X80910Y109060D01*
X80747Y108847D01*
X80645Y108600D01*
X80610Y108335D01*
X80645Y108070D01*
X80747Y107823D01*
X80910Y107610D01*
X81123Y107448D01*
X81370Y107345D01*
X81635Y107310D01*
X81900Y107345D01*
X82147Y107448D01*
X82360Y107610D01*
X82522Y107823D01*
X82625Y108070D01*
X82660Y108335D01*
X82625Y108600D01*
X82522Y108847D01*
X82360Y109060D01*
X82147Y109222D01*
X81900Y109325D01*
X81635Y109360D01*
D02*
G37*
G36*
X43104Y91683D02*
X42692D01*
Y91271D01*
X42781Y91288D01*
X42964Y91411D01*
X43087Y91594D01*
X43104Y91683D01*
D02*
G37*
G36*
X42438D02*
X42025D01*
X42043Y91594D01*
X42166Y91411D01*
X42349Y91288D01*
X42438Y91271D01*
Y91683D01*
D02*
G37*
G36*
X90610Y91961D02*
Y91548D01*
X91022D01*
X91005Y91638D01*
X90882Y91821D01*
X90699Y91943D01*
X90610Y91961D01*
D02*
G37*
G36*
X90356D02*
X90267Y91943D01*
X90083Y91821D01*
X89961Y91638D01*
X89943Y91548D01*
X90356D01*
Y91961D01*
D02*
G37*
G36*
X59128Y91537D02*
X58716D01*
Y91124D01*
X58805Y91142D01*
X58988Y91264D01*
X59111Y91448D01*
X59128Y91537D01*
D02*
G37*
G36*
X50498Y91473D02*
X50085D01*
X50103Y91384D01*
X50226Y91201D01*
X50409Y91078D01*
X50498Y91060D01*
Y91473D01*
D02*
G37*
G36*
X67265Y91448D02*
X66852D01*
Y91035D01*
X66941Y91053D01*
X67124Y91176D01*
X67247Y91359D01*
X67265Y91448D01*
D02*
G37*
G36*
X58462Y91537D02*
X58049D01*
X58067Y91448D01*
X58189Y91264D01*
X58373Y91142D01*
X58462Y91124D01*
Y91537D01*
D02*
G37*
G36*
X51165Y91473D02*
X50752D01*
Y91060D01*
X50841Y91078D01*
X51024Y91201D01*
X51147Y91384D01*
X51165Y91473D01*
D02*
G37*
G36*
X98483Y92235D02*
X98334Y92205D01*
X98208Y92121D01*
X98183Y92096D01*
X98099Y91970D01*
X98076Y91858D01*
X98058Y91846D01*
X97936Y91663D01*
X97918Y91573D01*
X98997D01*
X98980Y91663D01*
X98868Y91830D01*
X98871Y91846D01*
X98842Y91995D01*
X98757Y92121D01*
X98631Y92205D01*
X98483Y92235D01*
D02*
G37*
G36*
X50498Y92140D02*
X50409Y92122D01*
X50226Y91999D01*
X50103Y91816D01*
X50085Y91727D01*
X50498D01*
Y92140D01*
D02*
G37*
G36*
X66852Y92115D02*
Y91702D01*
X67265D01*
X67247Y91791D01*
X67124Y91974D01*
X66941Y92097D01*
X66852Y92115D01*
D02*
G37*
G36*
X58462Y92203D02*
X58373Y92186D01*
X58189Y92063D01*
X58067Y91880D01*
X58049Y91791D01*
X58462D01*
Y92203D01*
D02*
G37*
G36*
X50752Y92140D02*
Y91727D01*
X51165D01*
X51147Y91816D01*
X51024Y91999D01*
X50841Y92122D01*
X50752Y92140D01*
D02*
G37*
G36*
X66598Y92115D02*
X66509Y92097D01*
X66326Y91974D01*
X66203Y91791D01*
X66185Y91702D01*
X66598D01*
Y92115D01*
D02*
G37*
G36*
X82960Y92011D02*
Y91598D01*
X83372D01*
X83355Y91688D01*
X83232Y91871D01*
X83049Y91993D01*
X82960Y92011D01*
D02*
G37*
G36*
X82706D02*
X82617Y91993D01*
X82433Y91871D01*
X82311Y91688D01*
X82293Y91598D01*
X82706D01*
Y92011D01*
D02*
G37*
G36*
X74934Y92096D02*
Y91684D01*
X75346D01*
X75329Y91773D01*
X75206Y91956D01*
X75023Y92079D01*
X74934Y92096D01*
D02*
G37*
G36*
X74680D02*
X74591Y92079D01*
X74407Y91956D01*
X74285Y91773D01*
X74267Y91684D01*
X74680D01*
Y92096D01*
D02*
G37*
G36*
X55339Y79141D02*
X54458D01*
X54476Y79003D01*
X54578Y78756D01*
X54741Y78544D01*
X54954Y78381D01*
X55201Y78279D01*
X55339Y78260D01*
Y79141D01*
D02*
G37*
G36*
X48459D02*
X47578D01*
Y78260D01*
X47716Y78279D01*
X47963Y78381D01*
X48175Y78544D01*
X48338Y78756D01*
X48441Y79003D01*
X48459Y79141D01*
D02*
G37*
G36*
X63316D02*
X62435D01*
X62453Y79003D01*
X62556Y78756D01*
X62718Y78544D01*
X62931Y78381D01*
X63178Y78279D01*
X63316Y78260D01*
Y79141D01*
D02*
G37*
G36*
X56474D02*
X55593D01*
Y78260D01*
X55731Y78279D01*
X55978Y78381D01*
X56191Y78544D01*
X56353Y78756D01*
X56456Y79003D01*
X56474Y79141D01*
D02*
G37*
G36*
X47324D02*
X46443D01*
X46461Y79003D01*
X46563Y78756D01*
X46726Y78544D01*
X46938Y78381D01*
X47185Y78279D01*
X47324Y78260D01*
Y79141D01*
D02*
G37*
G36*
X67452Y80293D02*
X67187Y80258D01*
X66939Y80156D01*
X66727Y79993D01*
X66564Y79781D01*
X66462Y79534D01*
X66427Y79268D01*
X66462Y79003D01*
X66564Y78756D01*
X66727Y78544D01*
X66939Y78381D01*
X67187Y78279D01*
X67452Y78244D01*
X67717Y78279D01*
X67964Y78381D01*
X68176Y78544D01*
X68339Y78756D01*
X68442Y79003D01*
X68477Y79268D01*
X68442Y79534D01*
X68339Y79781D01*
X68176Y79993D01*
X67964Y80156D01*
X67717Y80258D01*
X67452Y80293D01*
D02*
G37*
G36*
X59475D02*
X59209Y80258D01*
X58962Y80156D01*
X58750Y79993D01*
X58587Y79781D01*
X58485Y79534D01*
X58450Y79268D01*
X58485Y79003D01*
X58587Y78756D01*
X58750Y78544D01*
X58962Y78381D01*
X59209Y78279D01*
X59475Y78244D01*
X59740Y78279D01*
X59987Y78381D01*
X60199Y78544D01*
X60362Y78756D01*
X60465Y79003D01*
X60499Y79268D01*
X60465Y79534D01*
X60362Y79781D01*
X60199Y79993D01*
X59987Y80156D01*
X59740Y80258D01*
X59475Y80293D01*
D02*
G37*
G36*
X40391Y79141D02*
X39510D01*
Y78260D01*
X39649Y78279D01*
X39896Y78381D01*
X40108Y78544D01*
X40271Y78756D01*
X40373Y79003D01*
X40391Y79141D01*
D02*
G37*
G36*
X39256D02*
X38375D01*
X38394Y79003D01*
X38496Y78756D01*
X38659Y78544D01*
X38871Y78381D01*
X39118Y78279D01*
X39256Y78260D01*
Y79141D01*
D02*
G37*
G36*
X64451D02*
X63570D01*
Y78260D01*
X63708Y78279D01*
X63955Y78381D01*
X64168Y78544D01*
X64331Y78756D01*
X64433Y79003D01*
X64451Y79141D01*
D02*
G37*
G36*
X79825Y80209D02*
Y79328D01*
X80706D01*
X80688Y79466D01*
X80586Y79714D01*
X80423Y79926D01*
X80211Y80089D01*
X79964Y80191D01*
X79825Y80209D01*
D02*
G37*
G36*
X79571D02*
X79433Y80191D01*
X79186Y80089D01*
X78974Y79926D01*
X78811Y79714D01*
X78708Y79466D01*
X78690Y79328D01*
X79571D01*
Y80209D01*
D02*
G37*
G36*
X95447D02*
Y79328D01*
X96328D01*
X96310Y79466D01*
X96207Y79714D01*
X96044Y79926D01*
X95832Y80089D01*
X95585Y80191D01*
X95447Y80209D01*
D02*
G37*
G36*
X95193D02*
X95054Y80191D01*
X94807Y80089D01*
X94595Y79926D01*
X94432Y79714D01*
X94330Y79466D01*
X94312Y79328D01*
X95193D01*
Y80209D01*
D02*
G37*
G36*
X87486Y80184D02*
Y79303D01*
X88367D01*
X88349Y79441D01*
X88246Y79689D01*
X88084Y79901D01*
X87871Y80064D01*
X87624Y80166D01*
X87486Y80184D01*
D02*
G37*
G36*
X71536Y79199D02*
X70654D01*
X70673Y79061D01*
X70775Y78814D01*
X70938Y78602D01*
X71150Y78439D01*
X71397Y78336D01*
X71536Y78318D01*
Y79199D01*
D02*
G37*
G36*
X75570Y80351D02*
X75304Y80316D01*
X75057Y80214D01*
X74845Y80051D01*
X74682Y79839D01*
X74580Y79591D01*
X74545Y79326D01*
X74580Y79061D01*
X74682Y78814D01*
X74845Y78602D01*
X75057Y78439D01*
X75304Y78336D01*
X75570Y78301D01*
X75835Y78336D01*
X76082Y78439D01*
X76294Y78602D01*
X76457Y78814D01*
X76560Y79061D01*
X76594Y79326D01*
X76560Y79591D01*
X76457Y79839D01*
X76294Y80051D01*
X76082Y80214D01*
X75835Y80316D01*
X75570Y80351D01*
D02*
G37*
G36*
X87232Y80184D02*
X87094Y80166D01*
X86847Y80064D01*
X86634Y79901D01*
X86471Y79689D01*
X86369Y79441D01*
X86351Y79303D01*
X87232D01*
Y80184D01*
D02*
G37*
G36*
X72671Y79199D02*
X71790D01*
Y78318D01*
X71928Y78336D01*
X72175Y78439D01*
X72387Y78602D01*
X72550Y78814D01*
X72652Y79061D01*
X72671Y79199D01*
D02*
G37*
G36*
X99227Y80226D02*
X98962Y80191D01*
X98714Y80089D01*
X98502Y79926D01*
X98339Y79714D01*
X98237Y79466D01*
X98202Y79201D01*
X98237Y78936D01*
X98339Y78689D01*
X98502Y78477D01*
X98714Y78314D01*
X98962Y78211D01*
X99227Y78176D01*
X99492Y78211D01*
X99739Y78314D01*
X99951Y78477D01*
X100114Y78689D01*
X100217Y78936D01*
X100252Y79201D01*
X100217Y79466D01*
X100114Y79714D01*
X99951Y79926D01*
X99739Y80089D01*
X99492Y80191D01*
X99227Y80226D01*
D02*
G37*
G36*
X83605D02*
X83340Y80191D01*
X83093Y80089D01*
X82881Y79926D01*
X82718Y79714D01*
X82616Y79466D01*
X82581Y79201D01*
X82616Y78936D01*
X82718Y78689D01*
X82881Y78477D01*
X83093Y78314D01*
X83340Y78211D01*
X83605Y78176D01*
X83871Y78211D01*
X84118Y78314D01*
X84330Y78477D01*
X84493Y78689D01*
X84595Y78936D01*
X84630Y79201D01*
X84595Y79466D01*
X84493Y79714D01*
X84330Y79926D01*
X84118Y80089D01*
X83871Y80191D01*
X83605Y80226D01*
D02*
G37*
G36*
X80706Y79074D02*
X79825D01*
Y78193D01*
X79964Y78211D01*
X80211Y78314D01*
X80423Y78477D01*
X80586Y78689D01*
X80688Y78936D01*
X80706Y79074D01*
D02*
G37*
G36*
X79571D02*
X78690D01*
X78708Y78936D01*
X78811Y78689D01*
X78974Y78477D01*
X79186Y78314D01*
X79433Y78211D01*
X79571Y78193D01*
Y79074D01*
D02*
G37*
G36*
X88367Y79049D02*
X87486D01*
Y78168D01*
X87624Y78186D01*
X87871Y78289D01*
X88084Y78452D01*
X88246Y78664D01*
X88349Y78911D01*
X88367Y79049D01*
D02*
G37*
G36*
X108068Y85458D02*
X105032D01*
X105057Y85270D01*
X105179Y84977D01*
X105372Y84725D01*
X105624Y84531D01*
X105918Y84410D01*
X106149Y84379D01*
Y84251D01*
X105918Y84220D01*
X105624Y84099D01*
X105372Y83905D01*
X105179Y83653D01*
X105057Y83360D01*
X105016Y83045D01*
X105057Y82730D01*
X105179Y82437D01*
X105372Y82185D01*
X105624Y81991D01*
X105918Y81870D01*
X106149Y81839D01*
Y81711D01*
X105918Y81680D01*
X105624Y81559D01*
X105372Y81365D01*
X105179Y81113D01*
X105057Y80820D01*
X105016Y80505D01*
X105057Y80190D01*
X105179Y79897D01*
X105372Y79645D01*
X105624Y79451D01*
X105918Y79330D01*
X106149Y79299D01*
Y79171D01*
X105918Y79140D01*
X105624Y79019D01*
X105372Y78825D01*
X105179Y78573D01*
X105057Y78280D01*
X105016Y77965D01*
X105057Y77650D01*
X105179Y77357D01*
X105372Y77105D01*
X105624Y76911D01*
X105918Y76790D01*
X106232Y76748D01*
X106868D01*
X107182Y76790D01*
X107476Y76911D01*
X107728Y77105D01*
X107921Y77357D01*
X108043Y77650D01*
X108084Y77965D01*
X108043Y78280D01*
X107921Y78573D01*
X107728Y78825D01*
X107476Y79019D01*
X107182Y79140D01*
X106951Y79171D01*
Y79299D01*
X107182Y79330D01*
X107476Y79451D01*
X107728Y79645D01*
X107921Y79897D01*
X108043Y80190D01*
X108084Y80505D01*
X108043Y80820D01*
X107921Y81113D01*
X107728Y81365D01*
X107476Y81559D01*
X107182Y81680D01*
X106951Y81711D01*
Y81839D01*
X107182Y81870D01*
X107476Y81991D01*
X107728Y82185D01*
X107921Y82437D01*
X108043Y82730D01*
X108084Y83045D01*
X108043Y83360D01*
X107921Y83653D01*
X107728Y83905D01*
X107476Y84099D01*
X107182Y84220D01*
X106951Y84251D01*
Y84379D01*
X107182Y84410D01*
X107476Y84531D01*
X107728Y84725D01*
X107921Y84977D01*
X108043Y85270D01*
X108068Y85458D01*
D02*
G37*
G36*
X73027Y73339D02*
Y72977D01*
X73389D01*
X73375Y73047D01*
X73263Y73213D01*
X73097Y73325D01*
X73027Y73339D01*
D02*
G37*
G36*
X87232Y79049D02*
X86351D01*
X86369Y78911D01*
X86471Y78664D01*
X86634Y78452D01*
X86847Y78289D01*
X87094Y78186D01*
X87232Y78168D01*
Y79049D01*
D02*
G37*
G36*
X91266Y80201D02*
X91001Y80166D01*
X90754Y80064D01*
X90541Y79901D01*
X90379Y79689D01*
X90276Y79441D01*
X90241Y79176D01*
X90276Y78911D01*
X90379Y78664D01*
X90541Y78452D01*
X90754Y78289D01*
X91001Y78186D01*
X91266Y78151D01*
X91531Y78186D01*
X91778Y78289D01*
X91991Y78452D01*
X92154Y78664D01*
X92256Y78911D01*
X92291Y79176D01*
X92256Y79441D01*
X92154Y79689D01*
X91991Y79901D01*
X91778Y80064D01*
X91531Y80166D01*
X91266Y80201D01*
D02*
G37*
G36*
X95193Y79074D02*
X94312D01*
X94330Y78936D01*
X94432Y78689D01*
X94595Y78477D01*
X94807Y78314D01*
X95054Y78211D01*
X95193Y78193D01*
Y79074D01*
D02*
G37*
G36*
X32408Y79098D02*
X31527D01*
Y78217D01*
X31665Y78235D01*
X31912Y78338D01*
X32125Y78500D01*
X32287Y78713D01*
X32390Y78960D01*
X32408Y79098D01*
D02*
G37*
G36*
X31273D02*
X30392D01*
X30410Y78960D01*
X30513Y78713D01*
X30675Y78500D01*
X30888Y78338D01*
X31135Y78235D01*
X31273Y78217D01*
Y79098D01*
D02*
G37*
G36*
X51459Y80293D02*
X51194Y80258D01*
X50947Y80156D01*
X50735Y79993D01*
X50572Y79781D01*
X50470Y79534D01*
X50435Y79268D01*
X50470Y79003D01*
X50572Y78756D01*
X50735Y78544D01*
X50947Y78381D01*
X51194Y78279D01*
X51459Y78244D01*
X51725Y78279D01*
X51972Y78381D01*
X52184Y78544D01*
X52347Y78756D01*
X52449Y79003D01*
X52484Y79268D01*
X52449Y79534D01*
X52347Y79781D01*
X52184Y79993D01*
X51972Y80156D01*
X51725Y80258D01*
X51459Y80293D01*
D02*
G37*
G36*
X43392D02*
X43127Y80258D01*
X42880Y80156D01*
X42667Y79993D01*
X42505Y79781D01*
X42402Y79534D01*
X42367Y79268D01*
X42402Y79003D01*
X42505Y78756D01*
X42667Y78544D01*
X42880Y78381D01*
X43127Y78279D01*
X43392Y78244D01*
X43657Y78279D01*
X43904Y78381D01*
X44117Y78544D01*
X44280Y78756D01*
X44382Y79003D01*
X44417Y79268D01*
X44382Y79534D01*
X44280Y79781D01*
X44117Y79993D01*
X43904Y80156D01*
X43657Y80258D01*
X43392Y80293D01*
D02*
G37*
G36*
X24558Y79098D02*
X23677D01*
Y78217D01*
X23815Y78235D01*
X24062Y78338D01*
X24275Y78500D01*
X24437Y78713D01*
X24540Y78960D01*
X24558Y79098D01*
D02*
G37*
G36*
X27475Y80250D02*
X27210Y80215D01*
X26963Y80112D01*
X26750Y79950D01*
X26588Y79737D01*
X26485Y79490D01*
X26450Y79225D01*
X26485Y78960D01*
X26588Y78713D01*
X26750Y78500D01*
X26963Y78338D01*
X27210Y78235D01*
X27475Y78200D01*
X27740Y78235D01*
X27987Y78338D01*
X28200Y78500D01*
X28362Y78713D01*
X28465Y78960D01*
X28500Y79225D01*
X28465Y79490D01*
X28362Y79737D01*
X28200Y79950D01*
X27987Y80112D01*
X27740Y80215D01*
X27475Y80250D01*
D02*
G37*
G36*
X96328Y79074D02*
X95447D01*
Y78193D01*
X95585Y78211D01*
X95832Y78314D01*
X96044Y78477D01*
X96207Y78689D01*
X96310Y78936D01*
X96328Y79074D01*
D02*
G37*
G36*
X23423Y79098D02*
X22542D01*
X22560Y78960D01*
X22663Y78713D01*
X22825Y78500D01*
X23038Y78338D01*
X23285Y78235D01*
X23423Y78217D01*
Y79098D01*
D02*
G37*
G36*
X35325Y80250D02*
X35060Y80215D01*
X34813Y80112D01*
X34600Y79950D01*
X34438Y79737D01*
X34335Y79490D01*
X34300Y79225D01*
X34335Y78960D01*
X34438Y78713D01*
X34600Y78500D01*
X34813Y78338D01*
X35060Y78235D01*
X35325Y78200D01*
X35590Y78235D01*
X35837Y78338D01*
X36050Y78500D01*
X36212Y78713D01*
X36315Y78960D01*
X36350Y79225D01*
X36315Y79490D01*
X36212Y79737D01*
X36050Y79950D01*
X35837Y80112D01*
X35590Y80215D01*
X35325Y80250D01*
D02*
G37*
G36*
X100235Y89234D02*
X99354D01*
Y88353D01*
X99492Y88371D01*
X99739Y88474D01*
X99951Y88637D01*
X100114Y88849D01*
X100217Y89096D01*
X100235Y89234D01*
D02*
G37*
G36*
X99100D02*
X98219D01*
X98237Y89096D01*
X98339Y88849D01*
X98502Y88637D01*
X98714Y88474D01*
X98962Y88371D01*
X99100Y88353D01*
Y89234D01*
D02*
G37*
G36*
X31400Y90410D02*
X31135Y90375D01*
X30888Y90272D01*
X30675Y90110D01*
X30513Y89897D01*
X30410Y89650D01*
X30375Y89385D01*
X30410Y89120D01*
X30513Y88873D01*
X30675Y88660D01*
X30888Y88498D01*
X31135Y88395D01*
X31400Y88360D01*
X31665Y88395D01*
X31912Y88498D01*
X32125Y88660D01*
X32287Y88873D01*
X32390Y89120D01*
X32425Y89385D01*
X32390Y89650D01*
X32287Y89897D01*
X32125Y90110D01*
X31912Y90272D01*
X31665Y90375D01*
X31400Y90410D01*
D02*
G37*
G36*
X23550D02*
X23285Y90375D01*
X23038Y90272D01*
X22825Y90110D01*
X22663Y89897D01*
X22560Y89650D01*
X22525Y89385D01*
X22560Y89120D01*
X22663Y88873D01*
X22825Y88660D01*
X23038Y88498D01*
X23285Y88395D01*
X23550Y88360D01*
X23815Y88395D01*
X24062Y88498D01*
X24275Y88660D01*
X24437Y88873D01*
X24540Y89120D01*
X24575Y89385D01*
X24540Y89650D01*
X24437Y89897D01*
X24275Y90110D01*
X24062Y90272D01*
X23815Y90375D01*
X23550Y90410D01*
D02*
G37*
G36*
X84613Y89234D02*
X83732D01*
Y88353D01*
X83871Y88371D01*
X84118Y88474D01*
X84330Y88637D01*
X84493Y88849D01*
X84595Y89096D01*
X84613Y89234D01*
D02*
G37*
G36*
X79698Y90386D02*
X79433Y90351D01*
X79186Y90249D01*
X78974Y90086D01*
X78811Y89874D01*
X78708Y89626D01*
X78674Y89361D01*
X78708Y89096D01*
X78811Y88849D01*
X78974Y88637D01*
X79186Y88474D01*
X79433Y88371D01*
X79698Y88337D01*
X79964Y88371D01*
X80211Y88474D01*
X80423Y88637D01*
X80586Y88849D01*
X80688Y89096D01*
X80723Y89361D01*
X80688Y89626D01*
X80586Y89874D01*
X80423Y90086D01*
X80211Y90249D01*
X79964Y90351D01*
X79698Y90386D01*
D02*
G37*
G36*
X92274Y89209D02*
X91393D01*
Y88328D01*
X91531Y88346D01*
X91778Y88449D01*
X91991Y88612D01*
X92154Y88824D01*
X92256Y89071D01*
X92274Y89209D01*
D02*
G37*
G36*
X83478Y89234D02*
X82597D01*
X82616Y89096D01*
X82718Y88849D01*
X82881Y88637D01*
X83093Y88474D01*
X83340Y88371D01*
X83478Y88353D01*
Y89234D01*
D02*
G37*
G36*
X95320Y90386D02*
X95054Y90351D01*
X94807Y90249D01*
X94595Y90086D01*
X94432Y89874D01*
X94330Y89626D01*
X94295Y89361D01*
X94330Y89096D01*
X94432Y88849D01*
X94595Y88637D01*
X94807Y88474D01*
X95054Y88371D01*
X95320Y88337D01*
X95585Y88371D01*
X95832Y88474D01*
X96044Y88637D01*
X96207Y88849D01*
X96310Y89096D01*
X96344Y89361D01*
X96310Y89626D01*
X96207Y89874D01*
X96044Y90086D01*
X95832Y90249D01*
X95585Y90351D01*
X95320Y90386D01*
D02*
G37*
G36*
X27348Y89258D02*
X26467D01*
X26485Y89120D01*
X26588Y88873D01*
X26750Y88660D01*
X26963Y88498D01*
X27210Y88395D01*
X27348Y88377D01*
Y89258D01*
D02*
G37*
G36*
X63443Y90453D02*
X63178Y90418D01*
X62931Y90316D01*
X62718Y90153D01*
X62556Y89941D01*
X62453Y89694D01*
X62418Y89428D01*
X62453Y89163D01*
X62556Y88916D01*
X62718Y88704D01*
X62931Y88541D01*
X63178Y88439D01*
X63443Y88404D01*
X63708Y88439D01*
X63955Y88541D01*
X64168Y88704D01*
X64331Y88916D01*
X64433Y89163D01*
X64468Y89428D01*
X64433Y89694D01*
X64331Y89941D01*
X64168Y90153D01*
X63955Y90316D01*
X63708Y90418D01*
X63443Y90453D01*
D02*
G37*
G36*
X55466D02*
X55201Y90418D01*
X54954Y90316D01*
X54741Y90153D01*
X54578Y89941D01*
X54476Y89694D01*
X54441Y89428D01*
X54476Y89163D01*
X54578Y88916D01*
X54741Y88704D01*
X54954Y88541D01*
X55201Y88439D01*
X55466Y88404D01*
X55731Y88439D01*
X55978Y88541D01*
X56191Y88704D01*
X56353Y88916D01*
X56456Y89163D01*
X56491Y89428D01*
X56456Y89694D01*
X56353Y89941D01*
X56191Y90153D01*
X55978Y90316D01*
X55731Y90418D01*
X55466Y90453D01*
D02*
G37*
G36*
X44400Y89301D02*
X43519D01*
Y88420D01*
X43657Y88439D01*
X43904Y88541D01*
X44117Y88704D01*
X44280Y88916D01*
X44382Y89163D01*
X44400Y89301D01*
D02*
G37*
G36*
X43265D02*
X42384D01*
X42402Y89163D01*
X42505Y88916D01*
X42667Y88704D01*
X42880Y88541D01*
X43127Y88439D01*
X43265Y88420D01*
Y89301D01*
D02*
G37*
G36*
X47451Y90453D02*
X47185Y90418D01*
X46938Y90316D01*
X46726Y90153D01*
X46563Y89941D01*
X46461Y89694D01*
X46426Y89428D01*
X46461Y89163D01*
X46563Y88916D01*
X46726Y88704D01*
X46938Y88541D01*
X47185Y88439D01*
X47451Y88404D01*
X47716Y88439D01*
X47963Y88541D01*
X48175Y88704D01*
X48338Y88916D01*
X48441Y89163D01*
X48475Y89428D01*
X48441Y89694D01*
X48338Y89941D01*
X48175Y90153D01*
X47963Y90316D01*
X47716Y90418D01*
X47451Y90453D01*
D02*
G37*
G36*
X35198Y89258D02*
X34317D01*
X34335Y89120D01*
X34438Y88873D01*
X34600Y88660D01*
X34813Y88498D01*
X35060Y88395D01*
X35198Y88377D01*
Y89258D01*
D02*
G37*
G36*
X28483D02*
X27602D01*
Y88377D01*
X27740Y88395D01*
X27987Y88498D01*
X28200Y88660D01*
X28362Y88873D01*
X28465Y89120D01*
X28483Y89258D01*
D02*
G37*
G36*
X39383Y90453D02*
X39118Y90418D01*
X38871Y90316D01*
X38659Y90153D01*
X38496Y89941D01*
X38394Y89694D01*
X38359Y89428D01*
X38394Y89163D01*
X38496Y88916D01*
X38659Y88704D01*
X38871Y88541D01*
X39118Y88439D01*
X39383Y88404D01*
X39649Y88439D01*
X39896Y88541D01*
X40108Y88704D01*
X40271Y88916D01*
X40373Y89163D01*
X40408Y89428D01*
X40373Y89694D01*
X40271Y89941D01*
X40108Y90153D01*
X39896Y90316D01*
X39649Y90418D01*
X39383Y90453D01*
D02*
G37*
G36*
X36333Y89258D02*
X35452D01*
Y88377D01*
X35590Y88395D01*
X35837Y88498D01*
X36050Y88660D01*
X36212Y88873D01*
X36315Y89120D01*
X36333Y89258D01*
D02*
G37*
G36*
X47324Y80277D02*
X47185Y80258D01*
X46938Y80156D01*
X46726Y79993D01*
X46563Y79781D01*
X46461Y79534D01*
X46443Y79395D01*
X47324D01*
Y80277D01*
D02*
G37*
G36*
X39510D02*
Y79395D01*
X40391D01*
X40373Y79534D01*
X40271Y79781D01*
X40108Y79993D01*
X39896Y80156D01*
X39649Y80258D01*
X39510Y80277D01*
D02*
G37*
G36*
X55339D02*
X55201Y80258D01*
X54954Y80156D01*
X54741Y79993D01*
X54578Y79781D01*
X54476Y79534D01*
X54458Y79395D01*
X55339D01*
Y80277D01*
D02*
G37*
G36*
X47578D02*
Y79395D01*
X48459D01*
X48441Y79534D01*
X48338Y79781D01*
X48175Y79993D01*
X47963Y80156D01*
X47716Y80258D01*
X47578Y80277D01*
D02*
G37*
G36*
X39256D02*
X39118Y80258D01*
X38871Y80156D01*
X38659Y79993D01*
X38496Y79781D01*
X38394Y79534D01*
X38375Y79395D01*
X39256D01*
Y80277D01*
D02*
G37*
G36*
X23677Y80233D02*
Y79352D01*
X24558D01*
X24540Y79490D01*
X24437Y79737D01*
X24275Y79950D01*
X24062Y80112D01*
X23815Y80215D01*
X23677Y80233D01*
D02*
G37*
G36*
X23423D02*
X23285Y80215D01*
X23038Y80112D01*
X22825Y79950D01*
X22663Y79737D01*
X22560Y79490D01*
X22542Y79352D01*
X23423D01*
Y80233D01*
D02*
G37*
G36*
X31527D02*
Y79352D01*
X32408D01*
X32390Y79490D01*
X32287Y79737D01*
X32125Y79950D01*
X31912Y80112D01*
X31665Y80215D01*
X31527Y80233D01*
D02*
G37*
G36*
X31273D02*
X31135Y80215D01*
X30888Y80112D01*
X30675Y79950D01*
X30513Y79737D01*
X30410Y79490D01*
X30392Y79352D01*
X31273D01*
Y80233D01*
D02*
G37*
G36*
X55593Y80277D02*
Y79395D01*
X56474D01*
X56456Y79534D01*
X56353Y79781D01*
X56191Y79993D01*
X55978Y80156D01*
X55731Y80258D01*
X55593Y80277D01*
D02*
G37*
G36*
X108068Y96658D02*
X105032D01*
X105057Y96470D01*
X105179Y96177D01*
X105372Y95925D01*
X105624Y95731D01*
X105918Y95610D01*
X106149Y95579D01*
Y95451D01*
X105918Y95420D01*
X105624Y95299D01*
X105372Y95105D01*
X105179Y94853D01*
X105057Y94560D01*
X105016Y94245D01*
X105057Y93930D01*
X105179Y93637D01*
X105372Y93385D01*
X105624Y93191D01*
X105918Y93070D01*
X106149Y93039D01*
Y92911D01*
X105918Y92880D01*
X105624Y92759D01*
X105372Y92565D01*
X105179Y92313D01*
X105057Y92020D01*
X105016Y91705D01*
X105057Y91390D01*
X105179Y91097D01*
X105372Y90845D01*
X105624Y90651D01*
X105918Y90530D01*
X106149Y90499D01*
Y90371D01*
X105918Y90340D01*
X105624Y90219D01*
X105372Y90025D01*
X105179Y89773D01*
X105057Y89480D01*
X105016Y89165D01*
X105057Y88850D01*
X105179Y88557D01*
X105372Y88305D01*
X105624Y88111D01*
X105918Y87990D01*
X106232Y87948D01*
X106868D01*
X107182Y87990D01*
X107476Y88111D01*
X107728Y88305D01*
X107921Y88557D01*
X108043Y88850D01*
X108084Y89165D01*
X108043Y89480D01*
X107921Y89773D01*
X107728Y90025D01*
X107476Y90219D01*
X107182Y90340D01*
X106951Y90371D01*
Y90499D01*
X107182Y90530D01*
X107476Y90651D01*
X107728Y90845D01*
X107921Y91097D01*
X108043Y91390D01*
X108084Y91705D01*
X108043Y92020D01*
X107921Y92313D01*
X107728Y92565D01*
X107476Y92759D01*
X107182Y92880D01*
X106951Y92911D01*
Y93039D01*
X107182Y93070D01*
X107476Y93191D01*
X107728Y93385D01*
X107921Y93637D01*
X108043Y93930D01*
X108084Y94245D01*
X108043Y94560D01*
X107921Y94853D01*
X107728Y95105D01*
X107476Y95299D01*
X107182Y95420D01*
X106951Y95451D01*
Y95579D01*
X107182Y95610D01*
X107476Y95731D01*
X107728Y95925D01*
X107921Y96177D01*
X108043Y96470D01*
X108068Y96658D01*
D02*
G37*
G36*
X106868Y86802D02*
X106677D01*
Y85712D01*
X108068D01*
X108043Y85900D01*
X107921Y86193D01*
X107728Y86445D01*
X107476Y86639D01*
X107182Y86760D01*
X106868Y86802D01*
D02*
G37*
G36*
X91139Y89209D02*
X90258D01*
X90276Y89071D01*
X90379Y88824D01*
X90541Y88612D01*
X90754Y88449D01*
X91001Y88346D01*
X91139Y88328D01*
Y89209D01*
D02*
G37*
G36*
X87359Y90361D02*
X87094Y90326D01*
X86847Y90224D01*
X86634Y90061D01*
X86471Y89849D01*
X86369Y89601D01*
X86334Y89336D01*
X86369Y89071D01*
X86471Y88824D01*
X86634Y88612D01*
X86847Y88449D01*
X87094Y88346D01*
X87359Y88312D01*
X87624Y88346D01*
X87871Y88449D01*
X88084Y88612D01*
X88246Y88824D01*
X88349Y89071D01*
X88384Y89336D01*
X88349Y89601D01*
X88246Y89849D01*
X88084Y90061D01*
X87871Y90224D01*
X87624Y90326D01*
X87359Y90361D01*
D02*
G37*
G36*
X106423Y86802D02*
X106232D01*
X105918Y86760D01*
X105624Y86639D01*
X105372Y86445D01*
X105179Y86193D01*
X105057Y85900D01*
X105032Y85712D01*
X106423D01*
Y86802D01*
D02*
G37*
G36*
X63570Y80277D02*
Y79395D01*
X64451D01*
X64433Y79534D01*
X64331Y79781D01*
X64168Y79993D01*
X63955Y80156D01*
X63708Y80258D01*
X63570Y80277D01*
D02*
G37*
G36*
X63316D02*
X63178Y80258D01*
X62931Y80156D01*
X62718Y79993D01*
X62556Y79781D01*
X62453Y79534D01*
X62435Y79395D01*
X63316D01*
Y80277D01*
D02*
G37*
G36*
X71790Y80334D02*
Y79453D01*
X72671D01*
X72652Y79591D01*
X72550Y79839D01*
X72387Y80051D01*
X72175Y80214D01*
X71928Y80316D01*
X71790Y80334D01*
D02*
G37*
G36*
X71536D02*
X71397Y80316D01*
X71150Y80214D01*
X70938Y80051D01*
X70775Y79839D01*
X70673Y79591D01*
X70654Y79453D01*
X71536D01*
Y80334D01*
D02*
G37*
%LPD*%
D14*
X98458Y91446D02*
Y91821D01*
X98483Y91846D01*
D16*
X70493Y57781D02*
D03*
Y61200D02*
D03*
X70050Y46200D02*
D03*
X61675Y70600D02*
D03*
X57913Y61628D02*
D03*
X31400Y79225D02*
D03*
X35325Y89385D02*
D03*
X23550Y79225D02*
D03*
X27475Y89385D02*
D03*
X59475Y89428D02*
D03*
X63443Y79268D02*
D03*
X67452Y89428D02*
D03*
X55466Y79268D02*
D03*
X51459Y89428D02*
D03*
X47451Y79268D02*
D03*
X43392Y89428D02*
D03*
X39383Y79268D02*
D03*
X81635Y103255D02*
D03*
X95500Y67175D02*
D03*
X75570Y89486D02*
D03*
X91266Y89336D02*
D03*
X99227Y89361D02*
D03*
X83605D02*
D03*
X79698Y79201D02*
D03*
X87359Y79176D02*
D03*
X95320Y79201D02*
D03*
X71663Y79326D02*
D03*
D18*
X96420Y30674D02*
D03*
Y28134D02*
D03*
Y53534D02*
D03*
Y61154D02*
D03*
X54395Y61129D02*
D03*
Y53509D02*
D03*
Y28109D02*
D03*
Y30649D02*
D03*
D20*
X28525Y33750D02*
D03*
D21*
X106550Y96785D02*
D03*
Y85585D02*
D03*
D23*
X107590Y50475D02*
D03*
D24*
X43980Y111600D02*
D03*
D26*
X51725Y26700D02*
D03*
X36756Y42719D02*
D03*
X101725Y48550D02*
D03*
X72900Y72850D02*
D03*
X46900Y53500D02*
D03*
X46950Y68925D02*
D03*
D28*
X42565Y91810D02*
D03*
X66725Y91575D02*
D03*
X58589Y91664D02*
D03*
X50625Y91600D02*
D03*
X82833Y91471D02*
D03*
X90483Y91421D02*
D03*
X98458Y91446D02*
D03*
X74807Y91557D02*
D03*
X72850Y55775D02*
D03*
X73675Y53075D02*
D03*
X69350Y55475D02*
D03*
D29*
X46900Y53200D02*
Y53500D01*
X46950Y68850D02*
Y68925D01*
M02*
