G04 Layer_Color=25308*
%FSLAX43Y43*%
%MOMM*%
G71*
G01*
G75*
%ADD16C,1.524*%
%ADD17C,1.100*%
%ADD18C,1.651*%
%ADD19O,1.750X4.500*%
%ADD20O,4.500X1.750*%
%ADD21O,2.540X1.905*%
%ADD22C,1.800*%
%ADD23R,1.800X1.800*%
%ADD24C,2.000*%
%ADD25R,2.000X2.000*%
D16*
X65493Y57781D02*
D03*
X70493D02*
D03*
X65493Y61200D02*
D03*
X70493D02*
D03*
X65050Y46200D02*
D03*
X70050D02*
D03*
X61675Y70600D02*
D03*
Y60440D02*
D03*
X57913Y66628D02*
D03*
Y61628D02*
D03*
X31075Y52879D02*
D03*
Y42719D02*
D03*
X26800Y52879D02*
D03*
Y42719D02*
D03*
X22525Y52879D02*
D03*
Y42719D02*
D03*
X31400Y89385D02*
D03*
Y79225D02*
D03*
X35325D02*
D03*
Y89385D02*
D03*
X23550D02*
D03*
Y79225D02*
D03*
X27475D02*
D03*
Y89385D02*
D03*
X59475Y89428D02*
D03*
Y79268D02*
D03*
X63443D02*
D03*
Y89428D02*
D03*
X67452D02*
D03*
Y79268D02*
D03*
X55466Y89428D02*
D03*
Y79268D02*
D03*
X51459D02*
D03*
Y89428D02*
D03*
X47451D02*
D03*
Y79268D02*
D03*
X43392D02*
D03*
Y89428D02*
D03*
X39383D02*
D03*
Y79268D02*
D03*
X84175Y110875D02*
D03*
X81635D02*
D03*
X84175Y108335D02*
D03*
X81635D02*
D03*
X84175Y105795D02*
D03*
X81635D02*
D03*
X84175Y103255D02*
D03*
X81635D02*
D03*
X95500Y67175D02*
D03*
X90500D02*
D03*
X75570Y89486D02*
D03*
Y79326D02*
D03*
X91266Y79176D02*
D03*
Y89336D02*
D03*
X99227Y79201D02*
D03*
Y89361D02*
D03*
X83605D02*
D03*
Y79201D02*
D03*
X79698D02*
D03*
Y89361D02*
D03*
X87359Y89336D02*
D03*
Y79176D02*
D03*
X95320Y89361D02*
D03*
Y79201D02*
D03*
X71663Y89486D02*
D03*
Y79326D02*
D03*
D17*
X25295Y66825D02*
D03*
X26565D02*
D03*
X27835D02*
D03*
X29105D02*
D03*
D18*
X96420Y33214D02*
D03*
Y43374D02*
D03*
Y40834D02*
D03*
Y38294D02*
D03*
Y35754D02*
D03*
Y30674D02*
D03*
Y28134D02*
D03*
Y25594D02*
D03*
Y45914D02*
D03*
Y48454D02*
D03*
Y50994D02*
D03*
Y53534D02*
D03*
Y56074D02*
D03*
Y58614D02*
D03*
Y61154D02*
D03*
X81180Y25594D02*
D03*
Y28134D02*
D03*
Y30674D02*
D03*
Y33214D02*
D03*
Y35754D02*
D03*
Y38294D02*
D03*
Y40834D02*
D03*
Y43374D02*
D03*
Y45914D02*
D03*
Y48454D02*
D03*
Y50994D02*
D03*
Y53534D02*
D03*
Y56074D02*
D03*
Y58614D02*
D03*
Y61154D02*
D03*
X39155Y61129D02*
D03*
Y58589D02*
D03*
Y56049D02*
D03*
Y53509D02*
D03*
Y50969D02*
D03*
Y48429D02*
D03*
Y45889D02*
D03*
Y43349D02*
D03*
Y40809D02*
D03*
Y38269D02*
D03*
Y35729D02*
D03*
Y33189D02*
D03*
Y30649D02*
D03*
Y28109D02*
D03*
Y25569D02*
D03*
X54395Y61129D02*
D03*
Y58589D02*
D03*
Y56049D02*
D03*
Y53509D02*
D03*
Y50969D02*
D03*
Y48429D02*
D03*
Y45889D02*
D03*
Y25569D02*
D03*
Y28109D02*
D03*
Y30649D02*
D03*
Y33189D02*
D03*
Y35729D02*
D03*
Y38269D02*
D03*
Y40809D02*
D03*
Y43349D02*
D03*
D19*
X33225Y30750D02*
D03*
D20*
X28525Y33750D02*
D03*
Y27750D02*
D03*
D21*
X106550Y96785D02*
D03*
Y94245D02*
D03*
Y91705D02*
D03*
Y89165D02*
D03*
Y85585D02*
D03*
Y83045D02*
D03*
Y80505D02*
D03*
Y77965D02*
D03*
Y74360D02*
D03*
Y71820D02*
D03*
Y69280D02*
D03*
Y66740D02*
D03*
D22*
X107590Y63175D02*
D03*
Y60635D02*
D03*
Y58095D02*
D03*
Y55555D02*
D03*
Y53015D02*
D03*
X105050Y50475D02*
D03*
Y53015D02*
D03*
Y55555D02*
D03*
Y58095D02*
D03*
Y60635D02*
D03*
Y63175D02*
D03*
D23*
X107590Y50475D02*
D03*
D24*
X43980Y111600D02*
D03*
X46520D02*
D03*
X49060D02*
D03*
D25*
X51600D02*
D03*
M02*
