G04 Layer_Physical_Order=4*
G04 Layer_Color=10027212*
%FSLAX43Y43*%
%MOMM*%
G71*
G01*
G75*
%ADD14C,0.254*%
%ADD15C,0.500*%
%ADD16C,1.524*%
%ADD17C,1.100*%
%ADD18C,1.651*%
%ADD19O,1.750X4.500*%
%ADD20O,4.500X1.750*%
%ADD21O,2.540X1.905*%
%ADD22C,1.800*%
%ADD23R,1.800X1.800*%
%ADD24C,2.000*%
%ADD25R,2.000X2.000*%
%ADD26C,0.500*%
%ADD27C,7.000*%
%ADD28C,0.600*%
%ADD29C,1.000*%
D14*
X54395Y48429D02*
X61675Y55709D01*
Y60440D01*
X83605Y79201D02*
X85554Y81150D01*
X105905D01*
X106550Y80505D01*
X37750Y24875D02*
Y26704D01*
X39155Y28109D01*
Y45889D02*
X45650Y39394D01*
Y28600D02*
Y39394D01*
X77075Y41809D02*
X81180Y45914D01*
X77969Y25594D02*
X81180D01*
X77075Y26855D02*
Y41809D01*
X79791Y28134D02*
X81180D01*
X75853Y25633D02*
X77075Y26855D01*
X54395Y25569D02*
X54459Y25633D01*
X75853D01*
X55105Y23855D02*
X55867Y24617D01*
X76274D01*
X55316Y23347D02*
X56078Y24109D01*
X76484D01*
X76274Y24617D02*
X79791Y28134D01*
X55657Y25125D02*
X76063D01*
X54895Y24363D02*
X55657Y25125D01*
X76484Y24109D02*
X77969Y25594D01*
X40870Y23855D02*
X55105D01*
X45650Y28600D02*
X49887Y24363D01*
X54895D01*
X39278Y23347D02*
X55316D01*
X39155Y25569D02*
X40870Y23855D01*
X37750Y24875D02*
X39278Y23347D01*
X76063Y25125D02*
X80363Y29425D01*
X81750D01*
X85581Y25594D01*
X96420D01*
D15*
X109021Y47796D02*
X110750Y49525D01*
X101413Y47796D02*
X109021D01*
X100900Y48309D02*
Y56674D01*
Y48309D02*
X101413Y47796D01*
X109310Y53015D02*
X109996Y52329D01*
Y49837D02*
Y52329D01*
X108709Y48550D02*
X109996Y49837D01*
X109120Y55555D02*
X110750Y53925D01*
Y49525D02*
Y53925D01*
X101725Y48550D02*
X108709D01*
X96420Y61154D02*
X100900Y56674D01*
X107590Y55555D02*
X109120D01*
X107590Y53015D02*
X109310D01*
D16*
X75225Y61875D02*
D03*
Y56875D02*
D03*
X65050Y46200D02*
D03*
X70050D02*
D03*
X61675Y70600D02*
D03*
Y60440D02*
D03*
X57913Y66628D02*
D03*
Y61628D02*
D03*
X31075Y52879D02*
D03*
Y42719D02*
D03*
X26800Y52879D02*
D03*
Y42719D02*
D03*
X22525Y52879D02*
D03*
Y42719D02*
D03*
X31400Y89385D02*
D03*
Y79225D02*
D03*
X35325D02*
D03*
Y89385D02*
D03*
X23550D02*
D03*
Y79225D02*
D03*
X27475D02*
D03*
Y89385D02*
D03*
X59475Y89428D02*
D03*
Y79268D02*
D03*
X63443D02*
D03*
Y89428D02*
D03*
X67452D02*
D03*
Y79268D02*
D03*
X55466Y89428D02*
D03*
Y79268D02*
D03*
X51459D02*
D03*
Y89428D02*
D03*
X47451D02*
D03*
Y79268D02*
D03*
X43392D02*
D03*
Y89428D02*
D03*
X39383D02*
D03*
Y79268D02*
D03*
X84175Y110875D02*
D03*
X81635D02*
D03*
X84175Y108335D02*
D03*
X81635D02*
D03*
X84175Y105795D02*
D03*
X81635D02*
D03*
X84175Y103255D02*
D03*
X81635D02*
D03*
X95500Y67175D02*
D03*
X90500D02*
D03*
X75570Y89486D02*
D03*
Y79326D02*
D03*
X91266Y79176D02*
D03*
Y89336D02*
D03*
X99227Y79201D02*
D03*
Y89361D02*
D03*
X83605D02*
D03*
Y79201D02*
D03*
X79698D02*
D03*
Y89361D02*
D03*
X87359Y89336D02*
D03*
Y79176D02*
D03*
X95320Y89361D02*
D03*
Y79201D02*
D03*
X71663Y89486D02*
D03*
Y79326D02*
D03*
X70450Y59650D02*
D03*
X65450D02*
D03*
D17*
X25295Y66825D02*
D03*
X26565D02*
D03*
X27835D02*
D03*
X29105D02*
D03*
D18*
X96420Y33214D02*
D03*
Y43374D02*
D03*
Y40834D02*
D03*
Y38294D02*
D03*
Y35754D02*
D03*
Y30674D02*
D03*
Y28134D02*
D03*
Y25594D02*
D03*
Y45914D02*
D03*
Y48454D02*
D03*
Y50994D02*
D03*
Y53534D02*
D03*
Y56074D02*
D03*
Y58614D02*
D03*
Y61154D02*
D03*
X81180Y25594D02*
D03*
Y28134D02*
D03*
Y30674D02*
D03*
Y33214D02*
D03*
Y35754D02*
D03*
Y38294D02*
D03*
Y40834D02*
D03*
Y43374D02*
D03*
Y45914D02*
D03*
Y48454D02*
D03*
Y50994D02*
D03*
Y53534D02*
D03*
Y56074D02*
D03*
Y58614D02*
D03*
Y61154D02*
D03*
X39155Y61129D02*
D03*
Y58589D02*
D03*
Y56049D02*
D03*
Y53509D02*
D03*
Y50969D02*
D03*
Y48429D02*
D03*
Y45889D02*
D03*
Y43349D02*
D03*
Y40809D02*
D03*
Y38269D02*
D03*
Y35729D02*
D03*
Y33189D02*
D03*
Y30649D02*
D03*
Y28109D02*
D03*
Y25569D02*
D03*
X54395Y61129D02*
D03*
Y58589D02*
D03*
Y56049D02*
D03*
Y53509D02*
D03*
Y50969D02*
D03*
Y48429D02*
D03*
Y45889D02*
D03*
Y25569D02*
D03*
Y28109D02*
D03*
Y30649D02*
D03*
Y33189D02*
D03*
Y35729D02*
D03*
Y38269D02*
D03*
Y40809D02*
D03*
Y43349D02*
D03*
D19*
X33225Y30750D02*
D03*
D20*
X28525Y33750D02*
D03*
Y27750D02*
D03*
D21*
X106550Y96785D02*
D03*
Y94245D02*
D03*
Y91705D02*
D03*
Y89165D02*
D03*
Y85585D02*
D03*
Y83045D02*
D03*
Y80505D02*
D03*
Y77965D02*
D03*
Y74360D02*
D03*
Y71820D02*
D03*
Y69280D02*
D03*
Y66740D02*
D03*
D22*
X107590Y63175D02*
D03*
Y60635D02*
D03*
Y58095D02*
D03*
Y55555D02*
D03*
Y53015D02*
D03*
X105050Y50475D02*
D03*
Y53015D02*
D03*
Y55555D02*
D03*
Y58095D02*
D03*
Y60635D02*
D03*
Y63175D02*
D03*
D23*
X107590Y50475D02*
D03*
D24*
X44150Y111270D02*
D03*
Y108730D02*
D03*
Y106190D02*
D03*
D25*
Y103650D02*
D03*
D26*
X65925Y67625D02*
D03*
X62750Y54350D02*
D03*
X72000Y73325D02*
D03*
X72479Y51753D02*
D03*
X62500Y49850D02*
D03*
X47451Y53726D02*
D03*
X51725Y26700D02*
D03*
X36756Y42719D02*
D03*
X101725Y48550D02*
D03*
D27*
X110000Y115000D02*
D03*
X20000D02*
D03*
Y25000D02*
D03*
X110000D02*
D03*
D28*
X42565Y91810D02*
D03*
X66725Y91575D02*
D03*
X58589Y91664D02*
D03*
X50625Y91600D02*
D03*
X82833Y91471D02*
D03*
X90483Y91421D02*
D03*
X98458Y91446D02*
D03*
X74807Y91557D02*
D03*
X72850Y55775D02*
D03*
X73675Y53075D02*
D03*
X69350Y55475D02*
D03*
D29*
X47451Y53726D02*
Y79268D01*
X31075Y42719D02*
X36756D01*
X26800D02*
X31075D01*
X22525D02*
X26800D01*
X49500Y87469D02*
X51459Y89428D01*
X49500Y28925D02*
Y87469D01*
Y28925D02*
X51725Y26700D01*
M02*
