G04 Layer_Color=2752767*
%FSLAX43Y43*%
%MOMM*%
G71*
G01*
G75*
%ADD56C,0.127*%
%ADD57C,0.169*%
%ADD58C,0.102*%
D56*
X74717Y61367D02*
Y62383D01*
X75733D01*
Y61367D01*
X74717D01*
Y56367D02*
Y57383D01*
X75733D01*
Y56367D01*
X74717D01*
X64542Y45692D02*
Y46708D01*
X65558D01*
Y45692D01*
X64542D01*
X69542D02*
Y46708D01*
X70558D01*
Y45692D01*
X69542D01*
X61167Y70092D02*
Y71108D01*
X62183D01*
Y70092D01*
X61167D01*
Y59932D02*
Y60948D01*
X62183D01*
Y59932D01*
X61167D01*
X57405Y66120D02*
Y67136D01*
X58421D01*
Y66120D01*
X57405D01*
Y61120D02*
Y62136D01*
X58421D01*
Y61120D01*
X57405D01*
X30567Y52371D02*
Y53387D01*
X31583D01*
Y52371D01*
X30567D01*
Y42211D02*
Y43227D01*
X31583D01*
Y42211D01*
X30567D01*
X26292Y52371D02*
Y53387D01*
X27308D01*
Y52371D01*
X26292D01*
Y42211D02*
Y43227D01*
X27308D01*
Y42211D01*
X26292D01*
X22017Y52371D02*
Y53387D01*
X23033D01*
Y52371D01*
X22017D01*
Y42211D02*
Y43227D01*
X23033D01*
Y42211D01*
X22017D01*
X30892Y88877D02*
Y89893D01*
X31908D01*
Y88877D01*
X30892D01*
Y78717D02*
Y79733D01*
X31908D01*
Y78717D01*
X30892D01*
X34817D02*
Y79733D01*
X35833D01*
Y78717D01*
X34817D01*
Y88877D02*
Y89893D01*
X35833D01*
Y88877D01*
X34817D01*
X23042D02*
Y89893D01*
X24058D01*
Y88877D01*
X23042D01*
Y78717D02*
Y79733D01*
X24058D01*
Y78717D01*
X23042D01*
X26967D02*
Y79733D01*
X27983D01*
Y78717D01*
X26967D01*
Y88877D02*
Y89893D01*
X27983D01*
Y88877D01*
X26967D01*
X58967Y88920D02*
Y89936D01*
X59983D01*
Y88920D01*
X58967D01*
Y78760D02*
Y79776D01*
X59983D01*
Y78760D01*
X58967D01*
X62935D02*
Y79776D01*
X63951D01*
Y78760D01*
X62935D01*
Y88920D02*
Y89936D01*
X63951D01*
Y88920D01*
X62935D01*
X66944D02*
Y89936D01*
X67960D01*
Y88920D01*
X66944D01*
Y78760D02*
Y79776D01*
X67960D01*
Y78760D01*
X66944D01*
X54958Y88920D02*
Y89936D01*
X55974D01*
Y88920D01*
X54958D01*
Y78760D02*
Y79776D01*
X55974D01*
Y78760D01*
X54958D01*
X50951D02*
Y79776D01*
X51967D01*
Y78760D01*
X50951D01*
Y88920D02*
Y89936D01*
X51967D01*
Y88920D01*
X50951D01*
X46943D02*
Y89936D01*
X47959D01*
Y88920D01*
X46943D01*
Y78760D02*
Y79776D01*
X47959D01*
Y78760D01*
X46943D01*
X42884D02*
Y79776D01*
X43900D01*
Y78760D01*
X42884D01*
Y88920D02*
Y89936D01*
X43900D01*
Y88920D01*
X42884D01*
X38875D02*
Y89936D01*
X39891D01*
Y88920D01*
X38875D01*
Y78760D02*
Y79776D01*
X39891D01*
Y78760D01*
X38875D01*
X84175Y110367D02*
X83667Y111383D01*
X84683D01*
X84175Y110367D01*
X81635D02*
X81127Y111383D01*
X82143D01*
X81635Y110367D01*
X84175Y107827D02*
X83667Y108843D01*
X84683D01*
X84175Y107827D01*
X81635D02*
X81127Y108843D01*
X82143D01*
X81635Y107827D01*
X84175Y105287D02*
X83667Y106303D01*
X84683D01*
X84175Y105287D01*
X81635D02*
X81127Y106303D01*
X82143D01*
X81635Y105287D01*
X84175Y102747D02*
X83667Y103763D01*
X84683D01*
X84175Y102747D01*
X81635D02*
X81127Y103763D01*
X82143D01*
X81635Y102747D01*
X94992Y66667D02*
Y67683D01*
X96008D01*
Y66667D01*
X94992D01*
X89992D02*
Y67683D01*
X91008D01*
Y66667D01*
X89992D01*
X96420Y32706D02*
X96674Y32960D01*
X96928D01*
X96674Y33214D01*
X96928Y33468D01*
X96674D01*
X96420Y33722D01*
X96166Y33468D01*
X95912D01*
X96166Y33214D01*
X95912Y32960D01*
X96166D01*
X96420Y32706D01*
X75062Y88978D02*
Y89994D01*
X76078D01*
Y88978D01*
X75062D01*
Y78818D02*
Y79834D01*
X76078D01*
Y78818D01*
X75062D01*
X90758Y78668D02*
Y79684D01*
X91774D01*
Y78668D01*
X90758D01*
Y88828D02*
Y89844D01*
X91774D01*
Y88828D01*
X90758D01*
X98719Y78693D02*
Y79709D01*
X99735D01*
Y78693D01*
X98719D01*
Y88853D02*
Y89869D01*
X99735D01*
Y88853D01*
X98719D01*
X96420Y42866D02*
X96674Y43120D01*
X96928D01*
X96674Y43374D01*
X96928Y43628D01*
X96674D01*
X96420Y43882D01*
X96166Y43628D01*
X95912D01*
X96166Y43374D01*
X95912Y43120D01*
X96166D01*
X96420Y42866D01*
Y40326D02*
X96674Y40580D01*
X96928D01*
X96674Y40834D01*
X96928Y41088D01*
X96674D01*
X96420Y41342D01*
X96166Y41088D01*
X95912D01*
X96166Y40834D01*
X95912Y40580D01*
X96166D01*
X96420Y40326D01*
Y37786D02*
X96674Y38040D01*
X96928D01*
X96674Y38294D01*
X96928Y38548D01*
X96674D01*
X96420Y38802D01*
X96166Y38548D01*
X95912D01*
X96166Y38294D01*
X95912Y38040D01*
X96166D01*
X96420Y37786D01*
Y35246D02*
X96674Y35500D01*
X96928D01*
X96674Y35754D01*
X96928Y36008D01*
X96674D01*
X96420Y36262D01*
X96166Y36008D01*
X95912D01*
X96166Y35754D01*
X95912Y35500D01*
X96166D01*
X96420Y35246D01*
Y30166D02*
X96674Y30420D01*
X96928D01*
X96674Y30674D01*
X96928Y30928D01*
X96674D01*
X96420Y31182D01*
X96166Y30928D01*
X95912D01*
X96166Y30674D01*
X95912Y30420D01*
X96166D01*
X96420Y30166D01*
Y27626D02*
X96674Y27880D01*
X96928D01*
X96674Y28134D01*
X96928Y28388D01*
X96674D01*
X96420Y28642D01*
X96166Y28388D01*
X95912D01*
X96166Y28134D01*
X95912Y27880D01*
X96166D01*
X96420Y27626D01*
Y25086D02*
X96674Y25340D01*
X96928D01*
X96674Y25594D01*
X96928Y25848D01*
X96674D01*
X96420Y26102D01*
X96166Y25848D01*
X95912D01*
X96166Y25594D01*
X95912Y25340D01*
X96166D01*
X96420Y25086D01*
Y45406D02*
X96674Y45660D01*
X96928D01*
X96674Y45914D01*
X96928Y46168D01*
X96674D01*
X96420Y46422D01*
X96166Y46168D01*
X95912D01*
X96166Y45914D01*
X95912Y45660D01*
X96166D01*
X96420Y45406D01*
Y47946D02*
X96674Y48200D01*
X96928D01*
X96674Y48454D01*
X96928Y48708D01*
X96674D01*
X96420Y48962D01*
X96166Y48708D01*
X95912D01*
X96166Y48454D01*
X95912Y48200D01*
X96166D01*
X96420Y47946D01*
Y50486D02*
X96674Y50740D01*
X96928D01*
X96674Y50994D01*
X96928Y51248D01*
X96674D01*
X96420Y51502D01*
X96166Y51248D01*
X95912D01*
X96166Y50994D01*
X95912Y50740D01*
X96166D01*
X96420Y50486D01*
Y53026D02*
X96674Y53280D01*
X96928D01*
X96674Y53534D01*
X96928Y53788D01*
X96674D01*
X96420Y54042D01*
X96166Y53788D01*
X95912D01*
X96166Y53534D01*
X95912Y53280D01*
X96166D01*
X96420Y53026D01*
Y55566D02*
X96674Y55820D01*
X96928D01*
X96674Y56074D01*
X96928Y56328D01*
X96674D01*
X96420Y56582D01*
X96166Y56328D01*
X95912D01*
X96166Y56074D01*
X95912Y55820D01*
X96166D01*
X96420Y55566D01*
Y58106D02*
X96674Y58360D01*
X96928D01*
X96674Y58614D01*
X96928Y58868D01*
X96674D01*
X96420Y59122D01*
X96166Y58868D01*
X95912D01*
X96166Y58614D01*
X95912Y58360D01*
X96166D01*
X96420Y58106D01*
Y60646D02*
X96674Y60900D01*
X96928D01*
X96674Y61154D01*
X96928Y61408D01*
X96674D01*
X96420Y61662D01*
X96166Y61408D01*
X95912D01*
X96166Y61154D01*
X95912Y60900D01*
X96166D01*
X96420Y60646D01*
X81180Y25086D02*
X81434Y25340D01*
X81688D01*
X81434Y25594D01*
X81688Y25848D01*
X81434D01*
X81180Y26102D01*
X80926Y25848D01*
X80672D01*
X80926Y25594D01*
X80672Y25340D01*
X80926D01*
X81180Y25086D01*
Y27626D02*
X81434Y27880D01*
X81688D01*
X81434Y28134D01*
X81688Y28388D01*
X81434D01*
X81180Y28642D01*
X80926Y28388D01*
X80672D01*
X80926Y28134D01*
X80672Y27880D01*
X80926D01*
X81180Y27626D01*
Y30166D02*
X81434Y30420D01*
X81688D01*
X81434Y30674D01*
X81688Y30928D01*
X81434D01*
X81180Y31182D01*
X80926Y30928D01*
X80672D01*
X80926Y30674D01*
X80672Y30420D01*
X80926D01*
X81180Y30166D01*
Y32706D02*
X81434Y32960D01*
X81688D01*
X81434Y33214D01*
X81688Y33468D01*
X81434D01*
X81180Y33722D01*
X80926Y33468D01*
X80672D01*
X80926Y33214D01*
X80672Y32960D01*
X80926D01*
X81180Y32706D01*
Y35246D02*
X81434Y35500D01*
X81688D01*
X81434Y35754D01*
X81688Y36008D01*
X81434D01*
X81180Y36262D01*
X80926Y36008D01*
X80672D01*
X80926Y35754D01*
X80672Y35500D01*
X80926D01*
X81180Y35246D01*
Y37786D02*
X81434Y38040D01*
X81688D01*
X81434Y38294D01*
X81688Y38548D01*
X81434D01*
X81180Y38802D01*
X80926Y38548D01*
X80672D01*
X80926Y38294D01*
X80672Y38040D01*
X80926D01*
X81180Y37786D01*
Y40326D02*
X81434Y40580D01*
X81688D01*
X81434Y40834D01*
X81688Y41088D01*
X81434D01*
X81180Y41342D01*
X80926Y41088D01*
X80672D01*
X80926Y40834D01*
X80672Y40580D01*
X80926D01*
X81180Y40326D01*
Y42866D02*
X81434Y43120D01*
X81688D01*
X81434Y43374D01*
X81688Y43628D01*
X81434D01*
X81180Y43882D01*
X80926Y43628D01*
X80672D01*
X80926Y43374D01*
X80672Y43120D01*
X80926D01*
X81180Y42866D01*
Y45406D02*
X81434Y45660D01*
X81688D01*
X81434Y45914D01*
X81688Y46168D01*
X81434D01*
X81180Y46422D01*
X80926Y46168D01*
X80672D01*
X80926Y45914D01*
X80672Y45660D01*
X80926D01*
X81180Y45406D01*
Y47946D02*
X81434Y48200D01*
X81688D01*
X81434Y48454D01*
X81688Y48708D01*
X81434D01*
X81180Y48962D01*
X80926Y48708D01*
X80672D01*
X80926Y48454D01*
X80672Y48200D01*
X80926D01*
X81180Y47946D01*
Y50486D02*
X81434Y50740D01*
X81688D01*
X81434Y50994D01*
X81688Y51248D01*
X81434D01*
X81180Y51502D01*
X80926Y51248D01*
X80672D01*
X80926Y50994D01*
X80672Y50740D01*
X80926D01*
X81180Y50486D01*
Y53026D02*
X81434Y53280D01*
X81688D01*
X81434Y53534D01*
X81688Y53788D01*
X81434D01*
X81180Y54042D01*
X80926Y53788D01*
X80672D01*
X80926Y53534D01*
X80672Y53280D01*
X80926D01*
X81180Y53026D01*
Y55566D02*
X81434Y55820D01*
X81688D01*
X81434Y56074D01*
X81688Y56328D01*
X81434D01*
X81180Y56582D01*
X80926Y56328D01*
X80672D01*
X80926Y56074D01*
X80672Y55820D01*
X80926D01*
X81180Y55566D01*
Y58106D02*
X81434Y58360D01*
X81688D01*
X81434Y58614D01*
X81688Y58868D01*
X81434D01*
X81180Y59122D01*
X80926Y58868D01*
X80672D01*
X80926Y58614D01*
X80672Y58360D01*
X80926D01*
X81180Y58106D01*
Y60646D02*
X81434Y60900D01*
X81688D01*
X81434Y61154D01*
X81688Y61408D01*
X81434D01*
X81180Y61662D01*
X80926Y61408D01*
X80672D01*
X80926Y61154D01*
X80672Y60900D01*
X80926D01*
X81180Y60646D01*
X32717Y30242D02*
X32971Y30750D01*
X32717Y31258D01*
X33225Y31004D01*
X33733Y31258D01*
X33479Y30750D01*
X33733Y30242D01*
X33225Y30496D01*
X32717Y30242D01*
X28017Y33242D02*
X28271Y33750D01*
X28017Y34258D01*
X28525Y34004D01*
X29033Y34258D01*
X28779Y33750D01*
X29033Y33242D01*
X28525Y33496D01*
X28017Y33242D01*
Y27242D02*
X28271Y27750D01*
X28017Y28258D01*
X28525Y28004D01*
X29033Y28258D01*
X28779Y27750D01*
X29033Y27242D01*
X28525Y27496D01*
X28017Y27242D01*
X83097Y88853D02*
Y89869D01*
X84113D01*
Y88853D01*
X83097D01*
Y78693D02*
Y79709D01*
X84113D01*
Y78693D01*
X83097D01*
X39155Y60621D02*
X39409Y60875D01*
X39663D01*
X39409Y61129D01*
X39663Y61383D01*
X39409D01*
X39155Y61637D01*
X38901Y61383D01*
X38647D01*
X38901Y61129D01*
X38647Y60875D01*
X38901D01*
X39155Y60621D01*
Y58081D02*
X39409Y58335D01*
X39663D01*
X39409Y58589D01*
X39663Y58843D01*
X39409D01*
X39155Y59097D01*
X38901Y58843D01*
X38647D01*
X38901Y58589D01*
X38647Y58335D01*
X38901D01*
X39155Y58081D01*
Y55541D02*
X39409Y55795D01*
X39663D01*
X39409Y56049D01*
X39663Y56303D01*
X39409D01*
X39155Y56557D01*
X38901Y56303D01*
X38647D01*
X38901Y56049D01*
X38647Y55795D01*
X38901D01*
X39155Y55541D01*
Y53001D02*
X39409Y53255D01*
X39663D01*
X39409Y53509D01*
X39663Y53763D01*
X39409D01*
X39155Y54017D01*
X38901Y53763D01*
X38647D01*
X38901Y53509D01*
X38647Y53255D01*
X38901D01*
X39155Y53001D01*
Y50461D02*
X39409Y50715D01*
X39663D01*
X39409Y50969D01*
X39663Y51223D01*
X39409D01*
X39155Y51477D01*
X38901Y51223D01*
X38647D01*
X38901Y50969D01*
X38647Y50715D01*
X38901D01*
X39155Y50461D01*
Y47921D02*
X39409Y48175D01*
X39663D01*
X39409Y48429D01*
X39663Y48683D01*
X39409D01*
X39155Y48937D01*
X38901Y48683D01*
X38647D01*
X38901Y48429D01*
X38647Y48175D01*
X38901D01*
X39155Y47921D01*
Y45381D02*
X39409Y45635D01*
X39663D01*
X39409Y45889D01*
X39663Y46143D01*
X39409D01*
X39155Y46397D01*
X38901Y46143D01*
X38647D01*
X38901Y45889D01*
X38647Y45635D01*
X38901D01*
X39155Y45381D01*
Y42841D02*
X39409Y43095D01*
X39663D01*
X39409Y43349D01*
X39663Y43603D01*
X39409D01*
X39155Y43857D01*
X38901Y43603D01*
X38647D01*
X38901Y43349D01*
X38647Y43095D01*
X38901D01*
X39155Y42841D01*
Y40301D02*
X39409Y40555D01*
X39663D01*
X39409Y40809D01*
X39663Y41063D01*
X39409D01*
X39155Y41317D01*
X38901Y41063D01*
X38647D01*
X38901Y40809D01*
X38647Y40555D01*
X38901D01*
X39155Y40301D01*
Y37761D02*
X39409Y38015D01*
X39663D01*
X39409Y38269D01*
X39663Y38523D01*
X39409D01*
X39155Y38777D01*
X38901Y38523D01*
X38647D01*
X38901Y38269D01*
X38647Y38015D01*
X38901D01*
X39155Y37761D01*
Y35221D02*
X39409Y35475D01*
X39663D01*
X39409Y35729D01*
X39663Y35983D01*
X39409D01*
X39155Y36237D01*
X38901Y35983D01*
X38647D01*
X38901Y35729D01*
X38647Y35475D01*
X38901D01*
X39155Y35221D01*
Y32681D02*
X39409Y32935D01*
X39663D01*
X39409Y33189D01*
X39663Y33443D01*
X39409D01*
X39155Y33697D01*
X38901Y33443D01*
X38647D01*
X38901Y33189D01*
X38647Y32935D01*
X38901D01*
X39155Y32681D01*
Y30141D02*
X39409Y30395D01*
X39663D01*
X39409Y30649D01*
X39663Y30903D01*
X39409D01*
X39155Y31157D01*
X38901Y30903D01*
X38647D01*
X38901Y30649D01*
X38647Y30395D01*
X38901D01*
X39155Y30141D01*
Y27601D02*
X39409Y27855D01*
X39663D01*
X39409Y28109D01*
X39663Y28363D01*
X39409D01*
X39155Y28617D01*
X38901Y28363D01*
X38647D01*
X38901Y28109D01*
X38647Y27855D01*
X38901D01*
X39155Y27601D01*
Y25061D02*
X39409Y25315D01*
X39663D01*
X39409Y25569D01*
X39663Y25823D01*
X39409D01*
X39155Y26077D01*
X38901Y25823D01*
X38647D01*
X38901Y25569D01*
X38647Y25315D01*
X38901D01*
X39155Y25061D01*
X54395Y60621D02*
X54649Y60875D01*
X54903D01*
X54649Y61129D01*
X54903Y61383D01*
X54649D01*
X54395Y61637D01*
X54141Y61383D01*
X53887D01*
X54141Y61129D01*
X53887Y60875D01*
X54141D01*
X54395Y60621D01*
Y58081D02*
X54649Y58335D01*
X54903D01*
X54649Y58589D01*
X54903Y58843D01*
X54649D01*
X54395Y59097D01*
X54141Y58843D01*
X53887D01*
X54141Y58589D01*
X53887Y58335D01*
X54141D01*
X54395Y58081D01*
Y55541D02*
X54649Y55795D01*
X54903D01*
X54649Y56049D01*
X54903Y56303D01*
X54649D01*
X54395Y56557D01*
X54141Y56303D01*
X53887D01*
X54141Y56049D01*
X53887Y55795D01*
X54141D01*
X54395Y55541D01*
Y53001D02*
X54649Y53255D01*
X54903D01*
X54649Y53509D01*
X54903Y53763D01*
X54649D01*
X54395Y54017D01*
X54141Y53763D01*
X53887D01*
X54141Y53509D01*
X53887Y53255D01*
X54141D01*
X54395Y53001D01*
Y50461D02*
X54649Y50715D01*
X54903D01*
X54649Y50969D01*
X54903Y51223D01*
X54649D01*
X54395Y51477D01*
X54141Y51223D01*
X53887D01*
X54141Y50969D01*
X53887Y50715D01*
X54141D01*
X54395Y50461D01*
Y47921D02*
X54649Y48175D01*
X54903D01*
X54649Y48429D01*
X54903Y48683D01*
X54649D01*
X54395Y48937D01*
X54141Y48683D01*
X53887D01*
X54141Y48429D01*
X53887Y48175D01*
X54141D01*
X54395Y47921D01*
Y45381D02*
X54649Y45635D01*
X54903D01*
X54649Y45889D01*
X54903Y46143D01*
X54649D01*
X54395Y46397D01*
X54141Y46143D01*
X53887D01*
X54141Y45889D01*
X53887Y45635D01*
X54141D01*
X54395Y45381D01*
Y25061D02*
X54649Y25315D01*
X54903D01*
X54649Y25569D01*
X54903Y25823D01*
X54649D01*
X54395Y26077D01*
X54141Y25823D01*
X53887D01*
X54141Y25569D01*
X53887Y25315D01*
X54141D01*
X54395Y25061D01*
Y27601D02*
X54649Y27855D01*
X54903D01*
X54649Y28109D01*
X54903Y28363D01*
X54649D01*
X54395Y28617D01*
X54141Y28363D01*
X53887D01*
X54141Y28109D01*
X53887Y27855D01*
X54141D01*
X54395Y27601D01*
Y30141D02*
X54649Y30395D01*
X54903D01*
X54649Y30649D01*
X54903Y30903D01*
X54649D01*
X54395Y31157D01*
X54141Y30903D01*
X53887D01*
X54141Y30649D01*
X53887Y30395D01*
X54141D01*
X54395Y30141D01*
Y32681D02*
X54649Y32935D01*
X54903D01*
X54649Y33189D01*
X54903Y33443D01*
X54649D01*
X54395Y33697D01*
X54141Y33443D01*
X53887D01*
X54141Y33189D01*
X53887Y32935D01*
X54141D01*
X54395Y32681D01*
Y35221D02*
X54649Y35475D01*
X54903D01*
X54649Y35729D01*
X54903Y35983D01*
X54649D01*
X54395Y36237D01*
X54141Y35983D01*
X53887D01*
X54141Y35729D01*
X53887Y35475D01*
X54141D01*
X54395Y35221D01*
Y37761D02*
X54649Y38015D01*
X54903D01*
X54649Y38269D01*
X54903Y38523D01*
X54649D01*
X54395Y38777D01*
X54141Y38523D01*
X53887D01*
X54141Y38269D01*
X53887Y38015D01*
X54141D01*
X54395Y37761D01*
Y40301D02*
X54649Y40555D01*
X54903D01*
X54649Y40809D01*
X54903Y41063D01*
X54649D01*
X54395Y41317D01*
X54141Y41063D01*
X53887D01*
X54141Y40809D01*
X53887Y40555D01*
X54141D01*
X54395Y40301D01*
Y42841D02*
X54649Y43095D01*
X54903D01*
X54649Y43349D01*
X54903Y43603D01*
X54649D01*
X54395Y43857D01*
X54141Y43603D01*
X53887D01*
X54141Y43349D01*
X53887Y43095D01*
X54141D01*
X54395Y42841D01*
X79190Y78693D02*
Y79709D01*
X80206D01*
Y78693D01*
X79190D01*
Y88853D02*
Y89869D01*
X80206D01*
Y88853D01*
X79190D01*
X86851Y88828D02*
Y89844D01*
X87867D01*
Y88828D01*
X86851D01*
Y78668D02*
Y79684D01*
X87867D01*
Y78668D01*
X86851D01*
X94812Y88853D02*
Y89869D01*
X95828D01*
Y88853D01*
X94812D01*
Y78693D02*
Y79709D01*
X95828D01*
Y78693D01*
X94812D01*
X71155Y88978D02*
Y89994D01*
X72171D01*
Y88978D01*
X71155D01*
Y78818D02*
Y79834D01*
X72171D01*
Y78818D01*
X71155D01*
X106296Y96531D02*
Y96277D01*
X106804D01*
Y96531D01*
X107058D01*
Y97039D01*
X106804D01*
Y97293D01*
X106296D01*
Y97039D01*
X106042D01*
Y96531D01*
X106296D01*
Y93991D02*
Y93737D01*
X106804D01*
Y93991D01*
X107058D01*
Y94499D01*
X106804D01*
Y94753D01*
X106296D01*
Y94499D01*
X106042D01*
Y93991D01*
X106296D01*
Y91451D02*
Y91197D01*
X106804D01*
Y91451D01*
X107058D01*
Y91959D01*
X106804D01*
Y92213D01*
X106296D01*
Y91959D01*
X106042D01*
Y91451D01*
X106296D01*
Y88911D02*
Y88657D01*
X106804D01*
Y88911D01*
X107058D01*
Y89419D01*
X106804D01*
Y89673D01*
X106296D01*
Y89419D01*
X106042D01*
Y88911D01*
X106296D01*
Y85331D02*
Y85077D01*
X106804D01*
Y85331D01*
X107058D01*
Y85839D01*
X106804D01*
Y86093D01*
X106296D01*
Y85839D01*
X106042D01*
Y85331D01*
X106296D01*
Y82791D02*
Y82537D01*
X106804D01*
Y82791D01*
X107058D01*
Y83299D01*
X106804D01*
Y83553D01*
X106296D01*
Y83299D01*
X106042D01*
Y82791D01*
X106296D01*
Y80251D02*
Y79997D01*
X106804D01*
Y80251D01*
X107058D01*
Y80759D01*
X106804D01*
Y81013D01*
X106296D01*
Y80759D01*
X106042D01*
Y80251D01*
X106296D01*
Y77711D02*
Y77457D01*
X106804D01*
Y77711D01*
X107058D01*
Y78219D01*
X106804D01*
Y78473D01*
X106296D01*
Y78219D01*
X106042D01*
Y77711D01*
X106296D01*
Y74106D02*
Y73852D01*
X106804D01*
Y74106D01*
X107058D01*
Y74614D01*
X106804D01*
Y74868D01*
X106296D01*
Y74614D01*
X106042D01*
Y74106D01*
X106296D01*
Y71566D02*
Y71312D01*
X106804D01*
Y71566D01*
X107058D01*
Y72074D01*
X106804D01*
Y72328D01*
X106296D01*
Y72074D01*
X106042D01*
Y71566D01*
X106296D01*
Y69026D02*
Y68772D01*
X106804D01*
Y69026D01*
X107058D01*
Y69534D01*
X106804D01*
Y69788D01*
X106296D01*
Y69534D01*
X106042D01*
Y69026D01*
X106296D01*
Y66486D02*
Y66232D01*
X106804D01*
Y66486D01*
X107058D01*
Y66994D01*
X106804D01*
Y67248D01*
X106296D01*
Y66994D01*
X106042D01*
Y66486D01*
X106296D01*
X107336Y62921D02*
Y62667D01*
X107844D01*
Y62921D01*
X108098D01*
Y63429D01*
X107844D01*
Y63683D01*
X107336D01*
Y63429D01*
X107082D01*
Y62921D01*
X107336D01*
Y60381D02*
Y60127D01*
X107844D01*
Y60381D01*
X108098D01*
Y60889D01*
X107844D01*
Y61143D01*
X107336D01*
Y60889D01*
X107082D01*
Y60381D01*
X107336D01*
Y57841D02*
Y57587D01*
X107844D01*
Y57841D01*
X108098D01*
Y58349D01*
X107844D01*
Y58603D01*
X107336D01*
Y58349D01*
X107082D01*
Y57841D01*
X107336D01*
Y55301D02*
Y55047D01*
X107844D01*
Y55301D01*
X108098D01*
Y55809D01*
X107844D01*
Y56063D01*
X107336D01*
Y55809D01*
X107082D01*
Y55301D01*
X107336D01*
Y52761D02*
Y52507D01*
X107844D01*
Y52761D01*
X108098D01*
Y53269D01*
X107844D01*
Y53523D01*
X107336D01*
Y53269D01*
X107082D01*
Y52761D01*
X107336D01*
X104796Y50221D02*
Y49967D01*
X105304D01*
Y50221D01*
X105558D01*
Y50729D01*
X105304D01*
Y50983D01*
X104796D01*
Y50729D01*
X104542D01*
Y50221D01*
X104796D01*
X107336D02*
Y49967D01*
X107844D01*
Y50221D01*
X108098D01*
Y50729D01*
X107844D01*
Y50983D01*
X107336D01*
Y50729D01*
X107082D01*
Y50221D01*
X107336D01*
X104796Y52761D02*
Y52507D01*
X105304D01*
Y52761D01*
X105558D01*
Y53269D01*
X105304D01*
Y53523D01*
X104796D01*
Y53269D01*
X104542D01*
Y52761D01*
X104796D01*
Y55301D02*
Y55047D01*
X105304D01*
Y55301D01*
X105558D01*
Y55809D01*
X105304D01*
Y56063D01*
X104796D01*
Y55809D01*
X104542D01*
Y55301D01*
X104796D01*
Y57841D02*
Y57587D01*
X105304D01*
Y57841D01*
X105558D01*
Y58349D01*
X105304D01*
Y58603D01*
X104796D01*
Y58349D01*
X104542D01*
Y57841D01*
X104796D01*
Y60381D02*
Y60127D01*
X105304D01*
Y60381D01*
X105558D01*
Y60889D01*
X105304D01*
Y61143D01*
X104796D01*
Y60889D01*
X104542D01*
Y60381D01*
X104796D01*
Y62921D02*
Y62667D01*
X105304D01*
Y62921D01*
X105558D01*
Y63429D01*
X105304D01*
Y63683D01*
X104796D01*
Y63429D01*
X104542D01*
Y62921D01*
X104796D01*
X43642Y110762D02*
X43896D01*
X44150Y111016D01*
X44404Y110762D01*
X44658D01*
Y111016D01*
X44404Y111270D01*
X44658Y111524D01*
Y111778D01*
X44404D01*
X44150Y111524D01*
X43896Y111778D01*
X43642D01*
Y111524D01*
X43896Y111270D01*
X43642Y111016D01*
Y110762D01*
Y108222D02*
X43896D01*
X44150Y108476D01*
X44404Y108222D01*
X44658D01*
Y108476D01*
X44404Y108730D01*
X44658Y108984D01*
Y109238D01*
X44404D01*
X44150Y108984D01*
X43896Y109238D01*
X43642D01*
Y108984D01*
X43896Y108730D01*
X43642Y108476D01*
Y108222D01*
Y105682D02*
X43896D01*
X44150Y105936D01*
X44404Y105682D01*
X44658D01*
Y105936D01*
X44404Y106190D01*
X44658Y106444D01*
Y106698D01*
X44404D01*
X44150Y106444D01*
X43896Y106698D01*
X43642D01*
Y106444D01*
X43896Y106190D01*
X43642Y105936D01*
Y105682D01*
Y103142D02*
X43896D01*
X44150Y103396D01*
X44404Y103142D01*
X44658D01*
Y103396D01*
X44404Y103650D01*
X44658Y103904D01*
Y104158D01*
X44404D01*
X44150Y103904D01*
X43896Y104158D01*
X43642D01*
Y103904D01*
X43896Y103650D01*
X43642Y103396D01*
Y103142D01*
X69942Y59142D02*
Y60158D01*
X70958D01*
Y59142D01*
X69942D01*
X64942D02*
Y60158D01*
X65958D01*
Y59142D01*
X64942D01*
X65417Y67625D02*
X65925Y68133D01*
X66433Y67625D01*
X65925Y67117D01*
X65417Y67625D01*
X62242Y54350D02*
X62750Y54858D01*
X63258Y54350D01*
X62750Y53842D01*
X62242Y54350D01*
X71492Y73325D02*
X72000Y73833D01*
X72508Y73325D01*
X72000Y72817D01*
X71492Y73325D01*
X71971Y51753D02*
X72479Y52261D01*
X72987Y51753D01*
X72479Y51245D01*
X71971Y51753D01*
X61992Y49850D02*
X62500Y50358D01*
X63008Y49850D01*
X62500Y49342D01*
X61992Y49850D01*
X46943Y53726D02*
X47451Y54234D01*
X47959Y53726D01*
X47451Y53218D01*
X46943Y53726D01*
X51217Y26700D02*
X51725Y27208D01*
X52233Y26700D01*
X51725Y26192D01*
X51217Y26700D01*
X36248Y42719D02*
X36756Y43227D01*
X37264Y42719D01*
X36756Y42211D01*
X36248Y42719D01*
X101217Y48550D02*
X101725Y49058D01*
X102233Y48550D01*
X101725Y48042D01*
X101217Y48550D01*
X109492Y114492D02*
Y115508D01*
X110508D01*
Y114492D01*
X109492D01*
X109695Y114695D02*
Y115305D01*
X110305D01*
Y114695D01*
X109695D01*
X19492Y114492D02*
Y115508D01*
X20508D01*
Y114492D01*
X19492D01*
X19695Y114695D02*
Y115305D01*
X20305D01*
Y114695D01*
X19695D01*
X19492Y24492D02*
Y25508D01*
X20508D01*
Y24492D01*
X19492D01*
X19695Y24695D02*
Y25305D01*
X20305D01*
Y24695D01*
X19695D01*
X109492Y24492D02*
Y25508D01*
X110508D01*
Y24492D01*
X109492D01*
X109695Y24695D02*
Y25305D01*
X110305D01*
Y24695D01*
X109695D01*
D57*
X25803Y66825D02*
G03*
X25803Y66825I-508J0D01*
G01*
X27073D02*
G03*
X27073Y66825I-508J0D01*
G01*
X28343D02*
G03*
X28343Y66825I-508J0D01*
G01*
X29613D02*
G03*
X29613Y66825I-508J0D01*
G01*
X43073Y91810D02*
G03*
X43073Y91810I-508J0D01*
G01*
X67233Y91575D02*
G03*
X67233Y91575I-508J0D01*
G01*
X59097Y91664D02*
G03*
X59097Y91664I-508J0D01*
G01*
X51133Y91600D02*
G03*
X51133Y91600I-508J0D01*
G01*
X83341Y91471D02*
G03*
X83341Y91471I-508J0D01*
G01*
X90991Y91421D02*
G03*
X90991Y91421I-508J0D01*
G01*
X98966Y91446D02*
G03*
X98966Y91446I-508J0D01*
G01*
X75315Y91557D02*
G03*
X75315Y91557I-508J0D01*
G01*
X73358Y55775D02*
G03*
X73358Y55775I-508J0D01*
G01*
X74183Y53075D02*
G03*
X74183Y53075I-508J0D01*
G01*
X69858Y55475D02*
G03*
X69858Y55475I-508J0D01*
G01*
D58*
X42870Y91810D02*
G03*
X42870Y91810I-305J0D01*
G01*
X67030Y91575D02*
G03*
X67030Y91575I-305J0D01*
G01*
X58894Y91664D02*
G03*
X58894Y91664I-305J0D01*
G01*
X50930Y91600D02*
G03*
X50930Y91600I-305J0D01*
G01*
X83137Y91471D02*
G03*
X83137Y91471I-305J0D01*
G01*
X90787Y91421D02*
G03*
X90787Y91421I-305J0D01*
G01*
X98762Y91446D02*
G03*
X98762Y91446I-305J0D01*
G01*
X75112Y91557D02*
G03*
X75112Y91557I-305J0D01*
G01*
X73155Y55775D02*
G03*
X73155Y55775I-305J0D01*
G01*
X73980Y53075D02*
G03*
X73980Y53075I-305J0D01*
G01*
X69655Y55475D02*
G03*
X69655Y55475I-305J0D01*
G01*
M02*
