G04 Layer_Physical_Order=1*
G04 Layer_Color=25308*
%FSLAX43Y43*%
%MOMM*%
G71*
G01*
G75*
%ADD10R,0.800X0.900*%
%ADD11O,1.800X0.279*%
%ADD12R,1.700X0.350*%
%ADD13O,1.700X0.350*%
%ADD14C,0.254*%
%ADD15C,0.500*%
%ADD16C,1.524*%
%ADD17C,1.100*%
%ADD18C,1.651*%
%ADD19O,1.750X4.500*%
%ADD20O,4.500X1.750*%
%ADD21O,2.540X1.905*%
%ADD22C,1.800*%
%ADD23R,1.800X1.800*%
%ADD24C,2.000*%
%ADD25R,2.000X2.000*%
%ADD26C,0.500*%
%ADD27C,7.000*%
%ADD28C,0.600*%
D10*
X26762Y92654D02*
D03*
X28662D02*
D03*
X27712Y94654D02*
D03*
X34612Y92654D02*
D03*
X36512D02*
D03*
X35562Y94654D02*
D03*
X67692Y94654D02*
D03*
X68642Y92654D02*
D03*
X66742D02*
D03*
X59539Y94629D02*
D03*
X60489Y92629D02*
D03*
X58589D02*
D03*
X50691Y92578D02*
D03*
X52591D02*
D03*
X51641Y94578D02*
D03*
X43515Y94654D02*
D03*
X42565Y92654D02*
D03*
X44465D02*
D03*
X83792Y94511D02*
D03*
X84742Y92511D02*
D03*
X82842D02*
D03*
X75757Y94636D02*
D03*
X76707Y92636D02*
D03*
X74807D02*
D03*
X90503Y92486D02*
D03*
X92403D02*
D03*
X91453Y94486D02*
D03*
X98464Y92511D02*
D03*
X100364D02*
D03*
X99414Y94511D02*
D03*
X30407Y55275D02*
D03*
X32307D02*
D03*
X31358Y57275D02*
D03*
X26132Y55275D02*
D03*
X28032D02*
D03*
X27083Y57275D02*
D03*
X21858Y55275D02*
D03*
X23757D02*
D03*
X22808Y57275D02*
D03*
D11*
X64075Y55675D02*
D03*
Y55025D02*
D03*
Y54375D02*
D03*
Y53725D02*
D03*
Y53075D02*
D03*
Y52425D02*
D03*
Y51775D02*
D03*
Y51125D02*
D03*
Y50475D02*
D03*
Y49825D02*
D03*
Y49175D02*
D03*
Y48525D02*
D03*
X70875Y55675D02*
D03*
Y55025D02*
D03*
Y54375D02*
D03*
Y53725D02*
D03*
Y53075D02*
D03*
Y52425D02*
D03*
Y51775D02*
D03*
Y51125D02*
D03*
Y50475D02*
D03*
Y49825D02*
D03*
Y49175D02*
D03*
Y48525D02*
D03*
D12*
X65925Y72850D02*
D03*
D13*
Y72200D02*
D03*
Y71550D02*
D03*
Y70900D02*
D03*
Y70250D02*
D03*
Y69600D02*
D03*
Y68950D02*
D03*
Y68300D02*
D03*
X71625Y72850D02*
D03*
X71625Y72200D02*
D03*
X71625Y71550D02*
D03*
Y70900D02*
D03*
Y70250D02*
D03*
Y69600D02*
D03*
Y68950D02*
D03*
Y68300D02*
D03*
D14*
X40343Y103650D02*
X44150D01*
X38058Y101365D02*
X40343Y103650D01*
X38058Y74385D02*
Y101365D01*
X42165Y106190D02*
X44150D01*
X37550Y101575D02*
X42165Y106190D01*
X37550Y74175D02*
Y101575D01*
X66288Y66475D02*
X70250Y70437D01*
Y71875D02*
X70575Y72200D01*
X70250Y70437D02*
Y71875D01*
X70575Y72200D02*
X71625D01*
X66950Y69600D02*
X68934Y71584D01*
X66882Y70250D02*
X68724Y72092D01*
X67427Y71550D02*
X74002Y78125D01*
X65925Y71550D02*
X67427D01*
X67300Y72200D02*
X70050Y74950D01*
X65925Y72200D02*
X67300D01*
X68934Y71584D02*
X68946D01*
X65175Y66475D02*
X66288D01*
X61675Y62975D02*
X65175Y66475D01*
X41527Y89504D02*
X43515Y91492D01*
X39458Y89504D02*
X41527D01*
X43515Y91492D02*
Y94654D01*
X49384Y40740D02*
X54395Y35729D01*
X50400Y44804D02*
X54395Y40809D01*
X49892Y42772D02*
X54395Y38269D01*
X49892Y42772D02*
Y75667D01*
X49384Y40740D02*
Y79341D01*
X48850Y38734D02*
X54395Y33189D01*
X103873Y53015D02*
X105050D01*
X100000Y44414D02*
Y49142D01*
X103873Y53015D01*
X100525Y45950D02*
X105050Y50475D01*
X100525Y42399D02*
Y45950D01*
X96420Y38294D02*
X100525Y42399D01*
X96420Y40834D02*
X100000Y44414D01*
X99475Y46429D02*
Y49980D01*
X96420Y43374D02*
X99475Y46429D01*
X98967Y48367D02*
Y50190D01*
X96514Y45914D02*
X98967Y48367D01*
X99475Y49980D02*
X105050Y55555D01*
X98967Y50190D02*
X98975Y50198D01*
Y52020D01*
X98467Y52230D02*
X101733Y55496D01*
X98467Y50501D02*
Y52230D01*
X96420Y48454D02*
X98467Y50501D01*
X98975Y52020D02*
X105050Y58095D01*
X101733Y55496D02*
Y57318D01*
X101225Y55799D02*
Y59350D01*
X96420Y50994D02*
X101225Y55799D01*
X101733Y57318D02*
X105050Y60635D01*
X101225Y59350D02*
X105050Y63175D01*
X107590Y60635D02*
X109517Y58708D01*
Y45992D02*
Y58708D01*
X99279Y35754D02*
X109517Y45992D01*
X107590Y63175D02*
X110025Y60740D01*
Y43425D02*
Y60740D01*
X99814Y33214D02*
X110025Y43425D01*
X96420Y33214D02*
X99814D01*
X96420Y35754D02*
X99279D01*
X96420Y45914D02*
X96514D01*
X31400Y89385D02*
X33050Y87735D01*
Y75225D02*
Y87735D01*
Y75225D02*
X42400Y65875D01*
Y39075D02*
Y65875D01*
X39155Y35830D02*
X42400Y39075D01*
X24800Y77575D02*
X41175Y61200D01*
Y40289D02*
Y61200D01*
X39155Y38269D02*
X41175Y40289D01*
X24800Y77575D02*
Y88135D01*
X39155Y35729D02*
Y35830D01*
X23550Y89385D02*
X24800Y88135D01*
X35925Y51659D02*
X39155Y48429D01*
X29105Y62095D02*
Y66825D01*
X25295Y61145D02*
Y66825D01*
X85826Y107446D02*
Y111559D01*
X41357Y113775D02*
X83610D01*
X83399Y113267D02*
X85318Y111348D01*
X41567Y113267D02*
X83399D01*
X83610Y113775D02*
X85826Y111559D01*
X85318Y109478D02*
Y111348D01*
X84175Y105795D02*
X85826Y107446D01*
X84175Y108335D02*
X85318Y109478D01*
X36512Y108212D02*
X41567Y113267D01*
X28662Y101080D02*
X41357Y113775D01*
X28662Y92654D02*
Y101080D01*
X36512Y92654D02*
Y108212D01*
X27475Y79225D02*
X28662Y80412D01*
Y92654D01*
X35325Y79225D02*
X36512Y80412D01*
Y92654D01*
X33404Y94654D02*
X35562D01*
X31400Y92650D02*
X33404Y94654D01*
X31400Y89385D02*
Y92650D01*
X25004Y94654D02*
X27712D01*
X23550Y93200D02*
X25004Y94654D01*
X23550Y89385D02*
Y93200D01*
X38058Y74385D02*
X44225Y68218D01*
X37550Y74175D02*
X43717Y68008D01*
X44225Y33175D02*
Y68218D01*
X43717Y33742D02*
Y68008D01*
X43164Y33189D02*
X43717Y33742D01*
X41699Y30649D02*
X44225Y33175D01*
X39155Y33189D02*
X43164D01*
X39155Y30649D02*
X41699D01*
X74775Y101475D02*
X81635Y108335D01*
X50775Y101475D02*
X74775D01*
X44510Y95210D02*
X50775Y101475D01*
X52591Y95284D02*
X58207Y100900D01*
X44465Y95210D02*
X44510D01*
X76740Y100900D02*
X81635Y105795D01*
X58207Y100900D02*
X76740D01*
X81635Y110875D02*
X83000Y109510D01*
Y102850D02*
Y109510D01*
X80425Y100275D02*
X83000Y102850D01*
X65502Y100275D02*
X80425D01*
X60489Y95261D02*
X65502Y100275D01*
X80687Y99767D02*
X84175Y103255D01*
X72977Y99767D02*
X80687D01*
X68642Y95433D02*
X72977Y99767D01*
X79292Y50342D02*
X81180Y48454D01*
X78850Y50342D02*
X79292D01*
X39458Y81167D02*
X39533D01*
X39458D02*
Y89504D01*
X39383Y89428D02*
X39458Y89504D01*
X55466Y81241D02*
Y89428D01*
X61150Y87135D02*
X63443Y89428D01*
X61150Y79250D02*
Y87135D01*
X60618Y80411D02*
Y92500D01*
X59475Y79268D02*
X60618Y80411D01*
X47451Y89428D02*
X49427D01*
X43392Y79303D02*
X44535Y80446D01*
X43392Y79268D02*
Y79303D01*
X51459Y79268D02*
X52602Y80411D01*
X67452Y79329D02*
X68642Y80519D01*
X67452Y79268D02*
Y79329D01*
X100459Y92286D02*
X100465D01*
X92403Y92486D02*
X92409D01*
X91266Y79176D02*
X92409Y80319D01*
X84742Y92511D02*
X84748D01*
X83605Y79201D02*
X84748Y80344D01*
X75570Y79326D02*
X76713Y80469D01*
X76707Y92636D02*
X76713D01*
X44535Y80446D02*
Y92583D01*
X52602Y80411D02*
Y92567D01*
X68642Y80519D02*
Y92654D01*
X49427Y89428D02*
X51641Y91643D01*
Y94578D01*
X50400Y68500D02*
X61150Y79250D01*
X50400Y44804D02*
Y68500D01*
X48850Y38734D02*
Y71850D01*
X39533Y81167D02*
X48850Y71850D01*
X49892Y75667D02*
X55466Y81241D01*
X65542Y89428D02*
X67692Y91579D01*
X63443Y89428D02*
X65542D01*
X67692Y91579D02*
Y94654D01*
X57317Y89428D02*
X59539Y91651D01*
X55466Y89428D02*
X57317D01*
X59539Y91651D02*
Y94629D01*
X54395Y50969D02*
X54444D01*
X64500Y72850D02*
X65925D01*
X54395Y45889D02*
X55814D01*
X64975Y68950D02*
X65925D01*
X53951Y43349D02*
X54395D01*
X54444Y50969D02*
X59100Y55625D01*
X55814Y45889D02*
X60500Y50575D01*
Y63375D01*
X59800Y50825D02*
Y63625D01*
X60500Y63375D02*
X63850Y66725D01*
Y67825D01*
X64975Y68950D01*
X59800Y63625D02*
X63325Y67150D01*
X59100Y55625D02*
Y66218D01*
X63325Y67150D02*
Y69725D01*
X64500Y70900D01*
X65925D01*
X53189Y44111D02*
X53951Y43349D01*
X53189Y44111D02*
Y46389D01*
X53925Y47125D01*
X56100D01*
X59800Y50825D01*
X59100Y66218D02*
X63950Y71068D01*
Y72300D01*
X64500Y72850D01*
X70050Y87874D02*
X71663Y89486D01*
X76400Y78125D02*
X78350Y80075D01*
Y88013D01*
X79698Y89361D01*
X87359Y81159D02*
Y89336D01*
X95320Y81370D02*
Y89350D01*
X74002Y78125D02*
X76400D01*
X65925Y70250D02*
X66882D01*
X65925Y69600D02*
X66950D01*
X70394Y73032D02*
Y73080D01*
X70050Y74950D02*
Y87874D01*
X79698Y89361D02*
X81811D01*
X83792Y91342D01*
Y94511D01*
X71663Y89486D02*
X73711D01*
X75757Y91532D01*
Y94636D01*
X87359Y89336D02*
X89511D01*
X91453Y91278D01*
Y94486D01*
X95320Y89350D02*
X97500D01*
X99509Y91359D01*
Y94286D01*
X76713Y80469D02*
Y92636D01*
X100465Y80119D02*
Y92286D01*
X68724Y72092D02*
Y72128D01*
X68946Y71584D02*
X70394Y73032D01*
X68724Y72128D02*
X72078Y75483D01*
X70394Y73080D02*
X72289Y74975D01*
X72078Y75483D02*
X81683D01*
X87359Y81159D01*
X72289Y74975D02*
X88925D01*
X95320Y81370D01*
X44465Y92654D02*
Y95210D01*
X52591Y92578D02*
Y95284D01*
X60489Y92629D02*
Y95261D01*
X68642Y92654D02*
Y95433D01*
X70875Y55025D02*
X70906Y54994D01*
X70875Y52425D02*
X70884Y52434D01*
X73353D01*
X77325Y42149D02*
X81180Y38294D01*
X78342Y46212D02*
X81180Y43374D01*
X77834Y44180D02*
X81180Y40834D01*
X70875Y53725D02*
X70906Y53756D01*
X70906Y54994D02*
X74198D01*
X78342Y46212D02*
Y50132D01*
X70875Y54375D02*
X74099D01*
X77834Y44180D02*
Y49921D01*
X70906Y53756D02*
X73999D01*
X74198Y54994D02*
X78850Y50342D01*
X74099Y54375D02*
X78342Y50132D01*
X73999Y53756D02*
X77834Y49921D01*
X70875Y49825D02*
X72963D01*
X76675Y40259D02*
X81180Y35754D01*
X76675Y40259D02*
Y47550D01*
X73153Y51072D02*
X76675Y47550D01*
X73032Y50475D02*
X76167Y47340D01*
X72963Y49825D02*
X75659Y47129D01*
X76167Y38227D02*
Y47340D01*
Y38227D02*
X81180Y33214D01*
X75659Y36195D02*
Y47129D01*
Y36195D02*
X81180Y30674D01*
X73353Y52434D02*
X77325Y48462D01*
Y42149D02*
Y48462D01*
X70875Y50475D02*
X73032D01*
X70929Y51072D02*
X73153D01*
X47451Y81274D02*
Y89428D01*
Y81274D02*
X49384Y79341D01*
X76707Y92636D02*
X82595Y98525D01*
X100463Y77965D02*
X106550D01*
X99227Y79201D02*
X99387Y79041D01*
X100463Y77965D01*
X99387Y79041D02*
X100465Y80119D01*
X84748Y80344D02*
Y92511D01*
X92403Y92486D02*
X95317Y95400D01*
X92409Y80319D02*
Y92486D01*
X82595Y98525D02*
X97550D01*
X104370Y91705D01*
X106450D01*
X95317Y95400D02*
X99957D01*
X106192Y89165D01*
X106550D01*
X22808Y57275D02*
Y58658D01*
X25295Y61145D01*
X27083Y57275D02*
Y58643D01*
X26565Y59160D02*
X27083Y58643D01*
X26565Y59160D02*
Y66825D01*
X31358Y57275D02*
Y59842D01*
X29105Y62095D02*
X31358Y59842D01*
X31254Y51250D02*
X39155Y43349D01*
X30125Y51250D02*
X31254D01*
X29700Y51675D02*
X30125Y51250D01*
X29700Y51675D02*
Y54568D01*
X30407Y55275D01*
X35925Y51659D02*
Y54400D01*
X34025Y56300D02*
X35925Y54400D01*
X27157Y56300D02*
X34025D01*
X26132Y55275D02*
X27157Y56300D01*
X30916Y40809D02*
X39155D01*
X21382Y50343D02*
X30916Y40809D01*
X21382Y50343D02*
Y54799D01*
X21858Y55275D01*
X22525Y52879D02*
Y54042D01*
X23757Y55275D01*
X26800Y52879D02*
Y54042D01*
X28032Y55275D01*
X31075Y52879D02*
Y54042D01*
X32307Y55275D01*
X61675Y60440D02*
Y62975D01*
D15*
X65925Y67625D02*
Y68100D01*
X68587Y67637D02*
X70653D01*
X64075Y63125D02*
X68587Y67637D01*
X63225Y50200D02*
X64675D01*
X62875Y49850D02*
X63225Y50200D01*
X62500Y49850D02*
X62875D01*
X69825Y48875D02*
X71525D01*
X69350Y49350D02*
X69825Y48875D01*
X63515Y48840D02*
X64760D01*
X62575Y51450D02*
X64625D01*
X61125Y50000D02*
X62575Y51450D01*
X63610Y52740D02*
X64760D01*
X63050Y54050D02*
X64675D01*
X62750Y54350D02*
X63050Y54050D01*
X65479Y49558D02*
Y52392D01*
X66233Y49012D02*
Y52080D01*
X64760Y48840D02*
X65479Y49558D01*
X64796Y47575D02*
X66233Y49012D01*
X72000Y73025D02*
Y73325D01*
X42565Y91810D02*
Y92654D01*
X50691Y91666D02*
Y92578D01*
X58589Y91664D02*
Y92629D01*
X66742Y91592D02*
Y92654D01*
X90503Y91442D02*
Y92486D01*
X82842Y91481D02*
Y92511D01*
X74807Y91557D02*
Y92636D01*
X98464Y91453D02*
Y92511D01*
X34612Y92654D02*
X35325Y91941D01*
Y89385D02*
Y91941D01*
X26762Y92654D02*
X27475Y91941D01*
Y89385D02*
Y91941D01*
X64075Y55300D02*
Y55675D01*
X70975Y55775D02*
X72850D01*
X69350Y49350D02*
Y55475D01*
X70653Y67637D02*
X70669Y67621D01*
X70225Y66883D02*
X70340D01*
X70356Y66867D01*
X70834Y65359D02*
X73908D01*
X70522Y66113D02*
X73596D01*
X70356Y66867D02*
X73283D01*
X70669Y67621D02*
X72971D01*
X61125Y47575D02*
X64796D01*
X61125D02*
Y50000D01*
X70875Y53075D02*
X70875Y53075D01*
X73675D01*
X70875Y51775D02*
X70881Y51769D01*
X71902D01*
X71918Y51753D01*
X72479D01*
X72971Y67621D02*
X77925Y72575D01*
X73283Y66867D02*
X78237Y71821D01*
X73596Y66113D02*
X78550Y71067D01*
X73908Y65359D02*
X78862Y70313D01*
X78237Y71821D02*
X100229D01*
X100230Y71820D01*
X106500D01*
X78550Y71067D02*
X98833D01*
X100620Y69280D01*
X106500D01*
X78862Y70313D02*
X98521D01*
X102094Y66740D01*
X106500D01*
X77925Y72575D02*
X98700D01*
X100485Y74360D01*
X106500D01*
X64075Y55675D02*
Y63125D01*
X68546Y54393D02*
Y63071D01*
X70834Y65359D01*
X67038Y63696D02*
X70225Y66883D01*
X67792Y63383D02*
X70522Y66113D01*
X64760Y52740D02*
X67038Y55017D01*
Y63696D01*
X66233Y52080D02*
X68546Y54393D01*
X65479Y52392D02*
X67792Y54705D01*
Y63383D01*
D16*
X75225Y61875D02*
D03*
Y56875D02*
D03*
X65050Y46200D02*
D03*
X70050D02*
D03*
X61675Y70600D02*
D03*
Y60440D02*
D03*
X57913Y66628D02*
D03*
Y61628D02*
D03*
X31075Y52879D02*
D03*
Y42719D02*
D03*
X26800Y52879D02*
D03*
Y42719D02*
D03*
X22525Y52879D02*
D03*
Y42719D02*
D03*
X31400Y89385D02*
D03*
Y79225D02*
D03*
X35325D02*
D03*
Y89385D02*
D03*
X23550D02*
D03*
Y79225D02*
D03*
X27475D02*
D03*
Y89385D02*
D03*
X59475Y89428D02*
D03*
Y79268D02*
D03*
X63443D02*
D03*
Y89428D02*
D03*
X67452D02*
D03*
Y79268D02*
D03*
X55466Y89428D02*
D03*
Y79268D02*
D03*
X51459D02*
D03*
Y89428D02*
D03*
X47451D02*
D03*
Y79268D02*
D03*
X43392D02*
D03*
Y89428D02*
D03*
X39383D02*
D03*
Y79268D02*
D03*
X84175Y110875D02*
D03*
X81635D02*
D03*
X84175Y108335D02*
D03*
X81635D02*
D03*
X84175Y105795D02*
D03*
X81635D02*
D03*
X84175Y103255D02*
D03*
X81635D02*
D03*
X95500Y67175D02*
D03*
X90500D02*
D03*
X75570Y89486D02*
D03*
Y79326D02*
D03*
X91266Y79176D02*
D03*
Y89336D02*
D03*
X99227Y79201D02*
D03*
Y89361D02*
D03*
X83605D02*
D03*
Y79201D02*
D03*
X79698D02*
D03*
Y89361D02*
D03*
X87359Y89336D02*
D03*
Y79176D02*
D03*
X95320Y89361D02*
D03*
Y79201D02*
D03*
X71663Y89486D02*
D03*
Y79326D02*
D03*
X70450Y59650D02*
D03*
X65450D02*
D03*
D17*
X25295Y66825D02*
D03*
X26565D02*
D03*
X27835D02*
D03*
X29105D02*
D03*
D18*
X96420Y33214D02*
D03*
Y43374D02*
D03*
Y40834D02*
D03*
Y38294D02*
D03*
Y35754D02*
D03*
Y30674D02*
D03*
Y28134D02*
D03*
Y25594D02*
D03*
Y45914D02*
D03*
Y48454D02*
D03*
Y50994D02*
D03*
Y53534D02*
D03*
Y56074D02*
D03*
Y58614D02*
D03*
Y61154D02*
D03*
X81180Y25594D02*
D03*
Y28134D02*
D03*
Y30674D02*
D03*
Y33214D02*
D03*
Y35754D02*
D03*
Y38294D02*
D03*
Y40834D02*
D03*
Y43374D02*
D03*
Y45914D02*
D03*
Y48454D02*
D03*
Y50994D02*
D03*
Y53534D02*
D03*
Y56074D02*
D03*
Y58614D02*
D03*
Y61154D02*
D03*
X39155Y61129D02*
D03*
Y58589D02*
D03*
Y56049D02*
D03*
Y53509D02*
D03*
Y50969D02*
D03*
Y48429D02*
D03*
Y45889D02*
D03*
Y43349D02*
D03*
Y40809D02*
D03*
Y38269D02*
D03*
Y35729D02*
D03*
Y33189D02*
D03*
Y30649D02*
D03*
Y28109D02*
D03*
Y25569D02*
D03*
X54395Y61129D02*
D03*
Y58589D02*
D03*
Y56049D02*
D03*
Y53509D02*
D03*
Y50969D02*
D03*
Y48429D02*
D03*
Y45889D02*
D03*
Y25569D02*
D03*
Y28109D02*
D03*
Y30649D02*
D03*
Y33189D02*
D03*
Y35729D02*
D03*
Y38269D02*
D03*
Y40809D02*
D03*
Y43349D02*
D03*
D19*
X33225Y30750D02*
D03*
D20*
X28525Y33750D02*
D03*
Y27750D02*
D03*
D21*
X106550Y96785D02*
D03*
Y94245D02*
D03*
Y91705D02*
D03*
Y89165D02*
D03*
Y85585D02*
D03*
Y83045D02*
D03*
Y80505D02*
D03*
Y77965D02*
D03*
Y74360D02*
D03*
Y71820D02*
D03*
Y69280D02*
D03*
Y66740D02*
D03*
D22*
X107590Y63175D02*
D03*
Y60635D02*
D03*
Y58095D02*
D03*
Y55555D02*
D03*
Y53015D02*
D03*
X105050Y50475D02*
D03*
Y53015D02*
D03*
Y55555D02*
D03*
Y58095D02*
D03*
Y60635D02*
D03*
Y63175D02*
D03*
D23*
X107590Y50475D02*
D03*
D24*
X44150Y111270D02*
D03*
Y108730D02*
D03*
Y106190D02*
D03*
D25*
Y103650D02*
D03*
D26*
X65925Y67625D02*
D03*
X62750Y54350D02*
D03*
X72000Y73325D02*
D03*
X72479Y51753D02*
D03*
X62500Y49850D02*
D03*
X47451Y53726D02*
D03*
X51725Y26700D02*
D03*
X36756Y42719D02*
D03*
X101725Y48550D02*
D03*
D27*
X110000Y115000D02*
D03*
X20000D02*
D03*
Y25000D02*
D03*
X110000D02*
D03*
D28*
X42565Y91810D02*
D03*
X66725Y91575D02*
D03*
X58589Y91664D02*
D03*
X50625Y91600D02*
D03*
X82833Y91471D02*
D03*
X90483Y91421D02*
D03*
X98458Y91446D02*
D03*
X74807Y91557D02*
D03*
X72850Y55775D02*
D03*
X73675Y53075D02*
D03*
X69350Y55475D02*
D03*
M02*
