G04 Layer_Color=25308*
%FSLAX43Y43*%
%MOMM*%
G71*
G01*
G75*
%ADD10R,0.800X0.900*%
%ADD11O,1.800X0.279*%
%ADD12R,1.700X0.350*%
%ADD13O,1.700X0.350*%
%ADD16C,1.524*%
%ADD17C,1.100*%
%ADD18C,1.651*%
%ADD19O,1.750X4.500*%
%ADD20O,4.500X1.750*%
%ADD21O,2.540X1.905*%
%ADD22C,1.800*%
%ADD23R,1.800X1.800*%
%ADD24C,2.000*%
%ADD25R,2.000X2.000*%
D10*
X26762Y92654D02*
D03*
X28662D02*
D03*
X27712Y94654D02*
D03*
X34612Y92654D02*
D03*
X36512D02*
D03*
X35562Y94654D02*
D03*
X67692Y94654D02*
D03*
X68642Y92654D02*
D03*
X66742D02*
D03*
X59539Y94629D02*
D03*
X60489Y92629D02*
D03*
X58589D02*
D03*
X50691Y92578D02*
D03*
X52591D02*
D03*
X51641Y94578D02*
D03*
X43515Y94654D02*
D03*
X42565Y92654D02*
D03*
X44465D02*
D03*
X83792Y94511D02*
D03*
X84742Y92511D02*
D03*
X82842D02*
D03*
X75757Y94636D02*
D03*
X76707Y92636D02*
D03*
X74807D02*
D03*
X90503Y92486D02*
D03*
X92403D02*
D03*
X91453Y94486D02*
D03*
X98464Y92511D02*
D03*
X100364D02*
D03*
X99414Y94511D02*
D03*
X30407Y55275D02*
D03*
X32307D02*
D03*
X31358Y57275D02*
D03*
X26132Y55275D02*
D03*
X28032D02*
D03*
X27083Y57275D02*
D03*
X21858Y55275D02*
D03*
X23757D02*
D03*
X22808Y57275D02*
D03*
D11*
X64075Y55675D02*
D03*
Y55025D02*
D03*
Y54375D02*
D03*
Y53725D02*
D03*
Y53075D02*
D03*
Y52425D02*
D03*
Y51775D02*
D03*
Y51125D02*
D03*
Y50475D02*
D03*
Y49825D02*
D03*
Y49175D02*
D03*
Y48525D02*
D03*
X70875Y55675D02*
D03*
Y55025D02*
D03*
Y54375D02*
D03*
Y53725D02*
D03*
Y53075D02*
D03*
Y52425D02*
D03*
Y51775D02*
D03*
Y51125D02*
D03*
Y50475D02*
D03*
Y49825D02*
D03*
Y49175D02*
D03*
Y48525D02*
D03*
D12*
X65925Y72850D02*
D03*
D13*
Y72200D02*
D03*
Y71550D02*
D03*
Y70900D02*
D03*
Y70250D02*
D03*
Y69600D02*
D03*
Y68950D02*
D03*
Y68300D02*
D03*
X71625Y72850D02*
D03*
X71625Y72200D02*
D03*
X71625Y71550D02*
D03*
Y70900D02*
D03*
Y70250D02*
D03*
Y69600D02*
D03*
Y68950D02*
D03*
Y68300D02*
D03*
D16*
X75225Y61875D02*
D03*
Y56875D02*
D03*
X65050Y46200D02*
D03*
X70050D02*
D03*
X61675Y70600D02*
D03*
Y60440D02*
D03*
X57913Y66628D02*
D03*
Y61628D02*
D03*
X31075Y52879D02*
D03*
Y42719D02*
D03*
X26800Y52879D02*
D03*
Y42719D02*
D03*
X22525Y52879D02*
D03*
Y42719D02*
D03*
X31400Y89385D02*
D03*
Y79225D02*
D03*
X35325D02*
D03*
Y89385D02*
D03*
X23550D02*
D03*
Y79225D02*
D03*
X27475D02*
D03*
Y89385D02*
D03*
X59475Y89428D02*
D03*
Y79268D02*
D03*
X63443D02*
D03*
Y89428D02*
D03*
X67452D02*
D03*
Y79268D02*
D03*
X55466Y89428D02*
D03*
Y79268D02*
D03*
X51459D02*
D03*
Y89428D02*
D03*
X47451D02*
D03*
Y79268D02*
D03*
X43392D02*
D03*
Y89428D02*
D03*
X39383D02*
D03*
Y79268D02*
D03*
X84175Y110875D02*
D03*
X81635D02*
D03*
X84175Y108335D02*
D03*
X81635D02*
D03*
X84175Y105795D02*
D03*
X81635D02*
D03*
X84175Y103255D02*
D03*
X81635D02*
D03*
X95500Y67175D02*
D03*
X90500D02*
D03*
X75570Y89486D02*
D03*
Y79326D02*
D03*
X91266Y79176D02*
D03*
Y89336D02*
D03*
X99227Y79201D02*
D03*
Y89361D02*
D03*
X83605D02*
D03*
Y79201D02*
D03*
X79698D02*
D03*
Y89361D02*
D03*
X87359Y89336D02*
D03*
Y79176D02*
D03*
X95320Y89361D02*
D03*
Y79201D02*
D03*
X71663Y89486D02*
D03*
Y79326D02*
D03*
X70450Y59650D02*
D03*
X65450D02*
D03*
D17*
X25295Y66825D02*
D03*
X26565D02*
D03*
X27835D02*
D03*
X29105D02*
D03*
D18*
X96420Y33214D02*
D03*
Y43374D02*
D03*
Y40834D02*
D03*
Y38294D02*
D03*
Y35754D02*
D03*
Y30674D02*
D03*
Y28134D02*
D03*
Y25594D02*
D03*
Y45914D02*
D03*
Y48454D02*
D03*
Y50994D02*
D03*
Y53534D02*
D03*
Y56074D02*
D03*
Y58614D02*
D03*
Y61154D02*
D03*
X81180Y25594D02*
D03*
Y28134D02*
D03*
Y30674D02*
D03*
Y33214D02*
D03*
Y35754D02*
D03*
Y38294D02*
D03*
Y40834D02*
D03*
Y43374D02*
D03*
Y45914D02*
D03*
Y48454D02*
D03*
Y50994D02*
D03*
Y53534D02*
D03*
Y56074D02*
D03*
Y58614D02*
D03*
Y61154D02*
D03*
X39155Y61129D02*
D03*
Y58589D02*
D03*
Y56049D02*
D03*
Y53509D02*
D03*
Y50969D02*
D03*
Y48429D02*
D03*
Y45889D02*
D03*
Y43349D02*
D03*
Y40809D02*
D03*
Y38269D02*
D03*
Y35729D02*
D03*
Y33189D02*
D03*
Y30649D02*
D03*
Y28109D02*
D03*
Y25569D02*
D03*
X54395Y61129D02*
D03*
Y58589D02*
D03*
Y56049D02*
D03*
Y53509D02*
D03*
Y50969D02*
D03*
Y48429D02*
D03*
Y45889D02*
D03*
Y25569D02*
D03*
Y28109D02*
D03*
Y30649D02*
D03*
Y33189D02*
D03*
Y35729D02*
D03*
Y38269D02*
D03*
Y40809D02*
D03*
Y43349D02*
D03*
D19*
X33225Y30750D02*
D03*
D20*
X28525Y33750D02*
D03*
Y27750D02*
D03*
D21*
X106550Y96785D02*
D03*
Y94245D02*
D03*
Y91705D02*
D03*
Y89165D02*
D03*
Y85585D02*
D03*
Y83045D02*
D03*
Y80505D02*
D03*
Y77965D02*
D03*
Y74360D02*
D03*
Y71820D02*
D03*
Y69280D02*
D03*
Y66740D02*
D03*
D22*
X107590Y63175D02*
D03*
Y60635D02*
D03*
Y58095D02*
D03*
Y55555D02*
D03*
Y53015D02*
D03*
X105050Y50475D02*
D03*
Y53015D02*
D03*
Y55555D02*
D03*
Y58095D02*
D03*
Y60635D02*
D03*
Y63175D02*
D03*
D23*
X107590Y50475D02*
D03*
D24*
X44150Y111270D02*
D03*
Y108730D02*
D03*
Y106190D02*
D03*
D25*
Y103650D02*
D03*
M02*
